<?xml version="1.0" encoding="utf-8"?>
<!-- Generator: Adobe Illustrator 16.0.0, SVG Export Plug-In . SVG Version: 6.00 Build 0)  -->
<!DOCTYPE svg PUBLIC "-//W3C//DTD SVG 1.1//EN" "http://www.w3.org/Graphics/SVG/1.1/DTD/svg11.dtd">
<svg version="1.1" id="图层_1" xmlns="http://www.w3.org/2000/svg" xmlns:xlink="http://www.w3.org/1999/xlink" x="0px" y="0px"
	  viewBox="-50 0 1700 500" enable-background="new -50 0 1700 500" xml:space="preserve">
<path fill="#78C9E9" d="M150.733,15.047c9.25-0.891,18.5,0.16,27.739,0.63c27.012,2.54,53.65,9.931,77.7,22.561
	c33.86,17.689,62.96,44.75,82.2,77.841c15.76,26.59,25.09,56.909,27.45,87.72c0.76,19.66,0.43,39.35,0.5,59.029
	c-0.011,48.669,0.01,97.339-0.011,146.01c-0.63,14.311,0.341,28.69-1.39,42.94c-0.62,5.771-1.58,11.738-4.53,16.828
	c-2.931,4.971-9.069,7.432-14.671,6.5c-3.188-0.898-5.829-3.049-8.27-5.199c-12.46-11.879-21.38-27.129-34.97-37.879
	c-5.25-3.979-12.32-7.5-18.932-4.801c-9.38,3.77-15.37,12.4-21.64,19.879c-7.99,9.701-15.59,20.701-27.32,26.141
	c-7.33,3.521-16.279,2.17-22.699-2.629c-13.851-10.262-21.029-26.891-34.461-37.602c-6.829-5.488-16.25-8.398-24.84-5.75
	c-7.529,1.979-13.27,7.701-18.04,13.57c-6.52,8.239-11.5,17.631-18.55,25.461c-3.899,4.33-8.99,7.799-14.8,8.84
	c-6.79,0.91-13.41-2.211-18.49-6.49c-12.351-10.43-19.24-25.721-31.3-36.43c-5.07-4.642-12.551-7.611-19.29-4.939
	c-12.12,4.408-20.811,14.449-29.601,23.398c-7.729,7.69-14.16,16.86-23.41,22.881c-4.71,3.221-11.069,1.41-15.29-1.812
	c-4.891-4-6.75-10.42-8.149-16.329c-2.771-13.671-2.569-27.681-2.62-41.562c-0.31-9.68-0.439-19.369,0.021-29.049
	c-0.029-54.34-0.01-108.68-0.01-163.019c-1.62-56.271,22.54-112.5,63.71-150.761c24.5-23.01,54.63-40.101,87.141-48.739
	C119.193,18.137,134.923,15.728,150.733,15.047z"/>
<path fill="#FFFFFF" d="M103.052,148.387c10.641-2.22,21.87-1.25,31.98,2.75c15.52,5.98,28.109,19.36,32.8,35.37
	c3.51,11.08,3.37,23.311-0.33,34.33c-5.641,18.24-21.601,32.659-40.21,36.719c-5.189,0.98-10.42,2.449-15.74,1.789
	c-7.689-1.049-15.42-2.619-22.39-6.18c-14.03-6.959-24.92-20.128-28.729-35.369c-4.53-16.93-0.979-36.21,10.311-49.79
	C78.824,157.988,90.393,150.868,103.052,148.387z"/>
<path fill="#FFFFFF" d="M273.944,148.377c14.59-3.13,30.358,0.069,42.76,8.351c9.74,6.72,17.57,16.399,21.35,27.689
	c5.892,16.79,3.4,36.37-6.858,50.97c-7.87,11.349-20.19,19.499-33.71,22.319c-3.96,0.739-7.91,1.77-11.95,1.799
	c-14.65-0.779-29.57-5.969-39.88-16.759c-10.83-10.3-16.021-25.27-16.602-39.97c0.722-13.42,5.2-26.96,14.432-36.979
	C251.433,156.917,262.262,150.738,273.944,148.377z"/>
<path fill="#063F82" d="M128.183,178.658c9.021-3.062,19.641-0.65,26.369,6.119c7.79,7.609,9.841,20.279,4.87,29.971
	c-3.46,6.88-10.109,12.199-17.72,13.66c-8.38,1.96-17.7-0.891-23.66-7.091c-4.811-4.83-7.66-11.649-7.351-18.5
	C110.414,192.097,118.084,181.958,128.183,178.658z"/>
<path fill="#063F82" d="M299.133,178.658c7.41-2.471,15.95-1.4,22.431,2.989c5.399,3.489,9.221,9.199,10.779,15.409
	c2.24,9.131-0.88,19.341-8.068,25.461c-9.432,8.851-25.65,8.55-34.75-0.631c-7.07-6.43-9.562-16.93-7-26.01
	C284.824,187.898,291.214,181.198,299.133,178.658z"/>
<rect x="511.745" y="86.245" fill="none" width="933.896" height="214.009"/>
<g enable-background="new    ">
	<path fill="#FFFFFF" d="M487.297,201.543h-4.272c-0.814,0.244-1.629,0.488-2.441,0.732c-0.652,0.164-1.303,0.326-1.953,0.488
		c-0.652,0.164-1.181,0.244-1.587,0.244c-0.408,0-1.019,0.143-1.831,0.428c-0.814,0.285-1.629,0.591-2.441,0.915
		c-0.896,0.408-1.913,0.854-3.052,1.343l-4.272,1.587c-0.732,0.408-1.69,0.915-2.869,1.526c-1.181,0.609-2.361,1.241-3.54,1.892
		c-1.181,0.652-2.279,1.201-3.296,1.647c-1.019,0.448-1.69,0.672-2.014,0.672l-2.93,2.93v17.334l-1.343,4.517
		c0,0.326-0.244,0.875-0.732,1.647c-0.488,0.774-1.059,1.629-1.709,2.564c-0.652,0.936-1.324,1.79-2.014,2.563
		c-0.692,0.773-1.202,1.322-1.526,1.648l-1.221,1.587c-0.408,0.406-0.937,0.834-1.587,1.282c-0.652,0.446-1.364,0.895-2.136,1.342
		c-0.774,0.448-1.507,0.813-2.197,1.1c-0.692,0.283-1.242,0.426-1.648,0.426h-1.221l-2.93-1.221
		c-0.408-0.326-1.019-0.834-1.831-1.526c-0.814-0.691-1.629-1.384-2.441-2.074c-0.814-0.692-1.526-1.364-2.136-2.015
		s-0.916-1.179-0.916-1.587c-0.244-0.568-0.488-1.139-0.732-1.709c-0.164-0.488-0.326-0.977-0.488-1.465
		c-0.164-0.488-0.244-0.935-0.244-1.343v-1.221v-1.587c0-0.732,0.244-1.709,0.732-2.93s0.732-2.155,0.732-2.808l1.587-2.93
		l1.221-1.587l1.465-2.686c0-0.324,0.162-0.916,0.488-1.77c0.324-0.855,0.671-1.729,1.038-2.625
		c0.366-0.895,0.711-1.749,1.038-2.563c0.324-0.813,0.488-1.423,0.488-1.831c0-0.244,0.101-0.874,0.305-1.893
		c0.202-1.017,0.467-2.237,0.793-3.662c0.324-1.423,0.65-2.93,0.977-4.516c0.324-1.588,0.65-3.093,0.977-4.518
		c0.324-1.423,0.589-2.664,0.793-3.723c0.202-1.057,0.305-1.709,0.305-1.953c0-0.324,0.162-1.057,0.488-2.197
		c0.324-1.139,0.671-2.359,1.038-3.662c0.366-1.301,0.711-2.502,1.038-3.602c0.324-1.098,0.488-1.85,0.488-2.258
		c0-0.324,0.162-1.404,0.488-3.234c0.324-1.832,0.671-3.846,1.038-6.043s0.711-4.23,1.038-6.104c0.324-1.871,0.488-3.01,0.488-3.418
		l1.465-4.15c0-0.406,0.141-1.688,0.427-3.846c0.284-2.155,0.589-4.516,0.916-7.08c0.324-2.563,0.629-4.923,0.916-7.08
		c0.284-2.155,0.427-3.437,0.427-3.845c0-0.324,0.162-1.221,0.488-2.686c0.324-1.465,0.671-3.052,1.038-4.761
		s0.711-3.376,1.038-5.005c0.324-1.627,0.488-2.808,0.488-3.54l1.465-5.737c0-0.324,0.061-0.895,0.183-1.709
		c0.122-0.813,0.284-1.688,0.488-2.624c0.202-0.936,0.366-1.79,0.488-2.564c0.122-0.772,0.183-1.361,0.183-1.77
		c0-0.324,0.08-0.956,0.244-1.893c0.162-0.935,0.324-1.953,0.488-3.051c0.162-1.1,0.324-2.116,0.488-3.053
		c0.162-0.935,0.244-1.605,0.244-2.014c0-0.406,0.08-0.854,0.244-1.343c0.162-0.488,0.324-0.977,0.488-1.465
		c0.244-0.568,0.488-1.139,0.732-1.709c0-0.324,0.162-0.732,0.488-1.221c0.324-0.488,0.732-0.956,1.221-1.403
		s0.977-0.834,1.465-1.16c0.488-0.324,0.935-0.488,1.343-0.488h5.737h5.737c0.406,0,0.854,0.082,1.343,0.244
		c0.488,0.164,0.977,0.326,1.465,0.488c0.568,0.244,1.139,0.488,1.709,0.732c0.324,0,0.813,0.305,1.465,0.916
		c0.65,0.609,1.343,1.323,2.075,2.136c0.732,0.814,1.423,1.629,2.075,2.441c0.65,0.814,1.179,1.425,1.587,1.831
		c0.732,0.814,1.423,1.587,2.075,2.319c0.568,0.652,1.078,1.282,1.526,1.892c0.446,0.611,0.671,1.12,0.671,1.526l1.587,2.93
		c0,0.408,0.08,0.915,0.244,1.526c0.162,0.609,0.324,1.241,0.488,1.892c0.244,0.732,0.488,1.507,0.732,2.319v5.859
		c0,0.408,0.223,1.303,0.671,2.686c0.446,1.385,0.935,2.89,1.465,4.517c0.528,1.629,1.017,3.154,1.465,4.577
		c0.446,1.425,0.671,2.301,0.671,2.625l1.465,7.324c0,0.652,0.162,1.547,0.488,2.686c0.324,1.141,0.671,2.3,1.038,3.479
		c0.366,1.181,0.711,2.279,1.038,3.297c0.324,1.018,0.488,1.689,0.488,2.014c0,0.408,0.223,1.221,0.671,2.441
		c0.446,1.221,0.916,2.563,1.404,4.028s0.956,2.828,1.404,4.089c0.446,1.263,0.671,2.057,0.671,2.381l1.587,5.859
		c0,0.408,0.141,0.937,0.427,1.587c0.284,0.652,0.629,1.303,1.038,1.953c0.406,0.814,0.895,1.629,1.465,2.441l5.737,1.221
		c0.406,0,0.854,0.082,1.343,0.244c0.488,0.164,0.935,0.326,1.343,0.488c0.488,0.244,1.017,0.488,1.587,0.732l3.052,3.052v1.221
		v1.465l-7.324,7.324v1.465v3.052c0,0.326,0.162,1.201,0.488,2.624c0.324,1.425,0.711,3.033,1.16,4.822
		c0.446,1.791,0.916,3.602,1.404,5.432c0.488,1.832,0.895,3.277,1.221,4.334c0,0.408,0.08,0.854,0.244,1.343
		c0.162,0.488,0.324,0.937,0.488,1.343c0.244,0.488,0.488,1.019,0.732,1.587c0,0.408,0.385,1.323,1.16,2.747
		c0.772,1.424,1.606,2.95,2.502,4.577c0.895,1.629,1.728,3.134,2.502,4.517c0.772,1.385,1.16,2.239,1.16,2.563
		c0,0.408,0.141,1.019,0.427,1.831c0.284,0.814,0.61,1.689,0.977,2.625s0.711,1.812,1.038,2.624
		c0.324,0.814,0.488,1.385,0.488,1.709l1.587,3.052c0,0.408,0.305,0.997,0.916,1.77c0.61,0.773,1.261,1.606,1.953,2.503
		c0.69,0.895,1.343,1.729,1.953,2.503c0.61,0.772,0.916,1.321,0.916,1.647l1.465,3.053v1.465v1.465l-1.465,2.807
		c-0.57,0.895-1.099,1.709-1.587,2.441c-0.977,1.465-1.873,2.564-2.686,3.297c-0.732,0.732-1.547,1.422-2.441,2.074
		c-0.896,0.65-2.075,0.977-3.54,0.977h-1.221l-3.052-1.586c-0.408-0.408-0.854-0.836-1.343-1.281
		c-0.488-0.449-0.977-0.877-1.465-1.283c-0.57-0.488-1.141-1.018-1.709-1.586c0-0.408-0.225-1.1-0.671-2.076
		c-0.448-0.977-0.998-2.074-1.648-3.295c-0.652-1.221-1.303-2.422-1.953-3.602c-0.652-1.18-1.141-2.137-1.465-2.869L507.805,245
		c0-0.324-0.244-0.977-0.732-1.953s-0.998-2.014-1.526-3.113c-0.53-1.098-1.038-2.136-1.526-3.112s-0.732-1.667-0.732-2.075
		c0-0.324-0.164-1.057-0.488-2.197c-0.326-1.139-0.671-2.339-1.038-3.602c-0.366-1.261-0.713-2.441-1.038-3.539
		c-0.326-1.1-0.488-1.811-0.488-2.137c-0.326-0.732-0.732-1.851-1.221-3.357c-0.488-1.505-0.958-3.01-1.404-4.516
		c-0.448-1.506-0.835-2.889-1.16-4.15c-0.326-1.262-0.488-2.095-0.488-2.503c-0.408-0.406-0.854-0.996-1.343-1.771
		c-0.488-0.772-0.977-1.565-1.465-2.38c-0.57-0.895-1.141-1.911-1.709-3.052H487.297z M458.244,185.552l1.221,1.465h3.052
		c2.848,0,5.756-0.306,8.728-0.915c2.97-0.611,5.878-1.322,8.728-2.137c0.406,0,0.854-0.08,1.343-0.244
		c0.488-0.162,0.935-0.324,1.343-0.488c0.488-0.244,1.017-0.488,1.587-0.732l1.465-1.221v-1.587v-1.465
		c0-0.324-0.143-1.057-0.427-2.197c-0.286-1.139-0.591-2.319-0.916-3.54c-0.326-1.221-0.631-2.381-0.916-3.479
		c-0.286-1.1-0.427-1.851-0.427-2.259c0-0.324-0.082-1.057-0.244-2.197c-0.164-1.139-0.347-2.359-0.549-3.662
		c-0.204-1.301-0.387-2.503-0.549-3.601c-0.164-1.1-0.244-1.851-0.244-2.259c0-0.324-0.244-0.977-0.732-1.953
		s-1.059-2.033-1.709-3.174c-0.652-1.139-1.303-2.299-1.953-3.479c-0.652-1.179-1.181-2.136-1.587-2.868l-2.686-2.808h-1.465
		l-1.587,1.221c0,0.408-0.143,0.875-0.427,1.404c-0.286,0.529-0.591,1.058-0.916,1.586c-0.326,0.53-0.631,1.038-0.916,1.526
		c-0.286,0.488-0.427,0.896-0.427,1.221c-0.652,1.465-1.181,2.768-1.587,3.906c-0.408,1.059-0.753,2.035-1.038,2.93
		c-0.286,0.896-0.427,1.547-0.427,1.953c0,0.408-0.164,1.099-0.488,2.075c-0.326,0.977-0.671,2.014-1.038,3.113
		c-0.366,1.098-0.692,2.136-0.977,3.112c-0.286,0.977-0.427,1.629-0.427,1.953c0,0.408-0.082,0.937-0.244,1.587
		c-0.164,0.652-0.347,1.323-0.549,2.014c-0.204,0.692-0.387,1.385-0.549,2.076c-0.164,0.691-0.244,1.201-0.244,1.525
		c0,0.408-0.061,1.079-0.183,2.014c-0.122,0.937-0.265,1.935-0.427,2.991c-0.164,1.059-0.305,2.075-0.427,3.052
		s-0.183,1.629-0.183,1.953V185.552z"/>
	<path fill="#FFFFFF" d="M547.234,244.267c-0.408-0.732-0.937-1.893-1.587-3.479c-0.652-1.588-1.303-3.275-1.953-5.066
		c-0.652-1.789-1.221-3.498-1.709-5.127c-0.488-1.627-0.732-2.808-0.732-3.54v-1.587v-2.93c0-0.406,0.08-0.956,0.244-1.648
		c0.162-0.69,0.324-1.403,0.488-2.136c0.162-0.732,0.324-1.423,0.488-2.075c0.162-0.65,0.244-1.139,0.244-1.465
		c0-0.324-0.082-1.057-0.244-2.197c-0.164-1.139-0.326-2.359-0.488-3.662c-0.164-1.301-0.326-2.502-0.488-3.602
		c-0.164-1.098-0.244-1.85-0.244-2.258c0-0.65-0.082-2.014-0.244-4.09c-0.164-2.074-0.347-4.333-0.549-6.774
		c-0.204-2.441-0.387-4.801-0.549-7.08c-0.164-2.277-0.244-3.946-0.244-5.005v-6.104c0-0.324-0.082-1.221-0.244-2.686
		c-0.164-1.465-0.326-3.01-0.488-4.639c-0.164-1.627-0.326-3.132-0.488-4.517c-0.164-1.383-0.244-2.237-0.244-2.563v-5.737
		c0-0.406-0.082-1.647-0.244-3.724c-0.164-2.074-0.326-4.313-0.488-6.713c-0.164-2.4-0.326-4.618-0.488-6.653
		c-0.164-2.033-0.244-3.254-0.244-3.662c0-0.732-0.082-2.503-0.244-5.31c-0.164-2.809-0.326-5.839-0.488-9.095
		c-0.164-3.254-0.326-6.286-0.488-9.095c-0.164-2.807-0.244-4.577-0.244-5.31l-1.587-5.737v-5.981c0-0.324-0.164-0.895-0.488-1.709
		c-0.326-0.813-0.671-1.709-1.038-2.686s-0.692-1.871-0.977-2.686c-0.286-0.813-0.427-1.383-0.427-1.709v-4.517v-2.686l8.911-8.789
		h3.052h5.981l2.563,1.465c0.406,0,0.854,0.143,1.343,0.428s0.977,0.631,1.465,1.037c0.568,0.408,1.139,0.854,1.709,1.343
		l2.93,4.517v2.686v3.052c0,0.408-0.164,1.019-0.488,1.831c-0.326,0.814-0.671,1.669-1.038,2.563
		c-0.366,0.896-0.692,1.771-0.977,2.624c-0.286,0.855-0.427,1.526-0.427,2.015c0,0.326-0.082,0.957-0.244,1.892
		c-0.164,0.937-0.347,1.935-0.549,2.991c-0.204,1.059-0.387,2.075-0.549,3.052c-0.164,0.977-0.244,1.629-0.244,1.953v14.526v15.991
		c0,0.244,0.04,0.916,0.122,2.014c0.08,1.1,0.183,2.423,0.305,3.968c0.122,1.547,0.244,3.216,0.366,5.005
		c0.122,1.791,0.244,3.46,0.366,5.005c0.122,1.547,0.223,2.89,0.305,4.028c0.08,1.141,0.122,1.831,0.122,2.075v4.15
		c0,1.059,0.08,2.808,0.244,5.249c0.162,2.441,0.324,4.965,0.488,7.568c0.162,2.605,0.324,4.965,0.488,7.08
		c0.162,2.117,0.244,3.338,0.244,3.662c0,0.326,0.08,0.957,0.244,1.893c0.162,0.936,0.324,1.953,0.488,3.051
		c0.162,1.1,0.324,2.137,0.488,3.113c0.162,0.977,0.244,1.629,0.244,1.953c0,0.408,0.08,1.221,0.244,2.441
		c0.162,1.221,0.324,2.563,0.488,4.028c0.162,1.465,0.324,2.828,0.488,4.089c0.162,1.263,0.244,2.057,0.244,2.381
		c0,0.408,0.162,1.099,0.488,2.075c0.324,0.977,0.671,2.015,1.038,3.112c0.366,1.1,0.711,2.137,1.038,3.113
		c0.324,0.977,0.488,1.629,0.488,1.953c0.568,0.814,1.057,1.587,1.465,2.319c0.406,0.652,0.772,1.282,1.099,1.892
		c0.324,0.611,0.488,1.12,0.488,1.526l2.93,4.517v4.517v5.737c0,0.326-0.082,0.814-0.244,1.465
		c-0.164,0.652-0.326,1.343-0.488,2.075c-0.164,0.732-0.326,1.445-0.488,2.136c-0.164,0.692-0.244,1.242-0.244,1.648l-1.465,1.221
		c-2.279,1.465-4.293,2.319-6.042,2.563c-1.751,0.244-3.765,0.366-6.042,0.366h-4.517L547.234,244.267z"/>
	<path fill="#FFFFFF" d="M594.719,237.798c0-1.057-0.082-2.808-0.244-5.249c-0.164-2.441-0.326-5.024-0.488-7.752
		c-0.164-2.726-0.326-5.31-0.488-7.751c-0.164-2.441-0.244-4.19-0.244-5.249c-0.244-1.709-0.488-3.296-0.732-4.761
		c-0.164-1.301-0.326-2.604-0.488-3.906c-0.164-1.301-0.244-2.359-0.244-3.174c0-0.65-0.103-1.526-0.305-2.624
		c-0.204-1.1-0.387-2.217-0.549-3.357c-0.244-1.301-0.488-2.644-0.732-4.028l-1.465-5.981v-10.01l-2.686-5.737
		c0-0.406-0.103-0.874-0.305-1.403c-0.204-0.529-0.387-1.038-0.549-1.526c-0.244-0.568-0.488-1.179-0.732-1.831v-5.737v-4.272
		c0-0.324,0.162-0.834,0.488-1.525c0.324-0.691,0.711-1.404,1.16-2.137c0.446-0.732,0.916-1.423,1.404-2.075
		c0.488-0.65,0.895-1.139,1.221-1.465c0.568-0.568,1.139-1.057,1.709-1.465c0.488-0.406,0.977-0.772,1.465-1.099
		c0.488-0.324,0.935-0.488,1.343-0.488l2.808-1.465c0.406,0,0.916-0.08,1.526-0.244c0.61-0.162,1.24-0.324,1.892-0.488
		c0.732-0.244,1.505-0.488,2.319-0.732c0.324,0,0.895,0.164,1.709,0.488c0.813,0.326,1.688,0.713,2.625,1.16
		c0.935,0.447,1.789,0.936,2.563,1.465c0.772,0.529,1.362,0.997,1.77,1.403l3.052,2.686c0,0.408,0.141,0.875,0.427,1.403
		c0.284,0.53,0.589,1.08,0.916,1.648c0.324,0.57,0.629,1.119,0.916,1.648c0.284,0.529,0.427,0.957,0.427,1.281v1.343v1.465
		c0,0.408-0.143,1.099-0.427,2.075c-0.286,0.977-0.591,2.035-0.916,3.174c-0.326,1.141-0.631,2.218-0.916,3.234
		c-0.286,1.019-0.427,1.69-0.427,2.015c0,0.408-0.082,0.997-0.244,1.771c-0.164,0.773-0.326,1.567-0.488,2.38
		c-0.244,0.896-0.488,1.913-0.732,3.052v13.062v14.526c0,0.408,0.08,0.997,0.244,1.77c0.162,0.774,0.324,1.629,0.488,2.564
		c0.162,0.936,0.324,1.812,0.488,2.624c0.162,0.814,0.244,1.385,0.244,1.709c0,0.408,0.223,1.019,0.671,1.831
		c0.446,0.814,0.935,1.689,1.465,2.625c0.528,0.936,1.017,1.812,1.465,2.624c0.446,0.814,0.671,1.385,0.671,1.709
		c0,0.326,0.08,0.732,0.244,1.221c0.162,0.488,0.324,0.937,0.488,1.343c0.244,0.57,0.488,1.141,0.732,1.709v1.465v2.808
		c0,0.408-0.082,1.079-0.244,2.015c-0.164,0.936-0.326,1.892-0.488,2.868c-0.244,1.141-0.488,2.401-0.732,3.784
		c-0.326,0.57-0.652,1.141-0.977,1.709c-0.326,0.488-0.631,0.977-0.916,1.465c-0.286,0.488-0.591,0.937-0.916,1.343
		c-0.408,0.326-0.854,0.732-1.343,1.221s-0.977,0.937-1.465,1.343L610.466,245h-4.15h-5.859l-2.93-1.465l-1.465-1.587
		L594.719,237.798z M587.761,103.52v-3.052c0-0.895,0.244-2.217,0.732-3.967s0.732-3.071,0.732-3.968l1.831-3.296l1.465-1.465
		c0.406-0.406,1.118-0.874,2.136-1.404c1.017-0.528,2.054-1.037,3.113-1.525c1.221-0.568,2.563-1.179,4.028-1.831
		c0.65,0.326,1.261,0.61,1.831,0.854c1.139,0.57,2.197,0.854,3.174,0.854c0.568,0.326,1.139,0.652,1.709,0.977
		c0.977,0.57,1.911,1.263,2.808,2.075c0.406,0.408,0.977,0.875,1.709,1.404s1.423,1.037,2.075,1.525
		c0.813,0.57,1.627,1.181,2.441,1.831v4.761v4.761c-0.814,0.896-1.629,1.751-2.441,2.563c-0.652,0.652-1.343,1.323-2.075,2.014
		c-0.732,0.692-1.303,1.242-1.709,1.648c-0.814,0.896-1.852,1.607-3.113,2.137c-1.263,0.529-2.34,0.793-3.235,0.793h-6.226h-6.226
		l-3.296-1.221l-1.465-3.296V103.52z"/>
	<path fill="#FFFFFF" d="M643.059,242.192v-2.93c0-0.324,0.061-0.854,0.183-1.587s0.263-1.505,0.427-2.319
		c0.162-0.813,0.305-1.606,0.427-2.38s0.183-1.362,0.183-1.771v-7.69v-9.277c0-0.324-0.061-1.099-0.183-2.319
		s-0.265-2.563-0.427-4.028c-0.164-1.465-0.305-2.848-0.427-4.15c-0.122-1.301-0.183-2.277-0.183-2.93l-0.977-5.859v-23.682
		c0-0.324-0.061-0.874-0.183-1.648c-0.122-0.772-0.286-1.627-0.488-2.563c-0.204-0.936-0.366-1.872-0.488-2.809
		c-0.122-0.935-0.183-1.77-0.183-2.502l-1.221-5.249v-1.221v-1.221c0.488-0.568,0.895-1.139,1.221-1.709
		c0.324-0.406,0.629-0.854,0.916-1.343c0.284-0.488,0.427-0.895,0.427-1.221c0-0.324,0.183-0.732,0.549-1.221
		s0.751-0.935,1.16-1.343c0.488-0.488,1.057-0.977,1.709-1.465l2.808-1.221h3.54h3.418l2.563,1.221l2.441,2.686
		c0.244,0.408,0.528,0.896,0.854,1.465c0.324,0.57,0.65,1.181,0.977,1.831c0.324,0.732,0.732,1.507,1.221,2.319v2.441v4.028
		c0,1.221-0.061,2.422-0.183,3.602s-0.244,2.482-0.366,3.906s-0.244,3.011-0.366,4.76c-0.122,1.751-0.225,3.724-0.305,5.921
		l-0.244,10.742h0.488c0.732-1.221,1.423-2.441,2.075-3.662c0.568-0.977,1.139-2.015,1.709-3.112c0.568-1.1,1.057-1.973,1.465-2.625
		c0.324-0.324,0.65-0.813,0.977-1.465c0.324-0.65,0.65-1.343,0.977-2.075c0.324-0.732,0.629-1.423,0.916-2.075
		c0.284-0.65,0.549-1.139,0.793-1.465c0-0.324,0.244-0.854,0.732-1.587s0.996-1.526,1.526-2.38c0.528-0.855,1.038-1.668,1.526-2.441
		s0.732-1.362,0.732-1.771c0.244-0.324,0.549-0.854,0.916-1.587s0.751-1.465,1.16-2.197c0.406-0.895,0.895-1.831,1.465-2.808
		c0.324-0.65,0.69-1.627,1.099-2.93c0.406-1.301,0.813-2.644,1.221-4.028c0.406-1.383,0.751-2.686,1.038-3.906
		c0.284-1.221,0.427-2.155,0.427-2.808c0-0.244,0.122-0.59,0.366-1.038c0.244-0.446,0.549-0.895,0.916-1.342s0.751-0.834,1.16-1.16
		c0.406-0.324,0.732-0.488,0.977-0.488c1.139-0.162,2.277-0.366,3.418-0.61c0.977-0.162,1.972-0.306,2.991-0.427
		c1.017-0.123,1.892-0.184,2.625-0.184h2.197h2.319l2.686,1.221c0.488,0.814,0.934,1.547,1.342,2.197
		c0.406,0.652,0.813,1.241,1.221,1.77c0.406,0.53,0.732,0.958,0.977,1.282l1.221,2.686c0,0.652,0.142,2.015,0.428,4.089
		c0.284,2.076,0.568,4.294,0.854,6.653c0.284,2.361,0.568,4.577,0.854,6.653c0.284,2.074,0.428,3.479,0.428,4.211v14.648
		l0.244,3.052l1.953-4.272c0.324-0.813,0.955-2.258,1.892-4.334c0.935-2.074,1.953-4.291,3.052-6.652
		c1.099-2.359,2.115-4.557,3.052-6.592c0.935-2.033,1.526-3.418,1.771-4.15c0-0.324,0.141-0.854,0.427-1.587
		c0.284-0.732,0.568-1.484,0.854-2.259c0.284-0.772,0.568-1.525,0.854-2.258c0.284-0.732,0.427-1.261,0.427-1.587
		c0.324-0.406,0.834-0.977,1.526-1.709c0.69-0.732,1.423-1.505,2.197-2.319c0.772-0.813,1.505-1.566,2.197-2.258
		c0.69-0.691,1.2-1.2,1.526-1.526l5.248-7.202c0.732-0.488,1.424-0.935,2.076-1.343c0.568-0.406,1.117-0.813,1.647-1.221
		c0.528-0.406,0.956-0.813,1.282-1.221c0.406-0.244,0.813-0.488,1.221-0.732c0.406-0.162,0.771-0.324,1.098-0.488
		c0.324-0.162,0.65-0.244,0.977-0.244h2.686h1.221c0.65,0.57,1.301,1.059,1.953,1.465c0.488,0.408,0.996,0.753,1.526,1.038
		c0.528,0.285,0.956,0.427,1.282,0.427l1.586,0.977c0,0.652,0.162,1.547,0.488,2.686c0.324,1.141,0.488,2.075,0.488,2.808
		c0,1.303,0.102,3.113,0.306,5.432c0.202,2.32,0.427,4.742,0.671,7.264c0.244,2.523,0.468,4.943,0.672,7.264
		c0.202,2.318,0.305,4.171,0.305,5.554c0,0.326,0.08,1.079,0.244,2.259c0.162,1.18,0.324,2.522,0.488,4.027
		c0.162,1.507,0.324,3.033,0.488,4.578c0.162,1.547,0.244,2.85,0.244,3.906c0,0.326,0.062,0.997,0.184,2.014
		c0.122,1.019,0.284,2.097,0.488,3.235c0.202,1.141,0.366,2.218,0.488,3.235s0.184,1.689,0.184,2.014
		c0,0.244,0.061,0.793,0.183,1.648c0.122,0.854,0.263,1.729,0.427,2.624c0.162,1.059,0.367,2.239,0.611,3.54
		c0,0.652,0.162,1.893,0.488,3.723c0.324,1.832,0.711,3.744,1.159,5.738c0.446,1.994,0.935,3.887,1.465,5.676
		c0.528,1.791,0.995,2.972,1.403,3.54c0,0.488,0.123,1.038,0.367,1.647c0.244,0.611,0.527,1.242,0.854,1.893
		c0.324,0.652,0.611,1.281,0.855,1.893c0.244,0.609,0.365,1.159,0.365,1.647l2.32,5.249c0.324,0.326,0.629,0.835,0.915,1.525
		c0.284,0.692,0.55,1.404,0.794,2.137c0.324,0.896,0.568,1.831,0.732,2.808c-0.244,0.57-0.449,1.099-0.611,1.587
		c-0.408,0.977-0.609,1.873-0.609,2.686c0,0.326-0.123,0.713-0.367,1.16c-0.244,0.446-0.488,0.873-0.732,1.281
		c-0.326,0.488-0.691,0.977-1.098,1.465l-2.564,1.343h-3.783h-3.662c-1.629-0.488-3.094-0.937-4.395-1.343
		c-1.141-0.408-2.219-0.753-3.235-1.037c-1.019-0.286-1.729-0.428-2.136-0.428c-0.652,0-1.404-0.469-2.259-1.404
		c-0.854-0.935-1.282-1.728-1.282-2.38c-0.326-0.732-0.609-2.075-0.854-4.028s-0.47-4.008-0.672-6.164
		c-0.204-2.156-0.366-4.17-0.488-6.043c-0.122-1.871-0.184-3.092-0.184-3.662c0-0.488-0.041-1.261-0.121-2.319
		c-0.082-1.057-0.184-2.177-0.306-3.356s-0.226-2.299-0.306-3.357c-0.082-1.057-0.121-1.831-0.121-2.319l-0.977-3.418
		c0-0.406-0.043-0.915-0.123-1.526c-0.082-0.609-0.203-1.239-0.365-1.892c-0.164-0.732-0.326-1.505-0.488-2.319
		c0-0.244-0.062-0.732-0.184-1.465s-0.266-1.525-0.428-2.381c-0.164-0.854-0.305-1.667-0.427-2.441
		c-0.122-0.772-0.183-1.281-0.183-1.525l-0.244-5.493c0-0.244-0.043-1.099-0.123-2.563c-0.082-1.465-0.164-3.071-0.244-4.822
		c-0.082-1.749-0.164-3.376-0.244-4.883c-0.082-1.505-0.121-2.42-0.121-2.746c0-0.324,0-0.977,0-1.953s-0.043-1.933-0.123-2.869
		c-0.082-0.935-0.225-1.749-0.427-2.441c-0.204-0.69-0.55-0.995-1.038-0.915l-2.197,2.686c-0.814,1.709-1.547,3.296-2.197,4.761
		c-0.652,1.221-1.241,2.401-1.77,3.54c-0.53,1.141-0.957,1.873-1.281,2.197c0,0.326-0.144,0.774-0.428,1.343
		c-0.286,0.57-0.57,1.181-0.854,1.831c-0.286,0.652-0.57,1.303-0.854,1.953c-0.286,0.652-0.428,1.221-0.428,1.709
		c0,0.408-0.225,1.221-0.671,2.441c-0.448,1.221-0.958,2.544-1.526,3.968c-0.57,1.424-1.079,2.767-1.525,4.027
		c-0.448,1.263-0.672,2.097-0.672,2.503c0,0.326-0.183,0.875-0.549,1.647c-0.366,0.774-0.774,1.608-1.221,2.503
		c-0.448,0.896-0.854,1.751-1.221,2.563c-0.366,0.814-0.549,1.425-0.549,1.831c0,0.408-0.123,1.059-0.367,1.953
		c-0.244,0.896-0.509,1.892-0.793,2.991c-0.286,1.098-0.549,2.156-0.793,3.174s-0.367,1.812-0.367,2.38l-1.221,6.226l-0.977,4.028
		l-1.709,5.249c-0.164,0.244-0.387,0.652-0.671,1.221c-0.286,0.57-0.714,1.16-1.282,1.77c-0.57,0.611-1.281,1.141-2.136,1.588
		s-1.935,0.671-3.235,0.671h-4.76c-0.408,0-0.916-0.142-1.526-0.427s-1.242-0.651-1.892-1.1c-0.652-0.446-1.263-0.895-1.831-1.342
		c-0.57-0.447-0.977-0.834-1.221-1.16c-0.408,0-0.774-0.202-1.099-0.61c-0.326-0.406-0.61-0.895-0.854-1.465
		c-0.244-0.568-0.427-1.139-0.549-1.709c-0.122-0.568-0.183-1.057-0.183-1.465c0-0.732-0.021-1.871-0.061-3.418
		c-0.042-1.545-0.103-3.296-0.183-5.249c-0.082-1.953-0.143-4.008-0.183-6.164c-0.042-2.156-0.103-4.212-0.183-6.165
		c-0.082-1.953-0.143-3.662-0.183-5.127c-0.042-1.465-0.061-2.521-0.061-3.174c0-0.324-0.061-0.854-0.183-1.587
		s-0.244-1.525-0.366-2.381c-0.122-0.854-0.225-1.667-0.305-2.441c-0.082-0.772-0.122-1.361-0.122-1.77v-6.592
		c0-0.244,0.04-1.037,0.122-2.381c0.08-1.342,0.122-2.786,0.122-4.333c0-1.465-0.021-2.787-0.061-3.968
		c-0.042-1.179-0.265-1.77-0.671-1.77c-0.164,0-0.448,0.305-0.854,0.916c-0.408,0.609-1.099,1.729-2.075,3.356
		c-1.059,1.547-2.035,3.052-2.93,4.517c-0.814,1.303-1.648,2.646-2.502,4.028c-0.854,1.385-1.568,2.523-2.136,3.418
		c0,0.408-0.265,1.059-0.793,1.953c-0.53,0.896-1.12,1.892-1.77,2.991c-0.652,1.098-1.303,2.197-1.953,3.295
		c-0.652,1.1-1.141,2.015-1.465,2.747l-4.028,6.592l-2.197,3.662l-1.465,5.981v8.301c0,0.408-0.082,0.916-0.244,1.525
		c-0.164,0.611-0.326,1.202-0.488,1.771c-0.244,0.652-0.448,1.303-0.61,1.953c0,0.408,0.061,0.957,0.183,1.647
		c0.122,0.692,0.284,1.404,0.488,2.137c0.202,0.732,0.366,1.445,0.488,2.137s0.183,1.201,0.183,1.525l-0.488,1.465
		c-0.164,0.408-0.347,0.814-0.549,1.221c-0.204,0.408-0.469,0.774-0.793,1.099c-0.408,0.408-0.896,0.937-1.465,1.587
		c-0.57,0.652-1.16,1.323-1.77,2.014c-0.61,0.692-1.181,1.344-1.709,1.953c-0.53,0.611-0.958,1.078-1.282,1.404l-2.808,1.343h-3.174
		h-3.784l-3.784-1.343l-2.441-2.686V242.192z"/>
	<path fill="#FFFFFF" d="M787.834,193.73v-4.517c0.244-1.627,0.529-3.174,0.855-4.639c0.244-1.221,0.549-2.461,0.915-3.724
		c0.366-1.261,0.751-2.298,1.159-3.112c0-0.406,0.08-0.854,0.244-1.343c0.162-0.488,0.324-0.935,0.488-1.343
		c0.244-0.488,0.529-1.017,0.855-1.587c0.324-0.732,1.037-2.217,2.136-4.455s2.277-4.639,3.54-7.203
		c1.261-2.563,2.441-4.963,3.54-7.201s1.851-3.682,2.259-4.334l1.465-1.465l5.98-4.517l2.809-2.808c0.732,0,1.932-0.08,3.601-0.244
		c1.667-0.162,3.418-0.324,5.249-0.488c1.831-0.162,3.559-0.324,5.188-0.488c1.627-0.162,2.766-0.244,3.418-0.244
		c0.324,0,0.834-0.08,1.526-0.244c0.69-0.162,1.423-0.324,2.197-0.488c0.772-0.162,1.505-0.324,2.197-0.488
		c0.69-0.162,1.239-0.244,1.647-0.244h4.15h4.518c0.813,0.244,1.586,0.488,2.318,0.732c0.65,0.164,1.282,0.326,1.893,0.488
		c0.61,0.164,1.117,0.244,1.525,0.244l3.053,1.465c0.406,0,0.854,0.143,1.342,0.428s0.936,0.631,1.344,1.037
		c0.488,0.408,1.016,0.854,1.586,1.343c0.324,0.408,0.916,0.997,1.771,1.771s1.749,1.628,2.686,2.563
		c0.935,0.937,1.81,1.813,2.624,2.625c0.813,0.814,1.424,1.385,1.832,1.709c0.568,0.896,1.098,1.709,1.586,2.441
		c0.977,1.465,1.871,2.563,2.686,3.296c0,0.408,0.143,0.854,0.428,1.343s0.629,0.977,1.037,1.465
		c0.406,0.57,0.936,1.141,1.588,1.709c0.324,0.408,0.752,1.019,1.281,1.831c0.529,0.814,0.996,1.689,1.404,2.624
		c0.406,0.937,0.771,1.813,1.098,2.625c0.324,0.814,0.488,1.385,0.488,1.709c0.244,0.814,0.488,1.587,0.732,2.319
		c0.162,0.652,0.324,1.282,0.488,1.892c0.162,0.611,0.244,1.12,0.244,1.526c0,0.732,0.08,1.852,0.244,3.356
		c0.162,1.507,0.324,3.012,0.488,4.518c0.162,1.506,0.324,2.91,0.488,4.211c0.162,1.303,0.244,2.117,0.244,2.441v8.789v7.202
		c0,0.408-0.082,0.937-0.244,1.587c-0.164,0.652-0.387,1.323-0.67,2.014c-0.287,0.692-0.611,1.385-0.977,2.076
		c-0.367,0.691-0.715,1.201-1.039,1.525c0,0.408-0.305,1.019-0.914,1.831c-0.611,0.814-1.324,1.689-2.137,2.624
		c-0.814,0.937-1.629,1.813-2.441,2.625c-0.814,0.814-1.426,1.385-1.832,1.709c-0.732,0.732-1.77,1.77-3.112,3.113
		c-1.343,1.342-2.686,2.686-4.028,4.027c-1.343,1.344-2.605,2.564-3.784,3.662c-1.181,1.1-1.935,1.853-2.259,2.259l-5.736,2.93
		c-0.408,0-1.1,0.306-2.076,0.915c-0.977,0.611-2.014,1.263-3.112,1.953c-1.099,0.692-2.136,1.344-3.112,1.953
		c-0.977,0.611-1.629,0.916-1.953,0.916c-0.244,0-0.55,0.061-0.916,0.184c-0.366,0.121-0.998,0.263-1.893,0.427
		c-0.896,0.162-2.178,0.306-3.845,0.427c-1.669,0.123-3.888,0.184-6.653,0.184c-0.977,0-1.974,0.04-2.99,0.122
		c-1.019,0.08-2.014,0.122-2.99,0.122c-1.547,0-3.012-0.082-4.395-0.244c-1.385-0.164-2.768-0.57-4.15-1.221
		c-1.385-0.814-2.646-1.587-3.785-2.319c-0.977-0.65-1.934-1.282-2.868-1.892c-0.937-0.611-1.608-1.118-2.015-1.526
		c-0.408,0-0.875-0.244-1.403-0.732c-0.53-0.488-1.079-0.996-1.647-1.526c-0.57-0.528-1.12-1.037-1.648-1.525
		c-0.53-0.488-0.957-0.732-1.281-0.732l-1.344-1.221c-0.408-0.406-0.936-0.996-1.586-1.77c-0.652-0.773-1.303-1.566-1.953-2.381
		c-0.814-0.895-1.629-1.911-2.441-3.052l-1.465-3.052c-0.326-0.732-0.732-1.77-1.221-3.113c-0.488-1.342-0.958-2.686-1.404-4.027
		c-0.448-1.344-0.836-2.564-1.16-3.662c-0.326-1.1-0.488-1.811-0.488-2.137c0-0.406-0.082-1.179-0.244-2.319
		c-0.164-1.139-0.326-2.399-0.488-3.784c-0.164-1.383-0.326-2.746-0.488-4.09c-0.164-1.342-0.244-2.38-0.244-3.112V193.73z
		 M806.756,202.519c0.406,0.652,0.934,1.709,1.586,3.174c0.65,1.465,1.344,3.032,2.076,4.699c0.732,1.669,1.422,3.256,2.074,4.762
		c0.65,1.506,1.18,2.624,1.588,3.356c0.324,0.408,0.833,0.937,1.525,1.587c0.69,0.652,1.423,1.323,2.197,2.014
		c0.772,0.692,1.484,1.385,2.137,2.076c0.65,0.691,1.178,1.201,1.586,1.525c1.301,0.57,2.564,1.059,3.785,1.465
		c0.977,0.408,1.953,0.732,2.93,0.977s1.666,0.366,2.074,0.366h1.221H833c0.732,0,1.851-0.062,3.357-0.183
		c1.505-0.123,2.99-0.264,4.455-0.428c1.709-0.162,3.541-0.366,5.494-0.61c1.139-0.568,2.154-1.139,3.051-1.709
		c0.813-0.488,1.606-0.977,2.381-1.465c0.772-0.488,1.361-0.935,1.77-1.343l1.588-1.587c0.406-0.324,0.915-0.854,1.525-1.587
		s1.24-1.545,1.893-2.441c0.732-0.895,1.504-1.953,2.318-3.174c0.568-0.813,1.057-1.587,1.465-2.319
		c0.406-0.65,0.752-1.282,1.038-1.892c0.284-0.611,0.427-1.118,0.427-1.526c0-0.406,0.08-0.854,0.244-1.343
		c0.162-0.488,0.324-0.935,0.488-1.343c0.244-0.488,0.529-1.017,0.855-1.587c0-0.324,0.08-1.078,0.244-2.258
		c0.162-1.18,0.324-2.441,0.488-3.785c0.162-1.342,0.324-2.686,0.488-4.027c0.162-1.344,0.244-2.381,0.244-3.113v-1.587v-1.221
		c0-0.732-0.244-1.729-0.732-2.991c-0.488-1.261-0.732-2.258-0.732-2.99l-1.588-2.808l-2.93-7.202
		c-0.57-0.813-1.098-1.627-1.586-2.441c-0.408-0.65-0.855-1.301-1.344-1.953c-0.488-0.65-0.936-1.179-1.342-1.587l-4.518-4.272
		c-0.408-0.406-0.915-0.854-1.525-1.343s-1.242-0.935-1.893-1.343c-0.732-0.488-1.506-1.017-2.318-1.587h-1.465h-3.053l-2.686,1.221
		l-1.586,1.587l-2.93,5.737L833,167.485l-2.686,1.465c-0.408,0-1.159,0.164-2.258,0.488c-1.099,0.326-2.301,0.671-3.602,1.038
		c-1.303,0.365-2.523,0.713-3.662,1.037c-1.141,0.326-1.873,0.488-2.197,0.488l-3.051,1.465l-3.053,2.808
		c-0.244,0.57-0.447,1.141-0.609,1.709c-0.408,1.059-0.611,1.995-0.611,2.808c0,0.652-0.143,1.525-0.427,2.625
		c-0.286,1.098-0.632,2.218-1.038,3.356c-0.408,1.303-0.896,2.646-1.465,4.028c0,0.408-0.082,0.997-0.244,1.77
		c-0.164,0.774-0.347,1.629-0.549,2.564c-0.204,0.936-0.387,1.812-0.549,2.624c-0.164,0.814-0.244,1.385-0.244,1.709v1.587V202.519z
		"/>
	<path fill="#FFFFFF" d="M905.754,234.746v-2.686c0-0.324,0.162-0.712,0.488-1.16c0.324-0.446,0.672-0.915,1.039-1.403
		c0.365-0.488,0.711-0.977,1.037-1.465c0.324-0.488,0.488-0.935,0.488-1.343l0.977-15.381l-0.977-13.794l0.732-7.324l-0.732-21.973
		c0-0.568-0.164-1.749-0.488-3.54c-0.326-1.789-0.672-3.682-1.037-5.676c-0.367-1.994-0.715-3.906-1.039-5.738
		c-0.326-1.83-0.488-3.07-0.488-3.723v-1.343c0-0.324,0.08-0.956,0.244-1.892c0.162-0.936,0.346-1.912,0.551-2.93
		c0.201-1.018,0.385-1.973,0.549-2.869c0.162-0.895,0.244-1.545,0.244-1.953l3.906-2.563l2.807-1.465h3.053h2.441
		c1.301,0.57,2.48,1.099,3.539,1.587c0.895,0.408,1.811,0.854,2.748,1.343c0.934,0.488,1.605,0.854,2.014,1.099l0.977,1.465
		l1.465,2.686v1.343l-1.465,5.493c0,0.408-0.061,1.059-0.184,1.953c-0.121,0.896-0.244,1.873-0.365,2.93
		c-0.123,1.059-0.227,2.117-0.307,3.174c-0.082,1.059-0.121,1.953-0.121,2.686v1.221v1.465l0.488,3.54h1.465l3.539-6.226
		c0-0.324,0.264-0.813,0.795-1.465c0.527-0.65,1.139-1.301,1.83-1.953c0.691-0.65,1.301-1.301,1.832-1.953
		c0.527-0.65,0.793-1.139,0.793-1.465l2.686-3.906c0.568-0.732,1.139-1.423,1.709-2.075c0.488-0.568,0.977-1.078,1.465-1.526
		c0.488-0.446,0.934-0.671,1.342-0.671c0.162-0.324,0.551-0.772,1.16-1.343c0.611-0.568,1.24-1.139,1.893-1.709
		c0.65-0.568,1.301-1.078,1.953-1.525c0.65-0.447,1.139-0.672,1.465-0.672h1.586c0.324,0,0.713,0.143,1.16,0.428
		s0.873,0.591,1.281,0.915c0.488,0.408,0.977,0.854,1.465,1.343c0.324,0.326,0.795,0.814,1.404,1.465
		c0.611,0.652,1.262,1.303,1.953,1.953c0.691,0.652,1.344,1.303,1.953,1.953c0.611,0.652,1.037,1.141,1.281,1.465
		c0.813,0.732,1.545,1.425,2.197,2.075c0.568,0.57,1.078,1.159,1.527,1.771c0.445,0.609,0.67,1.079,0.67,1.403l1.1,2.686
		c0.324,0.732,0.813,1.791,1.465,3.174c0.65,1.385,1.26,2.808,1.83,4.272c0.568,1.465,1.078,2.808,1.527,4.028
		c0.445,1.221,0.67,1.995,0.67,2.319c0,0.326,0.143,0.937,0.428,1.831c0.285,0.896,0.611,1.892,0.977,2.991
		c0.367,1.098,0.711,2.178,1.037,3.234c0.324,1.059,0.488,1.953,0.488,2.686c0,0.244,0.102,0.875,0.307,1.893
		c0.201,1.018,0.426,2.238,0.67,3.662s0.551,2.95,0.916,4.577c0.367,1.629,0.672,3.154,0.916,4.577
		c0.244,1.425,0.467,2.646,0.672,3.662c0.201,1.019,0.305,1.648,0.305,1.893c0,0.652,0.244,1.567,0.732,2.746
		c0.488,1.181,0.732,2.097,0.732,2.747l1.586,4.028c0,0.326,0.063,0.937,0.184,1.831c0.123,0.896,0.264,1.852,0.428,2.868
		c0.162,1.019,0.305,1.975,0.428,2.869c0.121,0.896,0.182,1.507,0.182,1.831c0,0.408,0.08,0.835,0.244,1.282
		c0.162,0.447,0.324,0.875,0.488,1.281c0.244,0.488,0.488,0.977,0.732,1.465c0,0.408,0.264,0.977,0.795,1.709
		c0.527,0.732,1.139,1.525,1.83,2.381c0.691,0.854,1.301,1.647,1.832,2.38c0.527,0.732,0.793,1.263,0.793,1.587l1.465,2.686v3.052
		v1.221c0,0.326-0.143,0.774-0.428,1.343c-0.285,0.57-0.592,1.181-0.916,1.831c-0.408,0.732-0.854,1.507-1.342,2.319
		c-0.732,0.568-1.465,1.017-2.197,1.343c-0.652,0.324-1.264,0.61-1.832,0.854c-0.57,0.244-1.059,0.366-1.465,0.366l-4.271,1.465
		h-1.221c-0.244,0-0.611-0.082-1.1-0.244c-0.488-0.164-0.936-0.326-1.342-0.488c-0.488-0.244-1.02-0.488-1.588-0.732
		c-0.57-0.488-1.098-0.896-1.586-1.221c-0.408-0.326-0.855-0.631-1.344-0.915c-0.488-0.286-0.936-0.428-1.342-0.428l-2.686-2.686
		c-0.57-1.301-1.02-2.521-1.344-3.662c-0.326-0.977-0.609-1.911-0.854-2.808c-0.244-0.895-0.367-1.505-0.367-1.831
		c0-0.406-0.082-0.874-0.244-1.404c-0.164-0.528-0.326-1.077-0.488-1.647c-0.244-0.65-0.488-1.301-0.732-1.953v-5.737l-1.465-5.493
		c0-0.244-0.061-0.956-0.182-2.136c-0.123-1.18-0.244-2.441-0.367-3.785c-0.121-1.342-0.244-2.604-0.365-3.783
		c-0.123-1.18-0.184-1.933-0.184-2.259c-0.244-1.383-0.531-2.686-0.855-3.906c-0.244-1.057-0.508-2.136-0.793-3.235
		c-0.285-1.098-0.631-1.972-1.037-2.624l-1.465-4.028c0-0.324-0.061-0.996-0.184-2.014c-0.121-1.018-0.285-2.116-0.488-3.297
		c-0.203-1.179-0.365-2.277-0.488-3.295c-0.121-1.018-0.184-1.729-0.184-2.137c0-0.324-0.143-0.935-0.426-1.831
		c-0.287-0.895-0.633-1.851-1.039-2.868c-0.408-1.018-0.834-1.973-1.281-2.869c-0.447-0.895-0.836-1.545-1.16-1.953l-2.807-2.686
		h-1.465l-1.588,1.587c-0.408,0.408-0.834,0.835-1.281,1.282s-0.754,0.875-0.916,1.281l-1.465,1.465
		c-0.408,0.408-0.752,0.814-1.037,1.221c-0.285,0.408-0.428,0.774-0.428,1.099l-5.004,3.052c-1.385,3.988-2.584,7.752-3.602,11.291
		c-1.018,3.541-1.852,7.346-2.502,11.414v8.301c0,1.221,0.039,3.357,0.121,6.408c0.08,3.053,0.123,6.247,0.123,9.583
		c0,2.361-0.043,4.599-0.123,6.714c-0.082,2.117-0.121,3.622-0.121,4.517c-0.408,0.326-1.059,0.915-1.953,1.771
		c-0.896,0.854-1.832,1.77-2.809,2.746s-1.891,1.911-2.746,2.808c-0.854,0.895-1.404,1.545-1.648,1.953l-3.051,1.465h-2.441h-3.053
		c-0.408,0-0.814-0.082-1.221-0.244c-0.408-0.164-0.814-0.326-1.221-0.488c-0.408-0.244-0.854-0.488-1.342-0.732
		c-0.57-0.732-1.059-1.465-1.465-2.197c-0.408-0.57-0.754-1.139-1.037-1.709c-0.287-0.568-0.428-1.017-0.428-1.343
		c0-0.406-0.104-0.834-0.305-1.281c-0.205-0.447-0.389-0.874-0.551-1.282c-0.244-0.488-0.488-0.977-0.732-1.465V234.746z"/>
	<path fill="#FFFFFF" d="M1019.035,132.451c-1.141,0-2.197-0.08-3.174-0.244c-0.896-0.162-1.75-0.346-2.563-0.549
		c-0.814-0.203-1.465-0.508-1.953-0.916l-2.076-1.709l0.244-4.517l8.057-8.301c0.732-1.627,1.465-3.174,2.197-4.639
		c0.65-1.221,1.301-2.421,1.953-3.601c0.65-1.18,1.18-2.095,1.588-2.747c0.65-1.057,0.977-2.726,0.977-5.005
		c0-1.221-0.164-2.299-0.488-3.234c-0.326-0.936-0.488-2.259-0.488-3.968c0-0.895-0.123-1.789-0.367-2.686
		c-0.244-0.895-0.814-1.587-1.709-2.075c-2.197-1.301-3.906-3.153-5.127-5.555c-1.221-2.399-1.83-4.983-1.83-7.751l3.051-6.714
		c0.406-0.65,0.916-1.322,1.527-2.014c0.609-0.691,1.238-1.362,1.891-2.015c0.732-0.65,1.506-1.301,2.32-1.953l5.492-0.488
		l8.18,2.441c0.568,0.57,1.322,1.221,2.258,1.953s1.85,1.425,2.746,2.075c1.057,0.814,2.156,1.669,3.297,2.563
		c0.406,1.791,0.771,3.54,1.098,5.249c0.324,1.465,0.611,2.972,0.855,4.517c0.244,1.547,0.445,2.768,0.609,3.662
		c0.08,0.488,0.162,1.019,0.244,1.587c0.08,0.488,0.143,1.019,0.184,1.587c0.041,0.57,0.061,1.181,0.061,1.831
		c0,0.977-0.225,1.953-0.67,2.93c-0.449,0.977-0.916,1.669-1.404,2.075c-0.408,0.57-0.652,1.425-0.732,2.563
		c-0.082,1.141-0.164,2.34-0.244,3.602c-0.082,1.262-0.205,2.482-0.367,3.662c-0.164,1.18-0.447,2.056-0.854,2.624
		c-0.488,0.652-1.242,1.791-2.258,3.418c-1.02,1.629-2.117,3.316-3.297,5.065c-1.18,1.751-2.279,3.418-3.295,5.006
		c-1.02,1.586-1.73,2.624-2.137,3.112l-5.494,3.906c-1.059,1.791-2.178,3.112-3.355,3.968
		C1022.799,132.023,1021.15,132.451,1019.035,132.451z"/>
	<path fill="#FFFFFF" d="M1063.836,239.995v-2.686l1.465-3.052c0.568-0.244,1.098-0.488,1.586-0.732
		c0.406-0.162,0.855-0.324,1.344-0.488c0.488-0.162,0.934-0.244,1.342-0.244c0.324,0,0.895-0.08,1.709-0.244
		c0.813-0.162,1.689-0.346,2.625-0.549s1.811-0.386,2.625-0.55c0.813-0.162,1.422-0.244,1.83-0.244h8.668
		c0.406,0,0.955-0.062,1.648-0.183c0.689-0.123,1.402-0.264,2.135-0.428c0.732-0.162,1.424-0.305,2.076-0.428
		c0.65-0.121,1.139-0.183,1.465-0.183c0.324,0,1.301-0.244,2.93-0.732c1.627-0.488,3.396-1.057,5.311-1.709
		c1.91-0.65,3.762-1.301,5.553-1.953c1.789-0.65,3.01-1.179,3.662-1.587c0.324,0,0.834-0.142,1.527-0.428
		c0.689-0.284,1.402-0.609,2.135-0.977c0.732-0.365,1.445-0.69,2.137-0.977c0.691-0.284,1.199-0.427,1.525-0.427
		c0.324,0,0.752-0.142,1.283-0.427c0.527-0.285,1.076-0.611,1.646-0.977c0.568-0.367,1.119-0.712,1.648-1.038
		c0.529-0.324,0.996-0.488,1.404-0.488c0.406-0.406,0.996-0.854,1.77-1.343s1.566-0.935,2.381-1.343
		c0.895-0.488,1.91-1.017,3.051-1.587l2.809-3.052v-1.465v-1.465c-0.326,0-0.836-0.142-1.525-0.427
		c-0.693-0.285-1.404-0.611-2.137-0.977c-0.732-0.367-1.445-0.691-2.137-0.977s-1.201-0.428-1.525-0.428
		c-0.326,0-0.896-0.08-1.709-0.244c-0.814-0.162-1.67-0.324-2.564-0.488c-0.896-0.162-1.77-0.324-2.623-0.488
		c-0.855-0.162-1.447-0.244-1.771-0.244c-1.465,0-3.988-0.08-7.568-0.244c-3.582-0.162-7.385-0.324-11.412-0.488
		c-4.029-0.162-7.813-0.324-11.354-0.488c-3.539-0.162-6.043-0.244-7.508-0.244c-0.732,0-1.709-0.244-2.93-0.732
		s-2.156-0.732-2.807-0.732l-2.93-1.343l-3.053-2.93c-0.244-0.568-0.488-1.139-0.732-1.709c-0.164-0.406-0.326-0.854-0.488-1.343
		c-0.164-0.488-0.244-0.895-0.244-1.221v-4.517v-3.052l1.465-2.686c0.406-0.406,0.855-0.996,1.344-1.77s0.977-1.566,1.465-2.381
		c0.568-0.895,1.139-1.911,1.709-3.052c0.324-0.406,0.996-1.179,2.014-2.319c1.018-1.139,2.115-2.339,3.297-3.602
		c1.178-1.261,2.338-2.46,3.479-3.601c1.139-1.139,2.033-1.911,2.686-2.319l3.051-1.465c0.406,0,0.855-0.122,1.344-0.366
		s0.977-0.568,1.465-0.977c0.568-0.406,1.139-0.895,1.709-1.465c0.324-0.324,0.813-0.813,1.465-1.465
		c0.65-0.65,1.342-1.301,2.074-1.953c0.732-0.65,1.424-1.2,2.076-1.647c0.65-0.447,1.178-0.672,1.586-0.672l5.738-5.981
		c0.732-0.65,1.932-1.709,3.602-3.174c1.666-1.465,3.396-3.031,5.188-4.7c1.789-1.667,3.498-3.254,5.127-4.76
		c1.627-1.506,2.807-2.625,3.539-3.357l3.053-1.221c0.324-0.406,0.854-0.772,1.586-1.099c0.732-0.324,1.545-0.65,2.441-0.977
		c0.895-0.324,1.953-0.65,3.174-0.977h2.809h1.465c0.813,0.814,1.627,1.587,2.441,2.319c0.65,0.652,1.281,1.281,1.893,1.893
		c0.609,0.609,1.076,1.119,1.402,1.525l1.588,3.052v5.737v4.517l-2.32,2.319c-0.652,0.652-1.303,1.281-1.953,1.893
		c-0.652,0.609-1.18,1.119-1.586,1.525l-2.93,1.465l-7.324,2.808l-2.686,1.465l-4.518,3.052l-7.201,4.272l-4.518,2.93l-5.736,2.808
		c-0.408,0.408-1.02,0.997-1.832,1.77c-0.814,0.774-1.689,1.629-2.623,2.564c-0.938,0.936-1.813,1.812-2.625,2.624
		c-0.814,0.814-1.385,1.385-1.709,1.709l-1.465,3.052l1.465,1.465c1.139,0,2.949,0.061,5.432,0.184
		c2.482,0.121,5.086,0.265,7.813,0.427c2.727,0.164,5.311,0.306,7.752,0.427c2.441,0.123,4.189,0.184,5.248,0.184
		c0.732,0,2.076,0.164,4.029,0.488c1.953,0.326,4.068,0.732,6.348,1.221c2.277,0.488,4.475,0.997,6.592,1.525
		c2.115,0.53,3.701,0.958,4.76,1.282c0.732,0,1.771,0.225,3.113,0.671c1.344,0.448,2.705,0.937,4.09,1.465
		c1.383,0.53,2.643,1.019,3.783,1.465c1.139,0.448,1.912,0.672,2.32,0.672c0.813,0.814,1.586,1.629,2.318,2.441
		c0.65,0.652,1.283,1.303,1.893,1.953c0.611,0.652,1.117,1.181,1.525,1.587l1.465,2.808v1.465v1.465c0,0.408-0.225,1.019-0.67,1.831
		c-0.449,0.814-0.938,1.689-1.465,2.624c-0.531,0.937-1.02,1.813-1.465,2.625c-0.449,0.814-0.672,1.385-0.672,1.709
		c-0.408,0.732-1.16,1.669-2.258,2.808c-1.1,1.141-2.301,2.279-3.602,3.418c-1.303,1.141-2.523,2.218-3.662,3.235
		c-1.141,1.018-1.873,1.689-2.197,2.014c-0.408,0-1.568,0.469-3.479,1.404c-1.914,0.936-4.09,2.056-6.531,3.356
		c-2.441,1.303-4.883,2.624-7.324,3.968c-2.441,1.342-4.395,2.38-5.859,3.112c-0.408,0-1.1,0.143-2.076,0.427
		c-0.977,0.286-2.014,0.652-3.111,1.1c-1.1,0.447-2.137,0.915-3.113,1.403s-1.629,0.896-1.953,1.221
		c-0.57,0.326-1.141,0.61-1.709,0.854c-0.488,0.164-0.977,0.326-1.465,0.488c-0.488,0.164-0.938,0.244-1.344,0.244l-5.736,1.465
		c-0.408,0-1.02,0.143-1.832,0.428c-0.814,0.284-1.689,0.589-2.623,0.915c-0.938,0.324-1.813,0.63-2.625,0.915
		c-0.814,0.285-1.385,0.428-1.709,0.428l-2.686,1.587c-0.408,0-1.182,0.08-2.32,0.244c-1.141,0.162-2.34,0.324-3.6,0.488
		c-1.264,0.162-2.463,0.324-3.602,0.488c-1.141,0.162-1.914,0.244-2.32,0.244h-4.516h-4.15c-0.57-0.326-1.141-0.652-1.709-0.977
		c-0.488-0.326-0.977-0.652-1.465-0.977c-0.488-0.326-0.938-0.692-1.344-1.099c-0.408-0.326-0.854-0.732-1.342-1.221
		s-0.938-0.937-1.344-1.343l-1.586-1.587V239.995z"/>
	<path fill="#FFFFFF" d="M1239.738,221.806v-4.272c0.568-1.139,1.139-2.197,1.709-3.174c0.406-0.895,0.855-1.709,1.344-2.441
		s0.895-1.301,1.221-1.709l3.051-2.93v-3.052v-2.686c0-0.732-0.164-1.933-0.488-3.602c-0.326-1.667-0.67-3.396-1.037-5.188
		c-0.365-1.789-0.713-3.52-1.037-5.188c-0.326-1.668-0.488-2.869-0.488-3.602l-1.221-4.272v-1.465v-2.93
		c0-0.488,0.02-1.423,0.061-2.808c0.041-1.383,0.123-3.01,0.244-4.883c0.123-1.871,0.223-3.864,0.305-5.981
		c0.08-2.115,0.184-4.13,0.307-6.042c0.121-1.912,0.201-3.581,0.244-5.006c0.039-1.423,0.061-2.38,0.061-2.868v-11.475v-10.254
		c0-0.324-0.143-0.895-0.428-1.709c-0.285-0.813-0.592-1.688-0.916-2.624c-0.326-0.936-0.631-1.811-0.914-2.625
		c-0.287-0.813-0.428-1.423-0.428-1.831c0-0.324-0.104-0.794-0.305-1.403c-0.205-0.611-0.389-1.24-0.551-1.893l-0.732-2.441v-2.686
		v-1.465c0.324-0.568,0.65-1.139,0.977-1.709c0.324-0.488,0.65-0.977,0.977-1.465c0.324-0.488,0.691-0.935,1.1-1.343
		c0.65-0.65,1.322-1.099,2.014-1.343s1.443-0.732,2.258-1.465c0.406,0,0.855-0.08,1.344-0.244c0.488-0.162,0.977-0.324,1.465-0.488
		c0.568-0.244,1.139-0.488,1.709-0.732h4.15h3.051c0.324,0,1.039,0.305,2.137,0.916c1.1,0.609,2.277,1.262,3.541,1.953
		c1.26,0.691,2.441,1.342,3.539,1.953c1.1,0.609,1.85,0.915,2.258,0.915c0.568,0.244,1.139,0.488,1.709,0.732
		c0.488,0.164,0.977,0.326,1.465,0.488c0.488,0.164,0.936,0.244,1.344,0.244c0.324,0,0.813,0.082,1.465,0.244
		c0.65,0.164,1.342,0.347,2.074,0.55s1.424,0.387,2.076,0.549c0.65,0.164,1.178,0.244,1.586,0.244h2.809
		c1.139,0,2.766,0.082,4.883,0.244c2.115,0.164,4.271,0.326,6.469,0.488c2.197,0.164,4.17,0.326,5.922,0.488
		c1.748,0.164,2.826,0.244,3.234,0.244l5.736,1.221c0.324,0,1.119,0.082,2.381,0.244c1.262,0.164,2.625,0.326,4.09,0.488
		c1.465,0.164,2.807,0.326,4.027,0.488c1.221,0.164,2.033,0.244,2.441,0.244c0.406,0,1.018,0.164,1.832,0.488
		c0.813,0.326,1.627,0.692,2.441,1.099c0.895,0.408,1.91,0.896,3.051,1.465c0.324,0,0.752,0.306,1.283,0.915
		c0.527,0.611,1.076,1.324,1.646,2.137c0.568,0.814,1.1,1.629,1.588,2.441c0.488,0.814,0.895,1.385,1.221,1.709
		c0.244,0.57,0.488,1.099,0.732,1.587c0.162,0.408,0.324,0.854,0.488,1.343c0.162,0.488,0.244,0.937,0.244,1.343v1.465l-1.465,4.272
		c0,0.408-0.143,0.937-0.428,1.587c-0.285,0.652-0.631,1.303-1.037,1.953c-0.408,0.814-0.855,1.629-1.344,2.441
		c-0.408,0.326-1.018,0.957-1.83,1.892c-0.814,0.937-1.709,1.953-2.686,3.053c-0.977,1.098-1.996,2.136-3.053,3.112
		c-1.059,0.977-1.953,1.629-2.686,1.953c-1.141,0.896-2.156,1.709-3.051,2.441c-0.814,0.652-1.607,1.282-2.381,1.892
		c-0.773,0.611-1.363,1.08-1.77,1.404c-0.408,0-0.855,0.244-1.344,0.732s-0.996,0.997-1.525,1.525
		c-0.529,0.53-1.059,1.038-1.586,1.526c-0.531,0.488-0.959,0.732-1.283,0.732c0.732,0,1.912,0.143,3.541,0.427
		c1.627,0.286,3.357,0.611,5.188,0.977c1.832,0.367,3.559,0.692,5.188,0.977c1.627,0.286,2.809,0.428,3.541,0.428
		s1.91,0.164,3.539,0.488c1.627,0.326,3.336,0.713,5.127,1.16c1.789,0.447,3.498,0.936,5.127,1.465
		c1.627,0.529,2.809,0.997,3.541,1.403c0.406,0,0.996,0.143,1.77,0.427c0.773,0.286,1.566,0.592,2.381,0.916
		c0.895,0.408,1.91,0.854,3.051,1.343l4.518,1.587c0.568,0,1.178,0.244,1.83,0.732c0.324,0.244,0.611,0.488,0.855,0.732
		c0.813,1.141,1.627,2.157,2.441,3.052c0.65,0.814,1.322,1.607,2.014,2.38c0.691,0.774,1.24,1.364,1.648,1.771l2.686,4.272
		c0.406,0.408,0.771,0.937,1.098,1.587c0.324,0.652,0.65,1.303,0.977,1.953c0.324,0.814,0.65,1.629,0.977,2.441v2.808v4.517
		l-1.586,2.686c0,0.408-0.143,0.854-0.428,1.343s-0.592,0.977-0.916,1.465c-0.408,0.57-0.854,1.141-1.342,1.709l-4.518,4.272
		c-0.408,0.408-1.221,1.079-2.441,2.015s-2.563,1.953-4.027,3.051c-1.465,1.1-2.828,2.137-4.09,3.113s-2.057,1.669-2.381,2.075
		c-0.732,0.652-1.994,1.547-3.783,2.686c-1.791,1.141-3.643,2.3-5.555,3.479s-3.684,2.278-5.311,3.295
		c-1.629,1.019-2.605,1.69-2.93,2.015c-0.408,0-1.098,0.164-2.074,0.488c-0.977,0.326-2.014,0.713-3.113,1.159
		c-1.098,0.448-2.137,0.916-3.113,1.404s-1.629,0.896-1.953,1.221c-0.732,0.244-2.055,0.713-3.967,1.404s-4.15,1.485-6.713,2.38
		c-2.564,0.896-5.271,1.831-8.119,2.808c-2.85,0.977-5.553,1.913-8.117,2.808c-2.563,0.896-4.822,1.689-6.775,2.38
		c-1.953,0.691-3.295,1.16-4.027,1.404c-2.117,0.65-3.967,1.648-5.555,2.99c-1.586,1.344-3.072,2.788-4.455,4.334
		c-0.57,0.568-1.141,1.016-1.709,1.342c-0.488,0.406-0.977,0.732-1.465,0.977s-0.938,0.367-1.344,0.367l-2.93,1.465h-2.807h-4.518
		l-2.686-1.465c-0.814-0.732-1.525-1.426-2.135-2.076c-0.611-0.652-0.916-1.385-0.916-2.197l-1.465-4.394L1251.58,245l-3.053-3.052
		l-3.051-1.465l-2.686-2.686l-1.465-3.052c0-0.324-0.082-0.834-0.244-1.525c-0.164-0.691-0.348-1.384-0.549-2.076
		c-0.205-0.69-0.389-1.361-0.551-2.014c-0.164-0.65-0.244-1.179-0.244-1.587V221.806z M1264.519,153.447v4.517l1.465,1.587h2.807
		h1.465c0.732-0.406,1.912-0.874,3.541-1.404c1.627-0.528,3.295-1.077,5.004-1.647c1.709-0.568,3.275-1.118,4.701-1.647
		c1.422-0.529,2.338-0.996,2.746-1.404c0.406,0,1.016-0.305,1.83-0.916c0.813-0.609,1.689-1.261,2.625-1.953
		c0.936-0.69,1.789-1.342,2.564-1.953c0.771-0.609,1.361-0.915,1.77-0.915c0.324-0.324,1.199-0.895,2.625-1.709
		c1.422-0.813,2.947-1.688,4.576-2.624c1.627-0.936,3.154-1.79,4.578-2.564c1.424-0.772,2.338-1.361,2.746-1.77
		c0.406,0,0.855-0.122,1.344-0.366s0.934-0.568,1.342-0.977c0.488-0.406,1.018-0.895,1.588-1.465l1.465-1.465v-1.465v-1.587
		l-1.465-1.221c-0.57-0.244-1.1-0.488-1.588-0.732c-0.408-0.162-0.854-0.324-1.342-0.488c-0.488-0.162-0.938-0.244-1.344-0.244
		c-0.408,0-1.098-0.08-2.074-0.244c-0.977-0.162-2.014-0.346-3.113-0.549c-1.098-0.203-2.137-0.386-3.113-0.55
		c-0.977-0.162-1.629-0.244-1.953-0.244h-11.475h-11.84c-0.326,0-0.814,0.164-1.465,0.488c-0.652,0.326-1.344,0.671-2.076,1.038
		c-0.732,0.365-1.445,0.713-2.135,1.037c-0.693,0.326-1.203,0.488-1.527,0.488l-2.807,1.221c0,0.732-0.082,1.934-0.244,3.602
		c-0.164,1.668-0.326,3.398-0.488,5.188c-0.164,1.791-0.326,3.521-0.488,5.188c-0.164,1.669-0.244,2.869-0.244,3.602V153.447z
		 M1265.984,189.702v3.052l1.342,4.272v4.517c0,0.408,0.08,1.079,0.244,2.014c0.162,0.937,0.324,1.953,0.488,3.053
		c0.162,1.098,0.324,2.116,0.488,3.051c0.162,0.937,0.244,1.568,0.244,1.893c0,0.408,0.143,1.079,0.428,2.014
		c0.285,0.937,0.611,1.953,0.977,3.053c0.367,1.098,0.711,2.136,1.037,3.112c0.324,0.977,0.488,1.669,0.488,2.075l1.588,5.737
		l1.465,1.465h5.736h5.738c0.406,0,1.016-0.08,1.83-0.244c0.813-0.162,1.689-0.324,2.625-0.488c0.936-0.162,1.789-0.324,2.564-0.488
		c0.771-0.162,1.361-0.244,1.77-0.244c0.324,0,0.834-0.142,1.525-0.427s1.383-0.611,2.076-0.977
		c0.689-0.367,1.361-0.691,2.014-0.977c0.65-0.285,1.178-0.428,1.586-0.428c0.406,0,1.24-0.244,2.504-0.732
		c1.26-0.488,2.623-0.996,4.088-1.525s2.809-1.038,4.029-1.526s2.033-0.732,2.441-0.732c0.324,0,0.771-0.142,1.342-0.427
		c0.568-0.285,1.119-0.59,1.648-0.916c0.529-0.324,1.057-0.63,1.588-0.916c0.527-0.284,0.994-0.427,1.402-0.427
		c0.324,0,0.957-0.324,1.893-0.977c0.936-0.65,1.994-1.383,3.174-2.197c1.18-0.813,2.359-1.627,3.541-2.441
		c1.178-0.813,2.135-1.383,2.867-1.709c0.324-0.324,0.916-0.834,1.771-1.526c0.854-0.69,1.727-1.361,2.623-2.014
		c0.895-0.65,1.75-1.221,2.564-1.709c0.813-0.488,1.422-0.732,1.83-0.732l1.465-1.221c0.324-0.324,0.752-0.895,1.283-1.709
		c0.527-0.813,0.994-1.688,1.402-2.625c0.406-0.935,0.773-1.81,1.1-2.624c0.324-0.813,0.488-1.423,0.488-1.831v-2.93v-1.587
		c-0.57-0.488-1.1-0.977-1.588-1.465l-2.686-2.686l-2.93-1.587c-1.141-0.406-2.523-0.916-4.15-1.525
		c-1.629-0.611-3.215-1.24-4.76-1.893c-1.791-0.732-3.662-1.505-5.615-2.319c-0.408,0-1.1-0.08-2.076-0.244
		c-0.977-0.162-2.014-0.324-3.111-0.488c-1.1-0.162-2.137-0.324-3.113-0.488c-0.977-0.162-1.629-0.244-1.953-0.244h-10.01h-10.254
		c-0.408,0-1.1,0.082-2.076,0.244c-0.977,0.164-2.055,0.326-3.234,0.488c-1.18,0.164-2.361,0.326-3.539,0.488
		c-1.182,0.164-2.137,0.244-2.869,0.244c-0.408,0-0.977,0.082-1.709,0.244c-0.732,0.164-1.547,0.326-2.441,0.488
		c-0.977,0.244-2.035,0.488-3.174,0.732c-0.326,0-0.896,0.164-1.709,0.488c-0.814,0.326-1.67,0.692-2.564,1.099
		c-0.896,0.408-1.77,0.875-2.623,1.404c-0.855,0.529-1.447,0.957-1.771,1.281l-1.342,3.052V189.702z"/>
	<path fill="#FFFFFF" d="M1399.285,244.267c-0.408-0.732-0.938-1.893-1.588-3.479c-0.652-1.588-1.303-3.275-1.953-5.066
		c-0.652-1.789-1.221-3.498-1.709-5.127c-0.488-1.627-0.732-2.808-0.732-3.54v-1.587v-2.93c0-0.406,0.08-0.956,0.244-1.648
		c0.162-0.69,0.324-1.403,0.488-2.136c0.162-0.732,0.324-1.423,0.488-2.075c0.162-0.65,0.244-1.139,0.244-1.465
		c0-0.324-0.082-1.057-0.244-2.197c-0.164-1.139-0.326-2.359-0.488-3.662c-0.164-1.301-0.326-2.502-0.488-3.602
		c-0.164-1.098-0.244-1.85-0.244-2.258c0-0.65-0.082-2.014-0.244-4.09c-0.164-2.074-0.346-4.333-0.549-6.774
		s-0.387-4.801-0.549-7.08c-0.164-2.277-0.244-3.946-0.244-5.005v-6.104c0-0.324-0.082-1.221-0.244-2.686
		c-0.164-1.465-0.326-3.01-0.488-4.639c-0.164-1.627-0.326-3.132-0.488-4.517c-0.164-1.383-0.244-2.237-0.244-2.563v-5.737
		c0-0.406-0.082-1.647-0.244-3.724c-0.164-2.074-0.326-4.313-0.488-6.713c-0.164-2.4-0.326-4.618-0.488-6.653
		c-0.164-2.033-0.244-3.254-0.244-3.662c0-0.732-0.082-2.503-0.244-5.31c-0.164-2.809-0.326-5.839-0.488-9.095
		c-0.164-3.254-0.326-6.286-0.488-9.095c-0.164-2.807-0.244-4.577-0.244-5.31l-1.588-5.737v-5.981c0-0.324-0.164-0.895-0.488-1.709
		c-0.326-0.813-0.67-1.709-1.037-2.686c-0.365-0.977-0.691-1.871-0.977-2.686c-0.285-0.813-0.428-1.383-0.428-1.709v-4.517v-2.686
		l8.912-8.789h3.051h5.982l2.563,1.465c0.406,0,0.855,0.143,1.344,0.428s0.977,0.631,1.465,1.037
		c0.568,0.408,1.139,0.854,1.709,1.343l2.93,4.517v2.686v3.052c0,0.408-0.164,1.019-0.488,1.831
		c-0.326,0.814-0.672,1.669-1.037,2.563c-0.367,0.896-0.693,1.771-0.977,2.624c-0.287,0.855-0.428,1.526-0.428,2.015
		c0,0.326-0.082,0.957-0.244,1.892c-0.164,0.937-0.348,1.935-0.549,2.991c-0.205,1.059-0.389,2.075-0.551,3.052
		c-0.164,0.977-0.244,1.629-0.244,1.953v14.526v15.991c0,0.244,0.041,0.916,0.123,2.014c0.08,1.1,0.184,2.423,0.305,3.968
		c0.123,1.547,0.244,3.216,0.367,5.005c0.121,1.791,0.244,3.46,0.365,5.005c0.123,1.547,0.223,2.89,0.305,4.028
		c0.08,1.141,0.123,1.831,0.123,2.075v4.15c0,1.059,0.08,2.808,0.244,5.249c0.162,2.441,0.324,4.965,0.488,7.568
		c0.162,2.605,0.324,4.965,0.488,7.08c0.162,2.117,0.244,3.338,0.244,3.662c0,0.326,0.08,0.957,0.244,1.893
		c0.162,0.936,0.324,1.953,0.488,3.051c0.162,1.1,0.324,2.137,0.488,3.113c0.162,0.977,0.244,1.629,0.244,1.953
		c0,0.408,0.08,1.221,0.244,2.441c0.162,1.221,0.324,2.563,0.488,4.028c0.162,1.465,0.324,2.828,0.488,4.089
		c0.162,1.263,0.244,2.057,0.244,2.381c0,0.408,0.162,1.099,0.488,2.075c0.324,0.977,0.672,2.015,1.037,3.112
		c0.367,1.1,0.711,2.137,1.037,3.113c0.324,0.977,0.488,1.629,0.488,1.953c0.568,0.814,1.057,1.587,1.465,2.319
		c0.406,0.652,0.773,1.282,1.1,1.892c0.324,0.611,0.488,1.12,0.488,1.526l2.93,4.517v4.517v5.737c0,0.326-0.082,0.814-0.244,1.465
		c-0.164,0.652-0.326,1.343-0.488,2.075c-0.164,0.732-0.326,1.445-0.488,2.136c-0.164,0.692-0.244,1.242-0.244,1.648l-1.465,1.221
		c-2.279,1.465-4.293,2.319-6.043,2.563s-3.766,0.366-6.043,0.366h-4.516L1399.285,244.267z"/>
	<path fill="#FFFFFF" d="M1438.347,193.73v-4.517c0.244-1.627,0.527-3.174,0.854-4.639c0.244-1.221,0.551-2.461,0.916-3.724
		c0.367-1.261,0.752-2.298,1.16-3.112c0-0.406,0.08-0.854,0.244-1.343c0.162-0.488,0.324-0.935,0.488-1.343
		c0.244-0.488,0.527-1.017,0.854-1.587c0.324-0.732,1.039-2.217,2.137-4.455c1.1-2.238,2.277-4.639,3.541-7.203
		c1.26-2.563,2.441-4.963,3.539-7.201c1.1-2.238,1.85-3.682,2.258-4.334l1.465-1.465l5.982-4.517l2.807-2.808
		c0.732,0,1.934-0.08,3.602-0.244c1.668-0.162,3.418-0.324,5.25-0.488c1.83-0.162,3.559-0.324,5.188-0.488
		c1.627-0.162,2.766-0.244,3.418-0.244c0.324,0,0.834-0.08,1.525-0.244c0.691-0.162,1.424-0.324,2.197-0.488
		c0.773-0.162,1.506-0.324,2.197-0.488c0.691-0.162,1.24-0.244,1.648-0.244h4.15h4.516c0.813,0.244,1.588,0.488,2.32,0.732
		c0.65,0.164,1.281,0.326,1.893,0.488c0.609,0.164,1.117,0.244,1.525,0.244l3.051,1.465c0.406,0,0.855,0.143,1.344,0.428
		s0.934,0.631,1.342,1.037c0.488,0.408,1.018,0.854,1.588,1.343c0.324,0.408,0.916,0.997,1.77,1.771
		c0.855,0.773,1.75,1.628,2.686,2.563c0.936,0.937,1.811,1.813,2.625,2.625c0.813,0.814,1.422,1.385,1.83,1.709
		c0.568,0.896,1.1,1.709,1.588,2.441c0.977,1.465,1.871,2.563,2.686,3.296c0,0.408,0.141,0.854,0.428,1.343
		c0.283,0.488,0.629,0.977,1.037,1.465c0.406,0.57,0.934,1.141,1.586,1.709c0.324,0.408,0.752,1.019,1.283,1.831
		c0.527,0.814,0.994,1.689,1.402,2.624c0.406,0.937,0.773,1.813,1.1,2.625c0.324,0.814,0.488,1.385,0.488,1.709
		c0.244,0.814,0.488,1.587,0.732,2.319c0.162,0.652,0.324,1.282,0.488,1.892c0.162,0.611,0.244,1.12,0.244,1.526
		c0,0.732,0.08,1.852,0.244,3.356c0.162,1.507,0.324,3.012,0.488,4.518c0.162,1.506,0.324,2.91,0.488,4.211
		c0.162,1.303,0.244,2.117,0.244,2.441v8.789v7.202c0,0.408-0.082,0.937-0.244,1.587c-0.164,0.652-0.387,1.323-0.672,2.014
		c-0.285,0.692-0.609,1.385-0.977,2.076c-0.365,0.691-0.713,1.201-1.037,1.525c0,0.408-0.305,1.019-0.916,1.831
		c-0.609,0.814-1.324,1.689-2.137,2.624c-0.814,0.937-1.629,1.813-2.441,2.625c-0.814,0.814-1.424,1.385-1.83,1.709
		c-0.732,0.732-1.77,1.77-3.113,3.113c-1.342,1.342-2.686,2.686-4.027,4.027c-1.344,1.344-2.605,2.564-3.785,3.662
		c-1.18,1.1-1.934,1.853-2.258,2.259l-5.738,2.93c-0.408,0-1.098,0.306-2.074,0.915c-0.977,0.611-2.014,1.263-3.113,1.953
		c-1.098,0.692-2.137,1.344-3.113,1.953c-0.977,0.611-1.629,0.916-1.953,0.916c-0.244,0-0.549,0.061-0.914,0.184
		c-0.367,0.121-0.998,0.263-1.893,0.427c-0.896,0.162-2.178,0.306-3.846,0.427c-1.668,0.123-3.887,0.184-6.652,0.184
		c-0.977,0-1.975,0.04-2.99,0.122c-1.02,0.08-2.016,0.122-2.992,0.122c-1.547,0-3.012-0.082-4.395-0.244
		c-1.385-0.164-2.768-0.57-4.15-1.221c-1.385-0.814-2.645-1.587-3.783-2.319c-0.977-0.65-1.934-1.282-2.869-1.892
		c-0.936-0.611-1.607-1.118-2.014-1.526c-0.408,0-0.875-0.244-1.404-0.732s-1.08-0.996-1.648-1.526
		c-0.57-0.528-1.119-1.037-1.646-1.525c-0.531-0.488-0.959-0.732-1.283-0.732l-1.342-1.221c-0.408-0.406-0.938-0.996-1.588-1.77
		c-0.652-0.773-1.303-1.566-1.953-2.381c-0.814-0.895-1.629-1.911-2.441-3.052l-1.465-3.052c-0.326-0.732-0.732-1.77-1.221-3.113
		c-0.488-1.342-0.957-2.686-1.402-4.027c-0.449-1.344-0.836-2.564-1.16-3.662c-0.326-1.1-0.488-1.811-0.488-2.137
		c0-0.406-0.082-1.179-0.244-2.319c-0.164-1.139-0.326-2.399-0.488-3.784c-0.164-1.383-0.326-2.746-0.488-4.09
		c-0.164-1.342-0.244-2.38-0.244-3.112V193.73z M1457.267,202.519c0.406,0.652,0.936,1.709,1.588,3.174
		c0.65,1.465,1.342,3.032,2.074,4.699c0.732,1.669,1.424,3.256,2.076,4.762c0.65,1.506,1.178,2.624,1.586,3.356
		c0.324,0.408,0.834,0.937,1.527,1.587c0.689,0.652,1.422,1.323,2.197,2.014c0.771,0.692,1.482,1.385,2.135,2.076
		c0.65,0.691,1.18,1.201,1.588,1.525c1.301,0.57,2.563,1.059,3.783,1.465c0.977,0.408,1.953,0.732,2.93,0.977
		s1.668,0.366,2.076,0.366h1.221h1.465c0.732,0,1.85-0.062,3.357-0.183c1.504-0.123,2.99-0.264,4.455-0.428
		c1.709-0.162,3.539-0.366,5.492-0.61c1.139-0.568,2.156-1.139,3.053-1.709c0.813-0.488,1.605-0.977,2.381-1.465
		c0.771-0.488,1.361-0.935,1.77-1.343l1.586-1.587c0.406-0.324,0.916-0.854,1.527-1.587c0.609-0.732,1.238-1.545,1.891-2.441
		c0.732-0.895,1.506-1.953,2.32-3.174c0.568-0.813,1.057-1.587,1.465-2.319c0.406-0.65,0.752-1.282,1.037-1.892
		c0.285-0.611,0.428-1.118,0.428-1.526c0-0.406,0.08-0.854,0.244-1.343c0.162-0.488,0.324-0.935,0.488-1.343
		c0.244-0.488,0.527-1.017,0.854-1.587c0-0.324,0.08-1.078,0.244-2.258c0.162-1.18,0.324-2.441,0.488-3.785
		c0.162-1.342,0.324-2.686,0.488-4.027c0.162-1.344,0.244-2.381,0.244-3.113v-1.587v-1.221c0-0.732-0.244-1.729-0.732-2.991
		c-0.488-1.261-0.732-2.258-0.732-2.99l-1.586-2.808l-2.93-7.202c-0.57-0.813-1.1-1.627-1.588-2.441
		c-0.408-0.65-0.854-1.301-1.342-1.953c-0.488-0.65-0.938-1.179-1.344-1.587l-4.516-4.272c-0.408-0.406-0.916-0.854-1.525-1.343
		c-0.611-0.488-1.242-0.935-1.893-1.343c-0.732-0.488-1.508-1.017-2.32-1.587h-1.465h-3.051l-2.686,1.221l-1.588,1.587l-2.93,5.737
		l-1.586,1.465l-2.686,1.465c-0.408,0-1.16,0.164-2.258,0.488c-1.1,0.326-2.301,0.671-3.602,1.038
		c-1.303,0.365-2.523,0.713-3.662,1.037c-1.141,0.326-1.873,0.488-2.197,0.488l-3.053,1.465l-3.051,2.808
		c-0.244,0.57-0.449,1.141-0.611,1.709c-0.408,1.059-0.609,1.995-0.609,2.808c0,0.652-0.143,1.525-0.428,2.625
		c-0.285,1.098-0.631,2.218-1.037,3.356c-0.408,1.303-0.896,2.646-1.465,4.028c0,0.408-0.082,0.997-0.244,1.77
		c-0.164,0.774-0.348,1.629-0.549,2.564c-0.205,0.936-0.389,1.812-0.551,2.624c-0.164,0.814-0.244,1.385-0.244,1.709v1.587V202.519z
		"/>
	<path fill="#FFFFFF" d="M1544.549,287.725v-8.789l3.051-2.686h1.465h1.221l1.588,2.686c0,0.406,0.08,1.016,0.244,1.83
		c0.162,0.813,0.324,1.689,0.488,2.625c0.162,0.936,0.324,1.811,0.488,2.625c0.162,0.813,0.244,1.383,0.244,1.709
		c0.732,1.465,1.465,3.152,2.197,5.066c0.732,1.91,1.504,3.559,2.318,4.943c0.324,0.406,0.732,1.098,1.221,2.074
		s0.996,1.994,1.527,3.053c0.527,1.057,1.057,2.074,1.586,3.051s0.996,1.668,1.404,2.076c0.732,1.465,1.525,2.848,2.381,4.15
		c0.854,1.301,1.971,2.318,3.355,3.051c0.324,0.324,0.611,0.611,0.855,0.855s0.527,0.445,0.854,0.609
		c1.057,0.895,1.994,1.344,2.809,1.344c0.895,0.895,2.033,1.586,3.418,2.074c0.568,0.324,1.342,0.611,2.318,0.855h5.982h5.736
		c0.977-0.244,1.75-0.531,2.32-0.855c1.383-0.488,2.521-1.18,3.418-2.074l2.197-1.588c0.568-0.408,1.098-0.854,1.586-1.342
		s0.732-0.938,0.732-1.344l0.732-0.854c0.488-0.57,0.732-1.221,0.732-1.953c0.324-0.732,0.752-1.67,1.283-2.809
		c0.527-1.141,0.994-2.279,1.402-3.418c0.244-0.652,0.488-1.322,0.732-2.014s0.529-1.363,0.855-2.014
		c0-0.326,0.244-1.281,0.732-2.869c0.488-1.586,0.996-3.338,1.525-5.248c0.529-1.914,1.037-3.744,1.525-5.494
		s0.732-2.951,0.732-3.602c0-0.326,0.08-0.977,0.244-1.953c0.162-0.977,0.324-2.014,0.488-3.111c0.162-1.1,0.324-2.137,0.488-3.113
		c0.162-0.977,0.244-1.67,0.244-2.076c0-0.326,0.063-0.814,0.184-1.465c0.123-0.652,0.285-1.342,0.488-2.074
		s0.367-1.426,0.488-2.076c0.123-0.652,0.184-1.18,0.184-1.586v-30.03l-0.732-3.174c-0.164-0.813-0.305-1.606-0.428-2.381
		c-0.121-0.772-0.184-1.321-0.184-1.647l-1.465-3.052l-16.234,15.991c-0.326,0.326-0.814,0.814-1.465,1.465
		c-0.652,0.652-1.344,1.282-2.076,1.892c-0.732,0.611-1.445,1.16-2.135,1.648c-0.693,0.488-1.203,0.732-1.527,0.732
		c-0.408,0.406-1.037,0.854-1.891,1.343c-0.855,0.488-1.73,0.956-2.625,1.403c-0.896,0.448-1.752,0.813-2.564,1.1
		c-0.814,0.283-1.385,0.426-1.709,0.426h-5.736h-7.324c-0.896-0.244-1.709-0.529-2.441-0.854c-0.652-0.244-1.303-0.531-1.953-0.855
		c-0.652-0.326-1.182-0.652-1.588-0.977l-1.465-1.587l-2.807-4.395l-1.465-2.808c0-0.324-0.082-0.813-0.244-1.465
		c-0.164-0.65-0.326-1.343-0.488-2.075c-0.164-0.732-0.326-1.423-0.488-2.075c-0.164-0.65-0.244-1.179-0.244-1.587
		c-0.164-0.977-0.287-1.911-0.367-2.808c-0.082-0.895-0.164-1.789-0.244-2.686c-0.164-1.465-0.305-2.909-0.426-4.333
		c-0.123-1.424-0.184-2.503-0.184-3.235s0.061-1.811,0.184-3.235c0.121-1.423,0.262-2.868,0.426-4.333l0.611-5.371l0.732-3.296
		c0.162-0.895,0.324-1.831,0.488-2.808c0.162-0.977,0.244-1.871,0.244-2.686c0-0.406,0.08-0.996,0.244-1.771
		c0.162-0.772,0.324-1.565,0.488-2.38l0.732-3.052c0-0.406,0.121-1.017,0.365-1.831c0.244-0.813,0.568-1.627,0.977-2.441
		c0.162-0.406,0.367-0.874,0.611-1.403s0.527-1.078,0.854-1.648l1.465-4.272l3.053-5.737c0.324-0.324,0.813-1.281,1.465-2.869
		c0.65-1.586,1.342-3.274,2.074-5.065c0.732-1.789,1.424-3.479,2.076-5.065c0.65-1.588,1.178-2.583,1.586-2.991
		c0.324-0.324,0.916-1.057,1.771-2.197c0.854-1.139,1.789-2.38,2.807-3.724c1.018-1.342,2.033-2.664,3.053-3.967
		c1.016-1.301,1.891-2.319,2.623-3.052c0.324-0.406,0.895-1.099,1.709-2.075c0.813-0.977,1.689-1.953,2.625-2.93
		s1.811-1.851,2.625-2.625c0.813-0.772,1.422-1.159,1.83-1.159c0.324,0,0.996-0.142,2.016-0.427c1.016-0.285,2.115-0.651,3.295-1.1
		c1.18-0.446,2.359-0.915,3.541-1.403c1.178-0.488,2.135-0.935,2.867-1.343h1.465h1.344l2.93,1.587
		c0.324,0.408,1.057,1.079,2.197,2.015c1.139,0.936,2.338,1.912,3.602,2.93c1.26,1.018,2.459,1.994,3.6,2.93
		c1.139,0.936,1.912,1.607,2.32,2.014l4.271,3.052c0.406,0.408,0.936,0.854,1.588,1.343c0.65,0.488,1.301,0.937,1.953,1.343
		l2.441,1.587c0.406,0.408,1.016,1.099,1.83,2.075c0.813,0.977,1.627,2.015,2.441,3.112c0.813,1.1,1.527,2.137,2.137,3.113
		c0.611,0.977,0.916,1.629,0.916,1.953v2.686v3.052c0,0.408-0.082,1.079-0.244,2.015c-0.164,0.936-0.326,1.953-0.488,3.051
		c-0.164,1.1-0.326,2.117-0.488,3.053c-0.164,0.936-0.244,1.567-0.244,1.892c0,0.408-0.225,1.241-0.672,2.503
		s-0.936,2.624-1.465,4.089s-1.018,2.808-1.465,4.028s-0.672,1.995-0.672,2.319v5.981v8.545c0,0.732,0.063,2.157,0.184,4.272
		c0.123,2.117,0.264,4.333,0.428,6.653c0.162,2.318,0.305,4.516,0.428,6.592c0.121,2.074,0.182,3.479,0.182,4.211
		c0,0.408,0.08,1.019,0.244,1.831c0.162,0.814,0.324,1.689,0.488,2.624c0.162,0.937,0.324,1.813,0.488,2.625
		c0.162,0.814,0.244,1.385,0.244,1.709l0.123,13.55l-0.123,2.197l-0.732,4.638c-0.164,1.221-0.326,2.482-0.488,3.785
		c-0.164,1.301-0.244,2.318-0.244,3.051c0,0.406-0.143,1.607-0.426,3.602c-0.287,1.994-0.611,4.15-0.977,6.471
		c-0.367,2.318-0.693,4.494-0.977,6.529c-0.287,2.033-0.428,3.254-0.428,3.662v5.738c0,0.406-0.164,0.996-0.488,1.77
		c-0.326,0.773-0.672,1.627-1.037,2.564c-0.367,0.934-0.693,1.809-0.977,2.623c-0.287,0.813-0.428,1.424-0.428,1.832
		c0,0.324-0.082,0.873-0.244,1.648c-0.164,0.771-0.326,1.627-0.488,2.563c-0.164,0.936-0.326,1.789-0.488,2.564
		c-0.164,0.771-0.244,1.32-0.244,1.646c-0.408,0.732-1.1,2.076-2.076,4.029s-2.014,4.027-3.111,6.225
		c-1.1,2.197-2.137,4.252-3.113,6.166c-0.977,1.91-1.629,3.191-1.953,3.844l-1.588,2.32c-0.408,0.568-0.854,1.078-1.342,1.525
		s-0.938,0.672-1.344,0.672c-0.408,0.406-1.098,0.934-2.074,1.586c-0.977,0.65-2.057,1.344-3.234,2.076
		c-1.182,0.732-2.361,1.422-3.541,2.074c-1.18,0.65-2.137,1.139-2.869,1.465c-0.408,0-0.936,0.143-1.586,0.428
		c-0.652,0.285-1.303,0.629-1.953,1.037l-2.32,1.344l-3.174,0.732c-0.896,0.162-1.709,0.324-2.441,0.488
		c-0.732,0.162-1.262,0.244-1.586,0.244h-1.465h-1.588c-0.408,0-0.996-0.082-1.77-0.244c-0.773-0.164-1.568-0.326-2.381-0.488
		l-3.051-0.732c-0.408,0-1.02-0.143-1.832-0.428c-0.814-0.285-1.689-0.652-2.623-1.098c-0.938-0.449-1.813-0.916-2.625-1.404
		c-0.814-0.488-1.385-0.938-1.709-1.344l-3.906-3.051c-1.059-0.814-2.035-1.607-2.93-2.381c-0.896-0.773-1.508-1.363-1.832-1.77
		c-0.652,0-1.342-0.488-2.074-1.465c-0.164-0.164-0.326-0.387-0.488-0.672c-0.164-0.285-0.326-0.592-0.488-0.916l-1.465-4.271
		l-3.053-5.738c0-0.326-0.143-0.896-0.426-1.709c-0.287-0.814-0.592-1.689-0.916-2.623c-0.326-0.938-0.631-1.813-0.916-2.625
		c-0.285-0.814-0.428-1.426-0.428-1.832c-0.408-0.652-0.773-1.525-1.098-2.623c-0.326-1.1-0.652-2.219-0.977-3.357l-0.977-3.906
		V287.725z M1567.863,215.703v5.737c0,0.326,0.08,0.835,0.244,1.526c0.162,0.691,0.324,1.403,0.488,2.136
		c0.162,0.732,0.324,1.445,0.488,2.136c0.162,0.692,0.244,1.202,0.244,1.526l2.93,2.686h3.053h4.271
		c0.732,0,1.729-0.244,2.992-0.732c1.26-0.488,2.258-0.732,2.99-0.732c0.65,0,1.504-0.446,2.563-1.343
		c0.244-0.162,0.508-0.346,0.795-0.549c0.283-0.203,0.588-0.468,0.914-0.794c0.324-0.406,0.895-1.099,1.709-2.075
		c0.813-0.977,1.689-2.014,2.625-3.113c0.936-1.098,1.811-2.115,2.625-3.051c0.813-0.936,1.422-1.606,1.83-2.015l5.738-5.737
		c0-0.324,0.141-0.752,0.428-1.281c0.283-0.529,0.609-1.078,0.977-1.648c0.365-0.568,0.711-1.099,1.037-1.587
		c0.324-0.488,0.488-0.935,0.488-1.343c0-0.324,0.08-0.895,0.244-1.709c0.162-0.813,0.324-1.688,0.488-2.625
		c0.162-0.935,0.324-1.81,0.488-2.624c0.162-0.813,0.244-1.383,0.244-1.709v-2.808v-1.465l-0.732-2.319
		c-0.164-0.65-0.326-1.282-0.488-1.892c-0.164-0.611-0.244-1.118-0.244-1.526c0-0.406-0.143-1.057-0.428-1.953
		c-0.285-0.895-0.631-1.871-1.037-2.93l-1.465-3.906l-2.809-4.272l-1.465-2.93c0-0.406-0.164-1.017-0.488-1.831
		c-0.326-0.813-0.67-1.688-1.037-2.624c-0.365-0.936-0.713-1.79-1.037-2.564c-0.326-0.772-0.488-1.361-0.488-1.77l-1.465-2.686
		h-1.221l-3.053,1.465c-0.408,0.326-0.936,0.814-1.586,1.465c-0.652,0.652-1.344,1.343-2.076,2.075s-1.424,1.445-2.074,2.136
		c-0.652,0.692-1.141,1.202-1.465,1.526c-0.326,0.57-0.611,1.119-0.855,1.647c-0.244,0.53-0.529,0.998-0.854,1.404
		c-0.488,0.814-0.977,1.629-1.465,2.441c-0.488,0.814-0.938,1.425-1.344,1.831c0,0.326-0.143,0.732-0.426,1.221
		c-0.287,0.488-0.611,0.997-0.977,1.526c-0.367,0.529-0.693,1.058-0.977,1.586c-0.287,0.53-0.428,0.998-0.428,1.404
		c0,0.326-0.244,0.957-0.732,1.893s-0.998,1.934-1.525,2.99c-0.531,1.059-1.039,2.075-1.527,3.052s-0.732,1.669-0.732,2.075
		c0,0.408-0.082,0.875-0.244,1.404c-0.164,0.529-0.326,0.997-0.488,1.403l-0.732,1.587c0,0.326-0.082,0.896-0.244,1.709
		c-0.164,0.814-0.326,1.669-0.488,2.563c-0.164,0.896-0.326,1.751-0.488,2.563c-0.164,0.814-0.244,1.385-0.244,1.709l-0.732,3.052
		c-0.164,0.814-0.326,1.629-0.488,2.441c-0.164,0.814-0.244,1.425-0.244,1.831V215.703z"/>
</g>
</svg>
