<?xml version="1.0" encoding="utf-8"?>
<!-- Generator: Adobe Illustrator 16.0.0, SVG Export Plug-In . SVG Version: 6.00 Build 0)  -->
<!DOCTYPE svg PUBLIC "-//W3C//DTD SVG 1.1//EN" "http://www.w3.org/Graphics/SVG/1.1/DTD/svg11.dtd">
<svg version="1.1" id="图层_1" xmlns="http://www.w3.org/2000/svg" xmlns:xlink="http://www.w3.org/1999/xlink" x="0px" y="0px"
	  viewBox="0 100 900 300" enable-background="new 0 100 900 300" xml:space="preserve">
<path fill="#78C9E9" d="M127.261,104.123c5.946-0.572,11.893,0.103,17.833,0.405c17.364,1.633,34.489,6.384,49.95,14.503
	c21.767,11.372,40.474,28.769,52.843,50.04c10.132,17.094,16.129,36.585,17.646,56.392c0.488,12.639,0.276,25.297,0.321,37.947
	c-0.007,31.288,0.007,62.575-0.007,93.863c-0.405,9.2,0.219,18.444-0.894,27.604c-0.398,3.71-1.016,7.546-2.912,10.818
	c-1.884,3.195-5.83,4.777-9.431,4.179c-2.051-0.577-3.748-1.96-5.316-3.342c-8.011-7.637-13.744-17.44-22.481-24.352
	c-3.375-2.559-7.92-4.821-12.17-3.086c-6.029,2.424-9.88,7.972-13.911,12.779c-5.137,6.236-10.022,13.308-17.563,16.805
	c-4.713,2.263-10.466,1.396-14.593-1.689c-8.904-6.598-13.519-17.287-22.153-24.173c-4.391-3.528-10.446-5.399-15.969-3.696
	c-4.841,1.272-8.53,4.95-11.597,8.724c-4.191,5.297-7.393,11.334-11.925,16.367c-2.508,2.783-5.779,5.014-9.515,5.683
	c-4.365,0.585-8.621-1.421-11.887-4.172c-7.939-6.705-12.368-16.535-20.121-23.419c-3.26-2.983-8.068-4.893-12.4-3.176
	c-7.792,2.834-13.379,9.289-19.029,15.042c-4.969,4.944-9.104,10.839-15.05,14.709c-3.027,2.071-7.115,0.907-9.829-1.164
	c-3.144-2.571-4.339-6.698-5.238-10.498c-1.781-8.787-1.652-17.794-1.685-26.718c-0.199-6.223-0.283-12.451,0.013-18.674
	c-0.019-34.933-0.006-69.865-0.006-104.798c-1.042-36.174,14.489-72.321,40.956-96.917c15.75-14.792,35.119-25.779,56.02-31.333
	C106.986,106.11,117.098,104.561,127.261,104.123z"/>
<path fill="#FFFFFF" d="M96.61,189.842c6.84-1.428,14.06-0.804,20.559,1.768c9.978,3.845,18.07,12.445,21.086,22.738
	c2.256,7.122,2.166,14.985-0.212,22.069c-3.627,11.726-13.887,20.995-25.85,23.604c-3.337,0.63-6.698,1.574-10.118,1.15
	c-4.944-0.675-9.913-1.684-14.394-3.973c-9.02-4.474-16.021-12.939-18.47-22.737c-2.912-10.884-0.629-23.278,6.629-32.008
	C81.034,196.014,88.471,191.437,96.61,189.842z"/>
<path fill="#FFFFFF" d="M206.468,189.835c9.38-2.012,19.517,0.045,27.489,5.369c6.261,4.319,11.295,10.542,13.725,17.8
	c3.787,10.793,2.186,23.381-4.409,32.767c-5.06,7.296-12.979,12.535-21.671,14.348c-2.546,0.476-5.085,1.138-7.683,1.156
	c-9.417-0.501-19.009-3.837-25.637-10.773c-6.962-6.621-10.299-16.244-10.672-25.694c0.463-8.627,3.343-17.331,9.277-23.772
	C191.997,195.325,198.959,191.353,206.468,189.835z"/>
<path fill="#063F82" d="M112.765,209.302c5.799-1.968,12.626-0.418,16.952,3.934c5.008,4.892,6.325,13.037,3.131,19.267
	c-2.225,4.423-6.5,7.843-11.392,8.781c-5.388,1.261-11.379-0.571-15.21-4.558c-3.093-3.104-4.925-7.489-4.726-11.893
	C101.342,217.941,106.273,211.423,112.765,209.302z"/>
<path fill="#063F82" d="M222.661,209.302c4.764-1.588,10.253-0.9,14.419,1.922c3.472,2.243,5.928,5.914,6.93,9.906
	c1.44,5.869-0.565,12.433-5.187,16.367c-6.063,5.689-16.489,5.496-22.34-0.405c-4.545-4.134-6.146-10.884-4.5-16.721
	C213.462,215.241,217.571,210.935,222.661,209.302z"/>
<rect x="321.389" y="235.989" fill="none" width="600.361" height="137.577"/>
<g enable-background="new    ">
	<path fill="#FFFFFF" d="M338.134,195.024h-1.978c-0.377,0.113-0.754,0.226-1.13,0.339c-0.302,0.076-0.603,0.151-0.904,0.226
		c-0.302,0.076-0.546,0.113-0.734,0.113c-0.189,0-0.472,0.066-0.848,0.198c-0.377,0.132-0.754,0.274-1.13,0.424
		c-0.415,0.189-0.886,0.396-1.413,0.622l-1.978,0.734c-0.339,0.189-0.782,0.424-1.328,0.707c-0.546,0.282-1.093,0.575-1.638,0.875
		c-0.546,0.302-1.055,0.556-1.526,0.763c-0.471,0.208-0.782,0.311-0.932,0.311l-1.356,1.356v8.023l-0.622,2.091
		c0,0.151-0.113,0.405-0.339,0.763c-0.226,0.358-0.49,0.754-0.791,1.187c-0.302,0.434-0.613,0.829-0.932,1.187
		c-0.321,0.357-0.556,0.612-0.707,0.763l-0.565,0.734c-0.189,0.188-0.434,0.386-0.734,0.593c-0.302,0.207-0.631,0.414-0.989,0.622
		c-0.358,0.207-0.698,0.376-1.017,0.509c-0.32,0.131-0.575,0.198-0.763,0.198h-0.565l-1.356-0.565
		c-0.188-0.151-0.471-0.387-0.847-0.707c-0.377-0.32-0.754-0.641-1.13-0.96c-0.377-0.32-0.706-0.631-0.989-0.932
		c-0.282-0.301-0.423-0.546-0.423-0.735c-0.113-0.263-0.226-0.527-0.339-0.791c-0.076-0.226-0.151-0.452-0.226-0.678
		c-0.076-0.226-0.113-0.433-0.113-0.622v-0.565v-0.734c0-0.339,0.113-0.791,0.339-1.356c0.226-0.565,0.339-0.998,0.339-1.299
		l0.734-1.356l0.565-0.734l0.678-1.243c0-0.15,0.075-0.424,0.226-0.819c0.15-0.396,0.311-0.8,0.48-1.215
		c0.169-0.414,0.329-0.81,0.48-1.187c0.15-0.376,0.226-0.659,0.226-0.848c0-0.113,0.047-0.404,0.142-0.875
		c0.093-0.471,0.216-1.036,0.367-1.695c0.15-0.658,0.301-1.356,0.452-2.09c0.15-0.734,0.301-1.431,0.452-2.09
		c0.15-0.659,0.273-1.233,0.367-1.724c0.094-0.489,0.142-0.791,0.142-0.904c0-0.15,0.075-0.489,0.226-1.017
		c0.15-0.527,0.311-1.092,0.48-1.695s0.33-1.159,0.48-1.667c0.15-0.508,0.226-0.856,0.226-1.045c0-0.15,0.075-0.649,0.226-1.497
		c0.15-0.848,0.311-1.78,0.48-2.797s0.329-1.958,0.48-2.825c0.15-0.866,0.226-1.393,0.226-1.582l0.678-1.921
		c0-0.188,0.065-0.781,0.198-1.78c0.131-0.998,0.273-2.09,0.424-3.277c0.15-1.187,0.292-2.279,0.424-3.277
		c0.131-0.998,0.198-1.591,0.198-1.78c0-0.15,0.075-0.565,0.226-1.243c0.15-0.678,0.311-1.412,0.48-2.203s0.33-1.563,0.48-2.317
		c0.15-0.753,0.226-1.299,0.226-1.638l0.678-2.656c0-0.15,0.028-0.414,0.085-0.791c0.056-0.376,0.131-0.781,0.226-1.215
		c0.093-0.433,0.169-0.828,0.226-1.187c0.057-0.357,0.085-0.63,0.085-0.819c0-0.15,0.037-0.442,0.113-0.875
		c0.075-0.433,0.15-0.904,0.226-1.413c0.075-0.509,0.15-0.979,0.226-1.413c0.075-0.433,0.113-0.743,0.113-0.932
		c0-0.188,0.037-0.396,0.113-0.622c0.075-0.226,0.15-0.452,0.226-0.678c0.113-0.263,0.226-0.527,0.339-0.791
		c0-0.15,0.075-0.339,0.226-0.565c0.15-0.226,0.339-0.442,0.565-0.65c0.226-0.207,0.452-0.386,0.678-0.537
		c0.226-0.15,0.433-0.226,0.622-0.226h2.655h2.656c0.188,0,0.396,0.038,0.622,0.113c0.226,0.076,0.452,0.151,0.678,0.226
		c0.263,0.113,0.527,0.226,0.791,0.339c0.15,0,0.376,0.141,0.678,0.424c0.301,0.282,0.622,0.612,0.96,0.989
		c0.339,0.377,0.659,0.754,0.96,1.13c0.301,0.377,0.545,0.66,0.734,0.848c0.339,0.377,0.659,0.734,0.96,1.073
		c0.263,0.302,0.499,0.593,0.707,0.876c0.207,0.282,0.311,0.518,0.311,0.706l0.735,1.356c0,0.189,0.037,0.424,0.113,0.707
		c0.075,0.282,0.15,0.575,0.226,0.875c0.113,0.339,0.226,0.698,0.339,1.074v2.712c0,0.189,0.104,0.603,0.311,1.243
		c0.207,0.641,0.433,1.337,0.678,2.09c0.245,0.754,0.471,1.46,0.678,2.119c0.207,0.659,0.311,1.064,0.311,1.215l0.678,3.39
		c0,0.302,0.075,0.716,0.226,1.243c0.15,0.528,0.311,1.065,0.48,1.61c0.169,0.546,0.33,1.055,0.48,1.525
		c0.15,0.472,0.226,0.782,0.226,0.933c0,0.188,0.103,0.565,0.311,1.13c0.207,0.565,0.424,1.187,0.65,1.864
		c0.226,0.678,0.442,1.31,0.649,1.893c0.207,0.584,0.311,0.952,0.311,1.102l0.734,2.712c0,0.188,0.065,0.433,0.198,0.734
		c0.132,0.302,0.292,0.603,0.48,0.904c0.188,0.377,0.414,0.754,0.678,1.13l2.656,0.565c0.188,0,0.396,0.038,0.622,0.113
		c0.226,0.076,0.433,0.151,0.622,0.226c0.226,0.113,0.47,0.226,0.734,0.339l1.413,1.413v0.565v0.678l-3.39,3.39v0.678v1.413
		c0,0.151,0.075,0.556,0.226,1.215c0.15,0.66,0.329,1.404,0.537,2.232c0.207,0.829,0.424,1.667,0.65,2.514s0.414,1.517,0.565,2.006
		c0,0.189,0.037,0.396,0.113,0.622c0.075,0.226,0.15,0.433,0.226,0.622c0.113,0.226,0.226,0.471,0.339,0.734
		c0,0.189,0.179,0.613,0.537,1.271c0.357,0.66,0.743,1.366,1.158,2.119c0.414,0.754,0.8,1.45,1.158,2.09
		c0.357,0.641,0.537,1.037,0.537,1.187c0,0.189,0.065,0.472,0.198,0.848c0.132,0.377,0.283,0.782,0.452,1.215
		c0.169,0.433,0.329,0.838,0.48,1.215c0.15,0.377,0.226,0.641,0.226,0.791l0.735,1.412c0,0.189,0.141,0.462,0.424,0.819
		c0.282,0.358,0.583,0.744,0.904,1.158c0.32,0.414,0.622,0.8,0.904,1.159c0.283,0.357,0.424,0.612,0.424,0.763l0.678,1.413v0.678
		v0.678l-0.678,1.299c-0.264,0.414-0.508,0.791-0.734,1.13c-0.452,0.678-0.867,1.187-1.243,1.526
		c-0.339,0.339-0.716,0.659-1.13,0.96c-0.415,0.301-0.96,0.452-1.639,0.452h-0.565l-1.413-0.735
		c-0.189-0.189-0.396-0.387-0.622-0.593c-0.226-0.208-0.452-0.405-0.678-0.593c-0.264-0.226-0.528-0.471-0.791-0.734
		c0-0.189-0.104-0.508-0.311-0.96s-0.461-0.96-0.763-1.525c-0.302-0.565-0.603-1.122-0.904-1.667
		c-0.302-0.546-0.528-0.989-0.678-1.328l-1.243-3.221c0-0.15-0.113-0.452-0.339-0.904c-0.226-0.452-0.461-0.933-0.706-1.441
		c-0.246-0.509-0.48-0.989-0.707-1.441c-0.226-0.452-0.339-0.771-0.339-0.96c0-0.15-0.076-0.489-0.226-1.017
		c-0.151-0.527-0.311-1.083-0.48-1.667s-0.33-1.13-0.48-1.639c-0.151-0.509-0.226-0.838-0.226-0.989
		c-0.151-0.339-0.339-0.856-0.565-1.554c-0.226-0.697-0.443-1.393-0.65-2.091c-0.207-0.696-0.386-1.336-0.537-1.921
		c-0.151-0.583-0.226-0.969-0.226-1.158c-0.189-0.188-0.396-0.461-0.622-0.819c-0.226-0.357-0.452-0.725-0.678-1.102
		c-0.264-0.414-0.528-0.885-0.791-1.413H338.134z M324.686,187.622l0.565,0.678h1.413c1.318,0,2.664-0.142,4.04-0.424
		c1.375-0.283,2.721-0.612,4.04-0.989c0.188,0,0.396-0.037,0.622-0.113c0.226-0.075,0.433-0.15,0.621-0.226
		c0.226-0.113,0.471-0.226,0.735-0.339l0.678-0.565v-0.734v-0.678c0-0.15-0.066-0.489-0.198-1.017
		c-0.132-0.527-0.273-1.073-0.424-1.638c-0.151-0.565-0.292-1.102-0.423-1.61c-0.133-0.509-0.198-0.856-0.198-1.045
		c0-0.15-0.038-0.489-0.113-1.017c-0.076-0.527-0.161-1.092-0.254-1.695c-0.094-0.602-0.179-1.158-0.254-1.667
		c-0.076-0.508-0.113-0.856-0.113-1.045c0-0.15-0.113-0.452-0.339-0.904s-0.49-0.941-0.791-1.469
		c-0.302-0.527-0.603-1.064-0.904-1.61c-0.302-0.546-0.547-0.989-0.735-1.328l-1.243-1.299h-0.678l-0.734,0.565
		c0,0.189-0.066,0.405-0.198,0.65c-0.132,0.245-0.274,0.49-0.424,0.734c-0.151,0.246-0.292,0.48-0.424,0.707
		c-0.132,0.226-0.198,0.415-0.198,0.565c-0.302,0.678-0.546,1.281-0.734,1.808c-0.189,0.49-0.349,0.942-0.48,1.356
		c-0.132,0.415-0.198,0.716-0.198,0.904c0,0.189-0.076,0.509-0.226,0.96c-0.151,0.452-0.311,0.933-0.48,1.441
		s-0.321,0.989-0.452,1.441c-0.132,0.452-0.198,0.754-0.198,0.904c0,0.189-0.038,0.434-0.113,0.734
		c-0.076,0.302-0.161,0.613-0.254,0.933c-0.095,0.32-0.179,0.641-0.254,0.96c-0.076,0.32-0.113,0.556-0.113,0.706
		c0,0.189-0.028,0.5-0.085,0.933c-0.057,0.433-0.123,0.895-0.198,1.384c-0.076,0.49-0.141,0.96-0.198,1.412
		c-0.057,0.452-0.084,0.754-0.084,0.904V187.622z"/>
	<path fill="#FFFFFF" d="M365.875,214.8c-0.189-0.339-0.434-0.876-0.734-1.61c-0.302-0.734-0.603-1.516-0.904-2.345
		c-0.302-0.828-0.565-1.619-0.791-2.373c-0.226-0.753-0.339-1.3-0.339-1.639v-0.734v-1.356c0-0.188,0.037-0.442,0.113-0.763
		c0.075-0.319,0.15-0.649,0.226-0.989c0.075-0.339,0.15-0.658,0.226-0.96c0.075-0.301,0.113-0.527,0.113-0.678
		c0-0.15-0.038-0.489-0.113-1.017c-0.076-0.527-0.151-1.092-0.226-1.695c-0.076-0.602-0.151-1.158-0.226-1.667
		c-0.076-0.509-0.113-0.856-0.113-1.045c0-0.301-0.038-0.932-0.113-1.893c-0.076-0.96-0.161-2.006-0.254-3.136
		c-0.095-1.13-0.179-2.222-0.254-3.277c-0.076-1.054-0.113-1.827-0.113-2.316v-2.825c0-0.15-0.038-0.565-0.113-1.243
		c-0.076-0.678-0.151-1.393-0.226-2.147c-0.076-0.753-0.151-1.45-0.226-2.09c-0.076-0.64-0.113-1.036-0.113-1.187v-2.656
		c0-0.188-0.038-0.763-0.113-1.723c-0.076-0.96-0.151-1.996-0.226-3.107c-0.076-1.111-0.151-2.138-0.226-3.08
		c-0.076-0.941-0.113-1.506-0.113-1.695c0-0.339-0.038-1.158-0.113-2.458c-0.076-1.299-0.151-2.702-0.226-4.209
		c-0.076-1.506-0.151-2.91-0.226-4.209c-0.076-1.3-0.113-2.119-0.113-2.458l-0.734-2.655v-2.769c0-0.15-0.076-0.414-0.226-0.791
		c-0.151-0.376-0.311-0.791-0.48-1.243s-0.32-0.866-0.452-1.243c-0.133-0.376-0.198-0.64-0.198-0.791v-2.09v-1.243l4.125-4.068
		h1.413h2.769l1.187,0.678c0.188,0,0.396,0.066,0.621,0.198c0.226,0.132,0.452,0.292,0.678,0.48
		c0.263,0.189,0.527,0.396,0.791,0.622l1.356,2.09v1.243v1.413c0,0.189-0.076,0.471-0.226,0.847
		c-0.151,0.377-0.311,0.772-0.48,1.187c-0.169,0.415-0.321,0.819-0.452,1.215c-0.132,0.396-0.198,0.707-0.198,0.933
		c0,0.151-0.038,0.443-0.113,0.875c-0.076,0.434-0.161,0.895-0.254,1.384c-0.095,0.49-0.179,0.96-0.254,1.413
		c-0.076,0.452-0.113,0.754-0.113,0.904v6.724v7.402c0,0.113,0.019,0.424,0.056,0.932c0.037,0.509,0.085,1.121,0.142,1.836
		c0.056,0.716,0.113,1.488,0.169,2.316c0.057,0.829,0.113,1.602,0.169,2.317c0.057,0.716,0.104,1.337,0.141,1.864
		c0.037,0.528,0.057,0.848,0.057,0.96v1.921c0,0.49,0.037,1.299,0.113,2.429c0.075,1.13,0.15,2.298,0.226,3.503
		c0.075,1.206,0.15,2.298,0.226,3.277c0.075,0.98,0.113,1.545,0.113,1.695c0,0.151,0.037,0.443,0.113,0.876
		c0.075,0.434,0.15,0.904,0.226,1.413c0.075,0.508,0.15,0.989,0.226,1.441c0.075,0.452,0.113,0.754,0.113,0.904
		c0,0.189,0.037,0.565,0.113,1.13c0.075,0.565,0.15,1.187,0.226,1.865c0.075,0.678,0.15,1.309,0.226,1.893
		c0.075,0.584,0.113,0.952,0.113,1.102c0,0.189,0.075,0.508,0.226,0.96c0.15,0.452,0.311,0.932,0.48,1.441
		c0.169,0.508,0.33,0.989,0.48,1.44c0.15,0.452,0.226,0.754,0.226,0.904c0.263,0.377,0.489,0.734,0.678,1.073
		c0.188,0.302,0.357,0.593,0.509,0.876c0.15,0.282,0.226,0.518,0.226,0.706l1.356,2.091v2.09v2.656c0,0.151-0.038,0.377-0.113,0.678
		c-0.076,0.302-0.151,0.622-0.226,0.96c-0.076,0.339-0.151,0.669-0.226,0.989c-0.076,0.321-0.113,0.575-0.113,0.763l-0.678,0.565
		c-1.055,0.678-1.987,1.073-2.796,1.187c-0.811,0.113-1.743,0.169-2.797,0.169h-2.091L365.875,214.8z"/>
	<path fill="#FFFFFF" d="M387.854,211.805c0-0.489-0.038-1.3-0.113-2.43c-0.076-1.13-0.151-2.325-0.226-3.588
		c-0.076-1.261-0.151-2.458-0.226-3.588c-0.076-1.13-0.113-1.939-0.113-2.429c-0.113-0.791-0.226-1.526-0.339-2.204
		c-0.076-0.602-0.151-1.205-0.226-1.808c-0.076-0.602-0.113-1.092-0.113-1.469c0-0.301-0.048-0.706-0.141-1.214
		c-0.095-0.509-0.179-1.026-0.254-1.554c-0.113-0.602-0.226-1.224-0.339-1.864l-0.678-2.769v-4.633l-1.243-2.655
		c0-0.188-0.047-0.404-0.141-0.65c-0.094-0.245-0.179-0.48-0.254-0.706c-0.113-0.263-0.226-0.546-0.339-0.848v-2.656v-1.978
		c0-0.15,0.075-0.386,0.226-0.706c0.15-0.32,0.329-0.65,0.537-0.989c0.207-0.339,0.424-0.659,0.65-0.96
		c0.226-0.301,0.414-0.527,0.565-0.678c0.263-0.263,0.527-0.489,0.791-0.678c0.226-0.188,0.452-0.358,0.678-0.509
		c0.226-0.15,0.433-0.226,0.622-0.226l1.299-0.678c0.188,0,0.424-0.037,0.706-0.113c0.283-0.075,0.574-0.15,0.876-0.226
		c0.339-0.113,0.697-0.226,1.074-0.339c0.15,0,0.414,0.076,0.791,0.226c0.376,0.151,0.781,0.33,1.214,0.537
		c0.433,0.208,0.828,0.434,1.187,0.678c0.358,0.245,0.63,0.461,0.819,0.65l1.413,1.243c0,0.189,0.065,0.405,0.198,0.65
		c0.132,0.246,0.273,0.5,0.424,0.763c0.15,0.264,0.292,0.518,0.424,0.763c0.131,0.246,0.198,0.443,0.198,0.593v0.622v0.678
		c0,0.189-0.066,0.508-0.198,0.96c-0.132,0.452-0.274,0.942-0.424,1.469c-0.151,0.528-0.292,1.027-0.424,1.498
		c-0.132,0.471-0.198,0.782-0.198,0.932c0,0.189-0.038,0.462-0.113,0.819c-0.076,0.358-0.151,0.726-0.226,1.102
		c-0.113,0.415-0.226,0.886-0.339,1.413v6.046v6.724c0,0.189,0.037,0.461,0.113,0.819c0.075,0.358,0.15,0.754,0.226,1.187
		c0.075,0.433,0.15,0.838,0.226,1.214c0.075,0.377,0.113,0.641,0.113,0.791c0,0.189,0.104,0.472,0.311,0.848
		c0.207,0.377,0.433,0.782,0.678,1.215c0.245,0.434,0.471,0.839,0.678,1.215c0.207,0.377,0.311,0.641,0.311,0.791
		c0,0.151,0.037,0.339,0.113,0.565c0.075,0.226,0.15,0.434,0.226,0.622c0.113,0.264,0.226,0.528,0.339,0.791v0.678v1.3
		c0,0.189-0.038,0.5-0.113,0.932c-0.076,0.434-0.151,0.876-0.226,1.328c-0.113,0.528-0.226,1.112-0.339,1.752
		c-0.151,0.264-0.302,0.528-0.452,0.791c-0.151,0.226-0.292,0.452-0.423,0.678c-0.133,0.226-0.274,0.434-0.424,0.622
		c-0.189,0.151-0.396,0.339-0.622,0.565s-0.452,0.434-0.678,0.622l-0.791,0.791h-1.921h-2.712l-1.356-0.678l-0.678-0.734
		L387.854,211.805z M384.634,149.654v-1.413c0-0.414,0.113-1.026,0.339-1.836c0.226-0.81,0.339-1.421,0.339-1.836l0.848-1.525
		l0.678-0.678c0.188-0.188,0.518-0.404,0.989-0.65c0.471-0.245,0.951-0.48,1.441-0.706c0.565-0.263,1.187-0.546,1.865-0.848
		c0.301,0.151,0.583,0.283,0.847,0.396c0.527,0.264,1.017,0.396,1.469,0.396c0.263,0.151,0.527,0.302,0.791,0.452
		c0.452,0.264,0.885,0.584,1.299,0.96c0.188,0.189,0.452,0.405,0.791,0.65c0.339,0.245,0.659,0.48,0.96,0.706
		c0.376,0.264,0.753,0.546,1.13,0.848v2.204v2.204c-0.377,0.415-0.754,0.81-1.13,1.187c-0.302,0.302-0.621,0.612-0.96,0.932
		c-0.339,0.32-0.603,0.575-0.791,0.763c-0.377,0.415-0.857,0.744-1.44,0.989c-0.584,0.246-1.083,0.367-1.498,0.367h-2.881h-2.882
		l-1.525-0.565l-0.678-1.525V149.654z"/>
	<path fill="#FFFFFF" d="M410.229,213.839v-1.356c0-0.15,0.028-0.396,0.085-0.734s0.122-0.696,0.197-1.073
		c0.075-0.376,0.142-0.744,0.198-1.102c0.057-0.357,0.085-0.63,0.085-0.819v-3.56V200.9c0-0.15-0.028-0.508-0.085-1.074
		c-0.057-0.565-0.123-1.187-0.198-1.864c-0.075-0.678-0.141-1.318-0.197-1.921s-0.085-1.054-0.085-1.356l-0.452-2.712v-10.961
		c0-0.15-0.028-0.405-0.085-0.763c-0.056-0.357-0.132-0.753-0.226-1.187c-0.095-0.433-0.169-0.866-0.226-1.299
		c-0.057-0.433-0.085-0.819-0.085-1.158l-0.565-2.43v-0.565v-0.565c0.227-0.263,0.414-0.527,0.565-0.791
		c0.15-0.188,0.291-0.396,0.424-0.622c0.131-0.226,0.197-0.414,0.197-0.565c0-0.15,0.085-0.339,0.255-0.565
		c0.169-0.226,0.348-0.433,0.536-0.622c0.227-0.226,0.489-0.452,0.791-0.678l1.3-0.565h1.639h1.582l1.187,0.565l1.13,1.243
		c0.113,0.189,0.244,0.415,0.396,0.678c0.15,0.264,0.301,0.546,0.452,0.847c0.15,0.339,0.339,0.698,0.564,1.074v1.13v1.865
		c0,0.565-0.027,1.121-0.084,1.667c-0.057,0.546-0.113,1.149-0.17,1.808c-0.057,0.66-0.113,1.394-0.17,2.204
		c-0.056,0.811-0.104,1.723-0.141,2.74l-0.113,4.972h0.227c0.339-0.565,0.658-1.13,0.96-1.695c0.264-0.452,0.527-0.933,0.791-1.441
		c0.264-0.509,0.489-0.913,0.678-1.215c0.15-0.15,0.302-0.376,0.452-0.678c0.15-0.301,0.302-0.621,0.452-0.96
		c0.15-0.339,0.291-0.659,0.424-0.96c0.132-0.301,0.254-0.527,0.367-0.678c0-0.15,0.113-0.396,0.339-0.735
		c0.227-0.339,0.461-0.706,0.707-1.102c0.244-0.396,0.479-0.771,0.706-1.13c0.226-0.358,0.339-0.63,0.339-0.819
		c0.113-0.15,0.254-0.396,0.424-0.735c0.169-0.339,0.348-0.678,0.536-1.017c0.188-0.414,0.414-0.848,0.679-1.3
		c0.149-0.301,0.319-0.753,0.508-1.356c0.188-0.602,0.377-1.224,0.565-1.865c0.188-0.64,0.348-1.243,0.48-1.808
		c0.131-0.565,0.197-0.998,0.197-1.3c0-0.113,0.057-0.273,0.17-0.48s0.254-0.414,0.424-0.622c0.169-0.207,0.348-0.386,0.536-0.537
		c0.188-0.15,0.34-0.226,0.452-0.226c0.527-0.075,1.055-0.17,1.582-0.283c0.452-0.075,0.913-0.141,1.385-0.198
		c0.471-0.057,0.876-0.085,1.215-0.085h1.017h1.073l1.243,0.565c0.227,0.377,0.433,0.716,0.622,1.017
		c0.188,0.302,0.376,0.575,0.564,0.819c0.188,0.246,0.339,0.443,0.452,0.593l0.565,1.243c0,0.302,0.065,0.932,0.197,1.893
		c0.132,0.961,0.264,1.987,0.396,3.08c0.132,1.093,0.264,2.119,0.396,3.079s0.198,1.61,0.198,1.949v6.78l0.112,1.413l0.904-1.978
		c0.15-0.376,0.442-1.045,0.876-2.006c0.433-0.96,0.904-1.986,1.412-3.079c0.509-1.092,0.979-2.109,1.413-3.051
		c0.433-0.941,0.706-1.582,0.819-1.921c0-0.15,0.065-0.396,0.197-0.734c0.132-0.339,0.264-0.687,0.396-1.045
		c0.132-0.357,0.264-0.707,0.396-1.045s0.198-0.583,0.198-0.734c0.149-0.188,0.386-0.452,0.706-0.791
		c0.32-0.339,0.658-0.697,1.018-1.074c0.357-0.376,0.697-0.725,1.018-1.045c0.318-0.32,0.555-0.556,0.705-0.707l2.43-3.333
		c0.34-0.226,0.658-0.433,0.961-0.622c0.264-0.188,0.518-0.376,0.762-0.565c0.246-0.188,0.443-0.376,0.594-0.565
		c0.189-0.113,0.377-0.226,0.566-0.339c0.188-0.075,0.357-0.15,0.508-0.226c0.15-0.075,0.301-0.113,0.451-0.113h1.244h0.564
		c0.301,0.264,0.602,0.49,0.904,0.678c0.227,0.189,0.461,0.349,0.705,0.48c0.246,0.133,0.443,0.198,0.594,0.198l0.734,0.452
		c0,0.302,0.076,0.716,0.227,1.243c0.15,0.528,0.227,0.96,0.227,1.299c0,0.603,0.047,1.441,0.141,2.515
		c0.094,1.073,0.197,2.194,0.311,3.362c0.113,1.168,0.217,2.288,0.311,3.362c0.094,1.073,0.143,1.931,0.143,2.571
		c0,0.151,0.037,0.5,0.111,1.045c0.076,0.546,0.15,1.168,0.227,1.865c0.076,0.697,0.15,1.404,0.227,2.119
		c0.074,0.716,0.113,1.319,0.113,1.808c0,0.151,0.027,0.462,0.084,0.932c0.057,0.472,0.131,0.97,0.227,1.498
		c0.094,0.528,0.17,1.026,0.227,1.497c0.055,0.472,0.084,0.782,0.084,0.932c0,0.113,0.027,0.368,0.084,0.763s0.123,0.8,0.199,1.214
		c0.074,0.49,0.168,1.037,0.281,1.639c0,0.302,0.076,0.876,0.227,1.723c0.15,0.848,0.33,1.733,0.537,2.656
		c0.207,0.923,0.432,1.799,0.678,2.627c0.244,0.829,0.461,1.375,0.65,1.638c0,0.226,0.057,0.48,0.168,0.763
		c0.113,0.282,0.246,0.575,0.396,0.875c0.15,0.302,0.283,0.593,0.395,0.876c0.113,0.282,0.17,0.537,0.17,0.763l1.074,2.43
		c0.15,0.151,0.291,0.386,0.424,0.706c0.131,0.32,0.254,0.65,0.367,0.989c0.15,0.415,0.264,0.848,0.338,1.299
		c-0.111,0.264-0.207,0.509-0.281,0.735c-0.189,0.452-0.283,0.867-0.283,1.243c0,0.151-0.057,0.331-0.17,0.537
		s-0.225,0.404-0.338,0.593c-0.152,0.226-0.32,0.452-0.51,0.678l-1.186,0.622h-1.752h-1.695c-0.754-0.226-1.432-0.434-2.033-0.622
		c-0.527-0.189-1.027-0.349-1.498-0.48c-0.471-0.132-0.801-0.198-0.988-0.198c-0.303,0-0.65-0.217-1.045-0.65
		c-0.396-0.433-0.594-0.8-0.594-1.102c-0.15-0.339-0.283-0.961-0.395-1.865c-0.113-0.904-0.219-1.855-0.313-2.854
		c-0.094-0.998-0.168-1.93-0.225-2.796c-0.057-0.866-0.086-1.431-0.086-1.695c0-0.226-0.02-0.583-0.057-1.073
		c-0.037-0.489-0.084-1.007-0.141-1.554c-0.057-0.545-0.104-1.063-0.141-1.554c-0.039-0.489-0.057-0.847-0.057-1.073l-0.453-1.582
		c0-0.188-0.02-0.424-0.057-0.707c-0.037-0.282-0.094-0.574-0.168-0.875c-0.076-0.339-0.152-0.697-0.227-1.074
		c0-0.113-0.029-0.339-0.084-0.678c-0.057-0.339-0.123-0.707-0.199-1.102s-0.141-0.771-0.197-1.13
		c-0.057-0.357-0.084-0.593-0.084-0.707l-0.113-2.542c0-0.113-0.02-0.508-0.057-1.187c-0.039-0.678-0.076-1.421-0.113-2.231
		c-0.037-0.81-0.076-1.563-0.113-2.26c-0.037-0.697-0.057-1.12-0.057-1.271c0-0.15,0-0.452,0-0.904s-0.02-0.895-0.057-1.328
		c-0.037-0.433-0.104-0.81-0.197-1.13c-0.094-0.319-0.254-0.46-0.48-0.423l-1.018,1.243c-0.377,0.791-0.715,1.526-1.016,2.204
		c-0.303,0.565-0.576,1.111-0.82,1.639c-0.244,0.528-0.443,0.867-0.592,1.017c0,0.151-0.066,0.358-0.199,0.622
		c-0.133,0.264-0.264,0.546-0.395,0.847c-0.133,0.302-0.264,0.603-0.396,0.904c-0.133,0.302-0.197,0.565-0.197,0.791
		c0,0.189-0.104,0.565-0.311,1.13s-0.443,1.178-0.707,1.836c-0.264,0.659-0.5,1.281-0.706,1.864
		c-0.208,0.584-0.311,0.97-0.311,1.158c0,0.151-0.085,0.405-0.255,0.763c-0.169,0.358-0.358,0.744-0.564,1.158
		c-0.208,0.415-0.396,0.81-0.565,1.187c-0.169,0.377-0.254,0.659-0.254,0.847c0,0.189-0.057,0.49-0.17,0.904
		c-0.112,0.415-0.235,0.875-0.367,1.384c-0.132,0.508-0.254,0.999-0.367,1.469c-0.113,0.472-0.169,0.839-0.169,1.102l-0.565,2.881
		l-0.452,1.865l-0.791,2.43c-0.076,0.113-0.179,0.302-0.311,0.565c-0.133,0.264-0.33,0.537-0.594,0.819
		c-0.264,0.282-0.593,0.528-0.988,0.734c-0.396,0.208-0.896,0.311-1.497,0.311h-2.204c-0.188,0-0.424-0.065-0.706-0.198
		c-0.282-0.131-0.574-0.301-0.876-0.508c-0.302-0.207-0.584-0.414-0.848-0.622c-0.264-0.207-0.451-0.386-0.564-0.537
		c-0.189,0-0.358-0.094-0.509-0.283c-0.15-0.188-0.282-0.414-0.396-0.678c-0.113-0.263-0.197-0.527-0.254-0.791
		c-0.057-0.263-0.085-0.489-0.085-0.678c0-0.339-0.01-0.866-0.028-1.582c-0.02-0.715-0.048-1.525-0.085-2.43
		c-0.038-0.904-0.066-1.854-0.085-2.853c-0.019-0.998-0.047-1.949-0.084-2.854c-0.038-0.904-0.066-1.695-0.085-2.373
		c-0.02-0.678-0.028-1.167-0.028-1.469c0-0.15-0.028-0.396-0.085-0.735c-0.057-0.339-0.112-0.706-0.169-1.102
		s-0.104-0.771-0.142-1.13c-0.038-0.358-0.057-0.63-0.057-0.819v-3.051c0-0.113,0.019-0.48,0.057-1.102
		c0.037-0.622,0.057-1.29,0.057-2.006c0-0.678-0.01-1.29-0.028-1.836c-0.02-0.545-0.123-0.819-0.311-0.819
		c-0.076,0-0.208,0.142-0.396,0.424c-0.189,0.283-0.509,0.801-0.961,1.554c-0.49,0.716-0.941,1.413-1.355,2.091
		c-0.377,0.603-0.763,1.224-1.159,1.864c-0.395,0.641-0.726,1.168-0.988,1.582c0,0.189-0.123,0.49-0.367,0.904
		c-0.245,0.415-0.519,0.875-0.819,1.384c-0.302,0.508-0.603,1.017-0.904,1.525s-0.527,0.932-0.678,1.271l-1.864,3.051l-1.018,1.695
		l-0.678,2.769v3.842c0,0.189-0.038,0.424-0.113,0.707c-0.075,0.282-0.15,0.556-0.226,0.819c-0.113,0.302-0.208,0.603-0.282,0.904
		c0,0.189,0.027,0.443,0.084,0.763c0.057,0.32,0.132,0.65,0.227,0.989c0.094,0.339,0.169,0.669,0.226,0.989
		c0.057,0.32,0.085,0.556,0.085,0.706l-0.226,0.678c-0.076,0.189-0.161,0.377-0.255,0.565c-0.095,0.189-0.217,0.358-0.367,0.509
		c-0.188,0.188-0.415,0.433-0.678,0.734c-0.264,0.302-0.537,0.613-0.819,0.932c-0.282,0.32-0.547,0.622-0.791,0.904
		c-0.245,0.282-0.443,0.499-0.594,0.649l-1.299,0.622h-1.47h-1.751l-1.752-0.622l-1.13-1.243V213.839z"/>
	<path fill="#FFFFFF" d="M477.238,191.408v-2.09c0.113-0.753,0.246-1.469,0.396-2.147c0.113-0.565,0.254-1.139,0.424-1.723
		c0.17-0.583,0.348-1.064,0.537-1.441c0-0.188,0.037-0.396,0.113-0.621c0.074-0.226,0.148-0.433,0.225-0.622
		c0.113-0.226,0.246-0.471,0.396-0.735c0.15-0.339,0.48-1.026,0.988-2.062c0.508-1.036,1.055-2.147,1.639-3.333
		s1.131-2.297,1.639-3.333c0.508-1.036,0.855-1.704,1.045-2.006l0.678-0.678l2.77-2.09l1.299-1.3c0.34,0,0.895-0.037,1.666-0.113
		c0.773-0.075,1.582-0.15,2.43-0.226c0.848-0.075,1.648-0.15,2.402-0.226c0.752-0.075,1.279-0.113,1.582-0.113
		c0.15,0,0.385-0.037,0.705-0.113c0.32-0.075,0.66-0.15,1.018-0.226c0.357-0.075,0.697-0.15,1.018-0.226
		c0.32-0.075,0.574-0.113,0.762-0.113h1.922h2.09c0.377,0.113,0.734,0.226,1.074,0.339c0.301,0.076,0.594,0.151,0.875,0.226
		c0.283,0.076,0.518,0.113,0.707,0.113l1.412,0.678c0.189,0,0.396,0.066,0.621,0.198c0.227,0.132,0.434,0.292,0.623,0.48
		c0.225,0.189,0.471,0.396,0.734,0.622c0.15,0.189,0.424,0.461,0.818,0.819c0.396,0.358,0.811,0.754,1.244,1.187
		c0.432,0.433,0.838,0.838,1.215,1.214c0.375,0.377,0.658,0.641,0.848,0.791c0.262,0.415,0.508,0.791,0.734,1.13
		c0.451,0.678,0.865,1.187,1.242,1.525c0,0.189,0.064,0.396,0.197,0.622s0.291,0.452,0.48,0.678
		c0.188,0.264,0.434,0.528,0.734,0.791c0.15,0.189,0.348,0.472,0.594,0.848c0.244,0.377,0.461,0.782,0.65,1.215
		c0.188,0.434,0.357,0.839,0.508,1.215c0.15,0.377,0.227,0.641,0.227,0.791c0.113,0.377,0.225,0.734,0.338,1.073
		c0.076,0.302,0.15,0.593,0.227,0.876c0.074,0.283,0.113,0.518,0.113,0.706c0,0.339,0.037,0.857,0.113,1.554
		c0.074,0.697,0.15,1.394,0.225,2.09c0.076,0.697,0.15,1.347,0.227,1.949c0.076,0.603,0.113,0.98,0.113,1.13v4.068v3.333
		c0,0.189-0.037,0.434-0.113,0.734c-0.076,0.302-0.18,0.613-0.311,0.933c-0.133,0.32-0.283,0.641-0.451,0.96
		c-0.17,0.32-0.33,0.556-0.48,0.706c0,0.189-0.143,0.472-0.424,0.848c-0.283,0.377-0.613,0.782-0.988,1.215
		c-0.377,0.433-0.754,0.838-1.131,1.215c-0.377,0.377-0.66,0.641-0.848,0.791c-0.34,0.339-0.818,0.819-1.441,1.44
		c-0.621,0.622-1.242,1.243-1.863,1.865c-0.623,0.622-1.207,1.187-1.752,1.695c-0.547,0.509-0.895,0.857-1.045,1.045l-2.656,1.356
		c-0.189,0-0.508,0.141-0.961,0.424c-0.451,0.283-0.932,0.584-1.439,0.904c-0.51,0.321-0.99,0.622-1.441,0.904
		c-0.451,0.282-0.754,0.424-0.904,0.424c-0.113,0-0.254,0.028-0.424,0.084c-0.17,0.057-0.461,0.122-0.875,0.198
		c-0.416,0.075-1.008,0.142-1.781,0.198c-0.771,0.057-1.799,0.085-3.078,0.085c-0.453,0-0.914,0.019-1.385,0.057
		c-0.471,0.037-0.932,0.056-1.385,0.056c-0.715,0-1.393-0.038-2.033-0.113c-0.641-0.076-1.281-0.264-1.922-0.565
		c-0.641-0.377-1.225-0.735-1.75-1.074c-0.453-0.301-0.896-0.593-1.328-0.875c-0.434-0.283-0.744-0.518-0.934-0.707
		c-0.188,0-0.404-0.113-0.648-0.339c-0.246-0.226-0.5-0.461-0.764-0.707c-0.264-0.244-0.518-0.48-0.762-0.706
		c-0.246-0.226-0.443-0.339-0.594-0.339l-0.621-0.565c-0.189-0.188-0.434-0.461-0.734-0.819c-0.303-0.358-0.604-0.725-0.904-1.102
		c-0.377-0.414-0.754-0.884-1.131-1.413l-0.678-1.412c-0.15-0.339-0.338-0.819-0.564-1.441s-0.443-1.243-0.65-1.865
		s-0.387-1.187-0.537-1.695c-0.15-0.509-0.225-0.838-0.225-0.989c0-0.188-0.039-0.546-0.113-1.074
		c-0.076-0.527-0.152-1.11-0.227-1.751c-0.076-0.64-0.15-1.271-0.227-1.893s-0.113-1.102-0.113-1.441V191.408z M485.996,195.476
		c0.189,0.302,0.434,0.791,0.734,1.469c0.303,0.678,0.623,1.404,0.961,2.175c0.34,0.772,0.658,1.507,0.961,2.204
		c0.301,0.697,0.545,1.215,0.734,1.554c0.15,0.189,0.387,0.434,0.707,0.734c0.318,0.302,0.658,0.613,1.016,0.933
		c0.357,0.32,0.688,0.641,0.99,0.96c0.301,0.32,0.545,0.556,0.734,0.706c0.602,0.264,1.186,0.49,1.752,0.678
		c0.451,0.189,0.902,0.339,1.355,0.452c0.451,0.113,0.771,0.17,0.961,0.17h0.564h0.678c0.34,0,0.855-0.028,1.555-0.085
		c0.695-0.057,1.383-0.122,2.061-0.198c0.791-0.075,1.639-0.169,2.543-0.283c0.527-0.263,0.998-0.527,1.412-0.791
		c0.377-0.226,0.744-0.452,1.104-0.678c0.357-0.226,0.629-0.433,0.818-0.622l0.734-0.734c0.188-0.15,0.424-0.396,0.707-0.735
		c0.281-0.339,0.574-0.715,0.875-1.13c0.34-0.414,0.697-0.904,1.074-1.469c0.262-0.376,0.488-0.735,0.678-1.074
		c0.188-0.301,0.348-0.593,0.48-0.876c0.131-0.282,0.197-0.517,0.197-0.706c0-0.188,0.037-0.396,0.113-0.622
		c0.074-0.226,0.15-0.433,0.227-0.622c0.111-0.226,0.244-0.47,0.395-0.734c0-0.15,0.037-0.499,0.113-1.045
		c0.074-0.545,0.15-1.13,0.227-1.751c0.074-0.622,0.15-1.243,0.225-1.864c0.076-0.622,0.113-1.102,0.113-1.441v-0.734v-0.565
		c0-0.339-0.113-0.8-0.338-1.384c-0.227-0.583-0.34-1.045-0.34-1.384l-0.734-1.299l-1.355-3.333c-0.264-0.376-0.51-0.753-0.734-1.13
		c-0.189-0.301-0.396-0.603-0.623-0.904c-0.225-0.301-0.432-0.545-0.621-0.734l-2.09-1.978c-0.189-0.188-0.424-0.396-0.707-0.622
		c-0.281-0.226-0.574-0.433-0.875-0.622c-0.34-0.226-0.697-0.471-1.074-0.734h-0.678h-1.412l-1.244,0.565l-0.734,0.734l-1.355,2.656
		l-0.734,0.678l-1.242,0.678c-0.189,0-0.537,0.076-1.047,0.226c-0.508,0.151-1.064,0.311-1.666,0.48
		c-0.604,0.17-1.168,0.331-1.695,0.48c-0.527,0.151-0.867,0.226-1.018,0.226l-1.412,0.678l-1.412,1.3
		c-0.113,0.264-0.207,0.528-0.283,0.791c-0.188,0.49-0.281,0.923-0.281,1.299c0,0.302-0.066,0.707-0.199,1.215
		c-0.131,0.509-0.291,1.027-0.479,1.554c-0.189,0.603-0.416,1.225-0.68,1.865c0,0.189-0.037,0.461-0.111,0.819
		c-0.076,0.358-0.162,0.754-0.256,1.187c-0.094,0.433-0.178,0.838-0.254,1.215c-0.076,0.377-0.113,0.641-0.113,0.791v0.734V195.476z
		"/>
	<path fill="#FFFFFF" d="M531.818,210.392v-1.243c0-0.15,0.076-0.329,0.227-0.537c0.15-0.207,0.311-0.424,0.48-0.65
		s0.33-0.452,0.48-0.678s0.227-0.433,0.227-0.622l0.451-7.119l-0.451-6.385l0.338-3.39l-0.338-10.17c0-0.263-0.076-0.81-0.227-1.639
		c-0.15-0.828-0.311-1.704-0.48-2.627c-0.17-0.922-0.33-1.808-0.48-2.655c-0.15-0.848-0.227-1.421-0.227-1.724v-0.621
		c0-0.15,0.037-0.442,0.113-0.876c0.076-0.433,0.16-0.885,0.254-1.356c0.094-0.471,0.18-0.913,0.256-1.328
		c0.074-0.414,0.113-0.715,0.113-0.904l1.807-1.187l1.301-0.678h1.412h1.129c0.604,0.264,1.148,0.508,1.639,0.734
		c0.414,0.189,0.838,0.396,1.271,0.622s0.744,0.396,0.934,0.508l0.451,0.678l0.678,1.243v0.622l-0.678,2.542
		c0,0.189-0.029,0.49-0.084,0.904c-0.057,0.415-0.113,0.867-0.17,1.356c-0.057,0.49-0.105,0.98-0.143,1.469
		c-0.037,0.49-0.055,0.904-0.055,1.243v0.565v0.678l0.225,1.639h0.678l1.639-2.882c0-0.15,0.123-0.376,0.367-0.678
		c0.246-0.301,0.527-0.602,0.848-0.904c0.32-0.301,0.604-0.602,0.848-0.904c0.244-0.301,0.367-0.527,0.367-0.678l1.244-1.808
		c0.262-0.339,0.527-0.658,0.791-0.96c0.225-0.263,0.451-0.499,0.678-0.706c0.227-0.207,0.432-0.311,0.621-0.311
		c0.074-0.15,0.254-0.357,0.537-0.621c0.281-0.263,0.574-0.527,0.875-0.791c0.301-0.263,0.604-0.499,0.904-0.707
		c0.301-0.207,0.527-0.311,0.678-0.311h0.734c0.15,0,0.33,0.066,0.537,0.198c0.207,0.132,0.404,0.273,0.594,0.424
		c0.227,0.188,0.451,0.396,0.678,0.621c0.15,0.151,0.367,0.377,0.65,0.678c0.281,0.302,0.582,0.603,0.904,0.904
		c0.318,0.302,0.621,0.603,0.902,0.904c0.283,0.302,0.48,0.528,0.594,0.678c0.377,0.339,0.715,0.66,1.018,0.961
		c0.264,0.264,0.498,0.537,0.705,0.819c0.207,0.283,0.313,0.5,0.313,0.65l0.508,1.243c0.15,0.339,0.377,0.829,0.678,1.469
		c0.301,0.641,0.584,1.3,0.848,1.978c0.264,0.678,0.498,1.3,0.707,1.865c0.205,0.565,0.311,0.923,0.311,1.074
		c0,0.151,0.064,0.433,0.197,0.847c0.131,0.415,0.283,0.876,0.451,1.384c0.17,0.509,0.33,1.008,0.48,1.498
		c0.15,0.49,0.227,0.904,0.227,1.243c0,0.113,0.047,0.405,0.141,0.876c0.094,0.471,0.199,1.037,0.311,1.695
		c0.113,0.66,0.256,1.366,0.424,2.119c0.17,0.754,0.313,1.46,0.424,2.119c0.113,0.66,0.217,1.225,0.311,1.695
		c0.094,0.472,0.143,0.763,0.143,0.876c0,0.302,0.113,0.726,0.338,1.271c0.227,0.546,0.34,0.97,0.34,1.271l0.734,1.865
		c0,0.151,0.027,0.433,0.084,0.847c0.057,0.415,0.123,0.857,0.199,1.328c0.074,0.471,0.141,0.914,0.197,1.328
		c0.057,0.415,0.084,0.697,0.084,0.848c0,0.189,0.037,0.387,0.113,0.593c0.076,0.208,0.15,0.405,0.227,0.593
		c0.113,0.226,0.227,0.452,0.338,0.678c0,0.189,0.123,0.452,0.367,0.791c0.246,0.339,0.527,0.707,0.848,1.102
		s0.604,0.763,0.848,1.102c0.246,0.339,0.367,0.584,0.367,0.734l0.68,1.243v1.413v0.565c0,0.151-0.066,0.358-0.199,0.622
		c-0.133,0.264-0.273,0.546-0.424,0.848c-0.188,0.339-0.395,0.697-0.621,1.073c-0.338,0.263-0.678,0.471-1.018,0.622
		c-0.301,0.15-0.584,0.283-0.848,0.396c-0.264,0.113-0.488,0.169-0.678,0.169l-1.977,0.678h-0.564c-0.113,0-0.283-0.038-0.51-0.113
		c-0.227-0.076-0.434-0.151-0.621-0.226c-0.227-0.113-0.471-0.226-0.734-0.339c-0.264-0.226-0.508-0.415-0.734-0.565
		c-0.189-0.151-0.396-0.292-0.621-0.424c-0.227-0.132-0.434-0.198-0.623-0.198l-1.242-1.243c-0.264-0.603-0.471-1.167-0.621-1.695
		c-0.152-0.452-0.283-0.885-0.396-1.299c-0.113-0.414-0.17-0.697-0.17-0.848c0-0.188-0.037-0.404-0.111-0.65
		c-0.076-0.245-0.152-0.499-0.227-0.763c-0.113-0.301-0.227-0.602-0.34-0.904v-2.656l-0.678-2.542c0-0.113-0.027-0.442-0.084-0.989
		c-0.057-0.545-0.113-1.13-0.17-1.751s-0.113-1.205-0.17-1.751c-0.057-0.546-0.084-0.895-0.084-1.045
		c-0.113-0.64-0.246-1.243-0.396-1.808c-0.113-0.489-0.234-0.989-0.367-1.497c-0.133-0.509-0.291-0.913-0.48-1.215l-0.678-1.865
		c0-0.15-0.027-0.461-0.084-0.932c-0.057-0.471-0.133-0.979-0.227-1.525c-0.094-0.546-0.17-1.054-0.227-1.526
		c-0.057-0.47-0.084-0.8-0.084-0.989c0-0.15-0.066-0.433-0.197-0.847c-0.133-0.414-0.293-0.856-0.48-1.328
		c-0.189-0.47-0.387-0.913-0.594-1.328c-0.207-0.414-0.387-0.715-0.537-0.904l-1.299-1.243h-0.678l-0.734,0.734
		c-0.189,0.189-0.387,0.387-0.594,0.593c-0.207,0.208-0.35,0.405-0.424,0.593l-0.678,0.678c-0.189,0.189-0.35,0.377-0.48,0.565
		c-0.133,0.189-0.197,0.358-0.197,0.508l-2.316,1.413c-0.641,1.846-1.197,3.588-1.668,5.227s-0.857,3.4-1.158,5.283v3.842
		c0,0.565,0.02,1.554,0.057,2.966s0.057,2.891,0.057,4.435c0,1.093-0.02,2.128-0.057,3.108s-0.057,1.676-0.057,2.09
		c-0.188,0.151-0.49,0.424-0.904,0.819s-0.848,0.819-1.299,1.271c-0.451,0.452-0.875,0.885-1.271,1.3
		c-0.395,0.414-0.65,0.715-0.762,0.904l-1.414,0.678h-1.129h-1.412c-0.189,0-0.377-0.038-0.566-0.113
		c-0.188-0.076-0.377-0.151-0.564-0.226c-0.189-0.113-0.395-0.226-0.621-0.339c-0.264-0.339-0.49-0.678-0.678-1.017
		c-0.189-0.264-0.35-0.527-0.48-0.791c-0.133-0.263-0.197-0.47-0.197-0.621c0-0.188-0.049-0.386-0.143-0.593
		s-0.18-0.405-0.254-0.593c-0.113-0.226-0.227-0.452-0.34-0.678V210.392z"/>
	<path fill="#FFFFFF" d="M584.252,163.044c-0.527,0-1.016-0.037-1.469-0.113c-0.414-0.075-0.811-0.16-1.186-0.254
		c-0.377-0.093-0.678-0.235-0.904-0.424l-0.961-0.791l0.113-2.09l3.729-3.842c0.34-0.753,0.678-1.469,1.018-2.147
		c0.301-0.565,0.602-1.12,0.904-1.667c0.301-0.546,0.545-0.97,0.734-1.271c0.301-0.489,0.451-1.262,0.451-2.316
		c0-0.565-0.074-1.064-0.225-1.498c-0.152-0.433-0.227-1.045-0.227-1.836c0-0.414-0.057-0.828-0.17-1.243
		c-0.113-0.414-0.377-0.734-0.791-0.96c-1.018-0.602-1.809-1.459-2.373-2.571c-0.564-1.111-0.848-2.307-0.848-3.588l1.412-3.107
		c0.189-0.301,0.424-0.612,0.707-0.933c0.283-0.319,0.574-0.63,0.875-0.932c0.34-0.301,0.697-0.602,1.074-0.904l2.543-0.226
		l3.785,1.13c0.264,0.264,0.611,0.565,1.045,0.904c0.434,0.339,0.857,0.659,1.271,0.96c0.49,0.377,0.998,0.772,1.525,1.187
		c0.189,0.829,0.357,1.638,0.51,2.429c0.148,0.678,0.281,1.375,0.395,2.091c0.113,0.716,0.207,1.281,0.283,1.695
		c0.037,0.226,0.074,0.472,0.113,0.735c0.037,0.226,0.064,0.471,0.084,0.734c0.018,0.264,0.027,0.546,0.027,0.848
		c0,0.452-0.104,0.904-0.311,1.356c-0.207,0.452-0.424,0.772-0.648,0.96c-0.189,0.264-0.303,0.659-0.34,1.187
		c-0.037,0.528-0.076,1.083-0.113,1.667c-0.037,0.584-0.094,1.149-0.17,1.695c-0.074,0.546-0.207,0.952-0.395,1.215
		c-0.227,0.302-0.574,0.829-1.045,1.582c-0.473,0.754-0.98,1.535-1.525,2.345c-0.547,0.811-1.055,1.582-1.525,2.316
		c-0.473,0.734-0.801,1.215-0.99,1.441l-2.541,1.808c-0.49,0.829-1.01,1.44-1.555,1.836
		C585.994,162.846,585.232,163.044,584.252,163.044z"/>
	<path fill="#FFFFFF" d="M604.988,212.822v-1.243l0.678-1.413c0.264-0.113,0.508-0.226,0.734-0.339
		c0.188-0.075,0.396-0.15,0.621-0.226c0.227-0.075,0.434-0.113,0.623-0.113c0.148,0,0.414-0.037,0.791-0.113
		c0.375-0.075,0.781-0.16,1.215-0.254c0.432-0.093,0.838-0.178,1.215-0.254c0.375-0.075,0.658-0.113,0.846-0.113h4.012
		c0.189,0,0.443-0.028,0.764-0.084c0.32-0.057,0.65-0.122,0.988-0.198c0.34-0.075,0.658-0.142,0.961-0.198
		c0.301-0.057,0.527-0.085,0.678-0.085s0.602-0.113,1.355-0.339s1.572-0.489,2.459-0.791c0.885-0.301,1.742-0.602,2.57-0.904
		c0.828-0.301,1.393-0.545,1.695-0.734c0.15,0,0.385-0.065,0.705-0.198c0.32-0.131,0.65-0.282,0.99-0.452
		c0.338-0.169,0.668-0.319,0.988-0.452c0.32-0.132,0.555-0.198,0.707-0.198c0.148,0,0.348-0.065,0.592-0.198
		c0.246-0.132,0.5-0.283,0.764-0.452s0.518-0.329,0.762-0.48c0.246-0.15,0.461-0.226,0.65-0.226c0.188-0.188,0.461-0.396,0.82-0.622
		c0.357-0.226,0.725-0.433,1.102-0.622c0.414-0.226,0.885-0.471,1.412-0.734l1.299-1.413v-0.678v-0.678
		c-0.15,0-0.387-0.065-0.705-0.198c-0.32-0.132-0.65-0.283-0.99-0.452c-0.338-0.169-0.668-0.32-0.988-0.452
		c-0.32-0.131-0.557-0.198-0.705-0.198c-0.152,0-0.416-0.037-0.791-0.113c-0.377-0.075-0.773-0.15-1.188-0.226
		c-0.414-0.075-0.818-0.15-1.215-0.226c-0.395-0.075-0.67-0.113-0.818-0.113c-0.68,0-1.848-0.037-3.504-0.113
		c-1.658-0.075-3.418-0.15-5.283-0.226c-1.863-0.075-3.615-0.15-5.254-0.226c-1.639-0.075-2.797-0.113-3.475-0.113
		c-0.34,0-0.791-0.113-1.357-0.339c-0.564-0.226-0.998-0.339-1.299-0.339l-1.355-0.621l-1.412-1.356
		c-0.113-0.263-0.227-0.527-0.34-0.791c-0.076-0.188-0.15-0.396-0.227-0.621c-0.076-0.226-0.113-0.414-0.113-0.565v-2.09v-1.413
		l0.68-1.243c0.188-0.188,0.395-0.46,0.621-0.819c0.227-0.358,0.451-0.725,0.678-1.102c0.264-0.414,0.527-0.885,0.791-1.413
		c0.15-0.188,0.461-0.545,0.932-1.073c0.471-0.527,0.98-1.083,1.525-1.667c0.547-0.583,1.084-1.139,1.611-1.667
		c0.527-0.527,0.941-0.885,1.242-1.074l1.412-0.678c0.189,0,0.396-0.056,0.623-0.169c0.225-0.113,0.451-0.263,0.678-0.452
		c0.264-0.188,0.527-0.414,0.791-0.678c0.15-0.15,0.375-0.376,0.678-0.678c0.301-0.301,0.621-0.602,0.961-0.904
		c0.338-0.301,0.658-0.555,0.961-0.763c0.301-0.207,0.545-0.311,0.734-0.311l2.654-2.769c0.34-0.301,0.895-0.791,1.668-1.469
		c0.771-0.678,1.572-1.403,2.4-2.175c0.828-0.771,1.619-1.506,2.373-2.204c0.754-0.697,1.299-1.215,1.639-1.554l1.412-0.565
		c0.15-0.188,0.396-0.358,0.734-0.509c0.34-0.15,0.715-0.301,1.131-0.452c0.414-0.15,0.904-0.301,1.469-0.452h1.299h0.68
		c0.375,0.377,0.752,0.734,1.129,1.073c0.301,0.302,0.594,0.593,0.875,0.876c0.283,0.283,0.5,0.518,0.65,0.706l0.734,1.413v2.656
		v2.09l-1.072,1.074c-0.303,0.302-0.604,0.593-0.904,0.875c-0.303,0.283-0.547,0.519-0.734,0.707l-1.357,0.678l-3.389,1.3
		l-1.244,0.678l-2.09,1.413l-3.334,1.978l-2.09,1.356l-2.656,1.3c-0.189,0.189-0.471,0.461-0.848,0.819
		c-0.377,0.358-0.781,0.754-1.215,1.187c-0.434,0.433-0.838,0.838-1.215,1.215c-0.377,0.377-0.641,0.641-0.791,0.791l-0.678,1.412
		l0.678,0.678c0.527,0,1.365,0.028,2.516,0.085c1.148,0.056,2.354,0.123,3.615,0.198c1.262,0.076,2.457,0.141,3.588,0.198
		c1.131,0.056,1.939,0.084,2.43,0.084c0.338,0,0.961,0.076,1.865,0.226c0.902,0.151,1.883,0.339,2.938,0.565s2.07,0.462,3.051,0.707
		c0.979,0.245,1.713,0.443,2.203,0.593c0.34,0,0.82,0.104,1.441,0.311c0.621,0.208,1.252,0.434,1.893,0.678
		c0.641,0.245,1.223,0.471,1.752,0.678c0.527,0.208,0.885,0.311,1.072,0.311c0.377,0.377,0.734,0.754,1.074,1.13
		c0.301,0.302,0.594,0.603,0.875,0.904c0.283,0.302,0.518,0.546,0.707,0.735l0.678,1.299v0.678v0.678
		c0,0.189-0.104,0.472-0.311,0.848c-0.207,0.377-0.434,0.782-0.678,1.215c-0.246,0.433-0.471,0.838-0.678,1.215
		c-0.207,0.377-0.311,0.641-0.311,0.791c-0.189,0.339-0.537,0.772-1.047,1.299c-0.508,0.528-1.064,1.055-1.666,1.582
		c-0.604,0.528-1.168,1.027-1.695,1.497c-0.527,0.472-0.867,0.782-1.016,0.933c-0.189,0-0.727,0.217-1.611,0.649
		c-0.885,0.434-1.893,0.952-3.023,1.554c-1.129,0.603-2.26,1.214-3.389,1.836c-1.131,0.622-2.035,1.102-2.713,1.441
		c-0.189,0-0.508,0.066-0.961,0.198c-0.451,0.132-0.932,0.302-1.439,0.508c-0.51,0.208-0.99,0.424-1.441,0.65
		s-0.754,0.415-0.904,0.565c-0.264,0.151-0.527,0.283-0.791,0.396c-0.227,0.076-0.451,0.151-0.678,0.226
		c-0.227,0.076-0.434,0.113-0.621,0.113l-2.656,0.678c-0.189,0-0.471,0.066-0.848,0.198c-0.377,0.132-0.781,0.273-1.215,0.424
		c-0.434,0.15-0.838,0.292-1.215,0.424c-0.377,0.131-0.641,0.198-0.791,0.198l-1.242,0.734c-0.189,0-0.547,0.037-1.074,0.113
		c-0.527,0.075-1.082,0.15-1.666,0.226c-0.584,0.075-1.141,0.15-1.668,0.226c-0.527,0.075-0.885,0.113-1.072,0.113h-2.092h-1.92
		c-0.264-0.151-0.527-0.302-0.791-0.452c-0.227-0.151-0.453-0.302-0.678-0.452c-0.227-0.151-0.434-0.32-0.623-0.508
		c-0.188-0.151-0.395-0.339-0.621-0.565c-0.225-0.226-0.434-0.434-0.621-0.622l-0.734-0.734V212.822z"/>
	<path fill="#FFFFFF" d="M686.406,204.403v-1.978c0.264-0.527,0.527-1.017,0.791-1.469c0.189-0.414,0.396-0.791,0.621-1.13
		c0.227-0.339,0.414-0.602,0.566-0.791l1.412-1.356v-1.413v-1.243c0-0.339-0.076-0.895-0.227-1.667
		c-0.15-0.771-0.311-1.572-0.48-2.401c-0.168-0.828-0.33-1.629-0.48-2.401c-0.15-0.771-0.225-1.328-0.225-1.667l-0.566-1.978v-0.678
		v-1.356c0-0.226,0.01-0.659,0.029-1.299c0.018-0.64,0.057-1.393,0.113-2.26c0.057-0.866,0.104-1.789,0.141-2.769
		c0.037-0.979,0.084-1.911,0.141-2.797c0.057-0.884,0.094-1.657,0.113-2.316c0.02-0.659,0.029-1.102,0.029-1.328v-5.311v-4.746
		c0-0.15-0.066-0.414-0.199-0.791c-0.131-0.376-0.273-0.782-0.422-1.215c-0.152-0.433-0.293-0.838-0.424-1.215
		c-0.133-0.376-0.199-0.659-0.199-0.848c0-0.15-0.047-0.367-0.141-0.65c-0.094-0.282-0.18-0.574-0.254-0.875l-0.34-1.13v-1.243
		v-0.678c0.15-0.263,0.301-0.527,0.453-0.791c0.15-0.226,0.301-0.452,0.451-0.678s0.32-0.433,0.508-0.622
		c0.303-0.301,0.613-0.509,0.934-0.622c0.318-0.113,0.668-0.339,1.045-0.678c0.188,0,0.395-0.037,0.621-0.113
		c0.227-0.075,0.453-0.15,0.678-0.226c0.264-0.113,0.527-0.226,0.791-0.339h1.922h1.412c0.15,0,0.48,0.141,0.988,0.424
		c0.51,0.282,1.055,0.584,1.639,0.904c0.584,0.32,1.131,0.622,1.639,0.904c0.51,0.282,0.857,0.423,1.045,0.423
		c0.264,0.113,0.527,0.226,0.791,0.339c0.227,0.076,0.453,0.151,0.68,0.226c0.225,0.076,0.432,0.113,0.621,0.113
		c0.15,0,0.375,0.038,0.678,0.113c0.301,0.076,0.621,0.161,0.961,0.254c0.338,0.095,0.658,0.179,0.959,0.254
		c0.303,0.076,0.547,0.113,0.736,0.113h1.299c0.527,0,1.279,0.038,2.26,0.113c0.979,0.076,1.979,0.151,2.994,0.226
		c1.018,0.076,1.93,0.151,2.74,0.226c0.811,0.076,1.309,0.113,1.498,0.113l2.656,0.565c0.148,0,0.516,0.038,1.102,0.113
		c0.582,0.076,1.215,0.151,1.893,0.226c0.678,0.076,1.299,0.151,1.863,0.226c0.566,0.076,0.941,0.113,1.131,0.113
		c0.188,0,0.471,0.076,0.848,0.226c0.375,0.151,0.752,0.321,1.129,0.509c0.414,0.189,0.885,0.415,1.414,0.678
		c0.15,0,0.348,0.142,0.592,0.424c0.246,0.283,0.5,0.613,0.764,0.989c0.264,0.377,0.508,0.754,0.734,1.13
		c0.227,0.377,0.414,0.641,0.564,0.791c0.113,0.264,0.227,0.508,0.34,0.734c0.074,0.189,0.15,0.396,0.227,0.622
		c0.074,0.226,0.111,0.433,0.111,0.622v0.678l-0.678,1.978c0,0.189-0.066,0.434-0.197,0.734c-0.133,0.302-0.293,0.603-0.48,0.904
		c-0.189,0.377-0.395,0.754-0.621,1.13c-0.189,0.151-0.471,0.443-0.848,0.876c-0.377,0.433-0.791,0.904-1.242,1.413
		c-0.453,0.508-0.924,0.989-1.414,1.44c-0.488,0.452-0.902,0.754-1.242,0.904c-0.527,0.415-0.998,0.791-1.412,1.13
		c-0.377,0.302-0.744,0.593-1.102,0.876c-0.359,0.282-0.633,0.5-0.82,0.649c-0.189,0-0.395,0.113-0.621,0.339
		c-0.227,0.226-0.461,0.461-0.707,0.706c-0.244,0.246-0.49,0.48-0.734,0.706c-0.244,0.226-0.443,0.339-0.592,0.339
		c0.338,0,0.883,0.066,1.637,0.198c0.754,0.132,1.555,0.282,2.402,0.452c0.848,0.17,1.646,0.321,2.4,0.452
		c0.754,0.132,1.301,0.198,1.639,0.198c0.34,0,0.885,0.076,1.639,0.226c0.754,0.151,1.545,0.33,2.373,0.537
		c0.828,0.208,1.619,0.434,2.373,0.678c0.754,0.245,1.301,0.461,1.639,0.65c0.188,0,0.461,0.066,0.82,0.198
		c0.357,0.132,0.725,0.273,1.102,0.423c0.414,0.189,0.885,0.396,1.412,0.622l2.09,0.735c0.264,0,0.547,0.113,0.848,0.339
		c0.15,0.113,0.283,0.226,0.396,0.339c0.375,0.528,0.752,0.999,1.129,1.413c0.301,0.377,0.613,0.744,0.934,1.102
		c0.318,0.358,0.572,0.631,0.762,0.819l1.244,1.978c0.188,0.189,0.357,0.434,0.508,0.735c0.15,0.302,0.301,0.603,0.451,0.904
		c0.15,0.377,0.303,0.754,0.453,1.13v1.3v2.09l-0.734,1.243c0,0.189-0.066,0.396-0.199,0.622c-0.131,0.226-0.273,0.452-0.422,0.678
		c-0.189,0.264-0.396,0.528-0.623,0.791l-2.09,1.978c-0.189,0.189-0.564,0.5-1.131,0.933c-0.564,0.433-1.186,0.904-1.863,1.412
		c-0.678,0.509-1.311,0.989-1.893,1.441c-0.586,0.452-0.953,0.772-1.102,0.96c-0.34,0.302-0.924,0.716-1.752,1.243
		c-0.83,0.528-1.688,1.064-2.572,1.61c-0.885,0.546-1.703,1.055-2.457,1.525c-0.754,0.472-1.205,0.782-1.355,0.932
		c-0.189,0-0.51,0.076-0.961,0.226c-0.451,0.151-0.932,0.33-1.441,0.537c-0.508,0.207-0.988,0.423-1.439,0.649
		c-0.453,0.226-0.754,0.415-0.904,0.565c-0.34,0.113-0.951,0.331-1.836,0.65c-0.887,0.32-1.922,0.688-3.107,1.102
		c-1.188,0.415-2.439,0.847-3.758,1.299s-2.57,0.885-3.758,1.299c-1.186,0.415-2.232,0.782-3.135,1.102
		c-0.904,0.319-1.527,0.537-1.865,0.65c-0.98,0.301-1.836,0.763-2.57,1.384c-0.734,0.621-1.424,1.29-2.063,2.005
		c-0.264,0.263-0.529,0.471-0.791,0.622c-0.227,0.188-0.453,0.339-0.678,0.452c-0.227,0.113-0.434,0.169-0.623,0.169l-1.355,0.678
		h-1.299h-2.092l-1.242-0.678c-0.377-0.339-0.707-0.659-0.988-0.96c-0.283-0.302-0.424-0.641-0.424-1.017l-0.678-2.034l-0.566-1.299
		l-1.412-1.413l-1.412-0.678l-1.244-1.243l-0.678-1.413c0-0.15-0.037-0.386-0.113-0.706c-0.074-0.32-0.16-0.64-0.254-0.961
		c-0.094-0.319-0.178-0.63-0.254-0.932c-0.076-0.301-0.113-0.545-0.113-0.734V204.403z M697.877,172.762v2.091l0.678,0.734h1.299
		h0.678c0.34-0.188,0.885-0.404,1.639-0.65c0.754-0.245,1.525-0.499,2.316-0.763c0.791-0.263,1.516-0.517,2.176-0.763
		c0.658-0.245,1.082-0.461,1.271-0.65c0.188,0,0.471-0.141,0.848-0.424c0.377-0.282,0.781-0.583,1.215-0.904
		c0.432-0.32,0.828-0.622,1.186-0.904c0.357-0.283,0.631-0.424,0.82-0.424c0.15-0.15,0.555-0.414,1.215-0.791
		c0.658-0.376,1.365-0.781,2.119-1.215c0.752-0.433,1.459-0.828,2.117-1.187c0.66-0.357,1.084-0.63,1.271-0.819
		c0.189,0,0.396-0.057,0.623-0.169c0.225-0.113,0.432-0.263,0.621-0.452c0.227-0.188,0.471-0.414,0.734-0.678l0.678-0.678v-0.678
		v-0.734l-0.678-0.565c-0.264-0.113-0.508-0.226-0.734-0.339c-0.189-0.075-0.396-0.15-0.621-0.226
		c-0.227-0.075-0.434-0.113-0.623-0.113c-0.188,0-0.508-0.037-0.959-0.113c-0.453-0.075-0.934-0.16-1.441-0.254
		c-0.508-0.093-0.988-0.178-1.441-0.254c-0.451-0.075-0.754-0.113-0.904-0.113h-5.311h-5.48c-0.15,0-0.377,0.076-0.678,0.226
		c-0.303,0.151-0.621,0.311-0.961,0.48c-0.338,0.169-0.67,0.33-0.988,0.48c-0.32,0.151-0.557,0.226-0.707,0.226l-1.299,0.565
		c0,0.339-0.039,0.895-0.113,1.667c-0.076,0.772-0.15,1.573-0.227,2.401c-0.076,0.829-0.15,1.629-0.225,2.401
		c-0.076,0.772-0.113,1.328-0.113,1.667V172.762z M698.554,189.543v1.413l0.621,1.978v2.091c0,0.189,0.037,0.5,0.113,0.932
		c0.074,0.434,0.15,0.904,0.227,1.413c0.074,0.508,0.15,0.98,0.225,1.413c0.076,0.433,0.113,0.726,0.113,0.875
		c0,0.189,0.066,0.5,0.197,0.933c0.133,0.433,0.283,0.904,0.453,1.412c0.17,0.509,0.33,0.989,0.48,1.441s0.227,0.772,0.227,0.96
		l0.734,2.656l0.678,0.678h2.654h2.656c0.188,0,0.471-0.037,0.848-0.113c0.377-0.075,0.781-0.15,1.215-0.226
		c0.432-0.075,0.828-0.15,1.186-0.226c0.357-0.075,0.631-0.113,0.82-0.113c0.15,0,0.385-0.065,0.705-0.198
		c0.32-0.132,0.641-0.283,0.961-0.452s0.631-0.319,0.934-0.452c0.301-0.131,0.545-0.198,0.734-0.198
		c0.188,0,0.572-0.113,1.158-0.339c0.582-0.226,1.215-0.461,1.893-0.706c0.678-0.245,1.299-0.48,1.863-0.707
		c0.566-0.226,0.941-0.339,1.131-0.339c0.15,0,0.357-0.065,0.621-0.198c0.264-0.131,0.518-0.273,0.764-0.424
		c0.244-0.15,0.488-0.292,0.734-0.424c0.244-0.131,0.461-0.198,0.65-0.198c0.148,0,0.441-0.15,0.875-0.452
		c0.432-0.301,0.922-0.64,1.469-1.017c0.545-0.376,1.092-0.753,1.639-1.13c0.545-0.376,0.988-0.64,1.328-0.791
		c0.15-0.15,0.424-0.386,0.818-0.706c0.396-0.32,0.801-0.63,1.215-0.932c0.414-0.301,0.811-0.565,1.188-0.791
		c0.375-0.226,0.658-0.339,0.848-0.339l0.678-0.565c0.15-0.15,0.348-0.414,0.594-0.791c0.244-0.376,0.461-0.781,0.648-1.215
		c0.189-0.433,0.357-0.837,0.51-1.214c0.148-0.376,0.225-0.659,0.225-0.848v-1.356v-0.735c-0.264-0.226-0.508-0.452-0.734-0.678
		l-1.242-1.243l-1.355-0.734c-0.529-0.188-1.168-0.424-1.922-0.707c-0.754-0.282-1.488-0.574-2.203-0.875
		c-0.83-0.339-1.695-0.697-2.6-1.074c-0.189,0-0.508-0.037-0.961-0.113c-0.451-0.075-0.932-0.15-1.439-0.226
		c-0.51-0.075-0.99-0.15-1.441-0.226c-0.453-0.075-0.754-0.113-0.904-0.113h-4.633h-4.746c-0.189,0-0.508,0.038-0.961,0.113
		c-0.451,0.076-0.951,0.151-1.498,0.226c-0.545,0.076-1.092,0.151-1.637,0.226c-0.547,0.076-0.99,0.113-1.328,0.113
		c-0.189,0-0.453,0.038-0.791,0.113c-0.34,0.076-0.717,0.151-1.131,0.226c-0.451,0.113-0.941,0.226-1.469,0.339
		c-0.15,0-0.414,0.076-0.791,0.226c-0.377,0.151-0.771,0.32-1.186,0.508c-0.416,0.189-0.82,0.405-1.215,0.65
		c-0.396,0.245-0.67,0.443-0.82,0.593l-0.621,1.413V189.543z"/>
	<path fill="#FFFFFF" d="M760.254,214.8c-0.189-0.339-0.434-0.876-0.734-1.61c-0.303-0.734-0.604-1.516-0.904-2.345
		c-0.303-0.828-0.564-1.619-0.791-2.373c-0.227-0.753-0.34-1.3-0.34-1.639v-0.734v-1.356c0-0.188,0.037-0.442,0.113-0.763
		c0.076-0.319,0.15-0.649,0.227-0.989c0.074-0.339,0.15-0.658,0.227-0.96c0.074-0.301,0.111-0.527,0.111-0.678
		c0-0.15-0.037-0.489-0.111-1.017c-0.076-0.527-0.152-1.092-0.227-1.695c-0.076-0.602-0.15-1.158-0.227-1.667
		c-0.076-0.509-0.113-0.856-0.113-1.045c0-0.301-0.037-0.932-0.113-1.893c-0.074-0.96-0.16-2.006-0.254-3.136
		c-0.094-1.13-0.18-2.222-0.254-3.277c-0.076-1.054-0.113-1.827-0.113-2.316v-2.825c0-0.15-0.037-0.565-0.113-1.243
		c-0.076-0.678-0.15-1.393-0.225-2.147c-0.076-0.753-0.152-1.45-0.227-2.09c-0.076-0.64-0.113-1.036-0.113-1.187v-2.656
		c0-0.188-0.037-0.763-0.113-1.723s-0.15-1.996-0.227-3.107c-0.074-1.111-0.15-2.138-0.225-3.08
		c-0.076-0.941-0.113-1.506-0.113-1.695c0-0.339-0.039-1.158-0.113-2.458c-0.076-1.299-0.15-2.702-0.227-4.209
		c-0.076-1.506-0.15-2.91-0.225-4.209c-0.076-1.3-0.113-2.119-0.113-2.458l-0.734-2.655v-2.769c0-0.15-0.076-0.414-0.227-0.791
		c-0.15-0.376-0.311-0.791-0.48-1.243s-0.32-0.866-0.451-1.243c-0.133-0.376-0.199-0.64-0.199-0.791v-2.09v-1.243l4.125-4.068h1.412
		h2.77l1.186,0.678c0.189,0,0.396,0.066,0.623,0.198c0.225,0.132,0.451,0.292,0.678,0.48c0.262,0.189,0.527,0.396,0.791,0.622
		l1.355,2.09v1.243v1.413c0,0.189-0.076,0.471-0.227,0.847c-0.15,0.377-0.311,0.772-0.48,1.187c-0.168,0.415-0.32,0.819-0.451,1.215
		c-0.133,0.396-0.197,0.707-0.197,0.933c0,0.151-0.039,0.443-0.113,0.875c-0.076,0.434-0.16,0.895-0.254,1.384
		c-0.096,0.49-0.18,0.96-0.254,1.413c-0.076,0.452-0.113,0.754-0.113,0.904v6.724v7.402c0,0.113,0.018,0.424,0.057,0.932
		c0.037,0.509,0.084,1.121,0.141,1.836c0.057,0.716,0.113,1.488,0.17,2.316c0.057,0.829,0.113,1.602,0.168,2.317
		c0.057,0.716,0.104,1.337,0.143,1.864c0.037,0.528,0.057,0.848,0.057,0.96v1.921c0,0.49,0.037,1.299,0.113,2.429
		c0.074,1.13,0.148,2.298,0.225,3.503c0.076,1.206,0.15,2.298,0.227,3.277c0.074,0.98,0.113,1.545,0.113,1.695
		c0,0.151,0.037,0.443,0.113,0.876c0.074,0.434,0.15,0.904,0.225,1.413c0.076,0.508,0.15,0.989,0.227,1.441
		c0.076,0.452,0.113,0.754,0.113,0.904c0,0.189,0.037,0.565,0.113,1.13c0.074,0.565,0.15,1.187,0.227,1.865
		c0.074,0.678,0.148,1.309,0.225,1.893c0.076,0.584,0.113,0.952,0.113,1.102c0,0.189,0.076,0.508,0.227,0.96s0.311,0.932,0.48,1.441
		c0.17,0.508,0.328,0.989,0.48,1.44c0.15,0.452,0.225,0.754,0.225,0.904c0.264,0.377,0.49,0.734,0.68,1.073
		c0.188,0.302,0.357,0.593,0.508,0.876c0.15,0.282,0.227,0.518,0.227,0.706l1.355,2.091v2.09v2.656c0,0.151-0.039,0.377-0.113,0.678
		c-0.076,0.302-0.15,0.622-0.227,0.96c-0.076,0.339-0.15,0.669-0.225,0.989c-0.076,0.321-0.113,0.575-0.113,0.763l-0.678,0.565
		c-1.057,0.678-1.988,1.073-2.797,1.187c-0.811,0.113-1.744,0.169-2.797,0.169h-2.092L760.254,214.8z"/>
	<path fill="#FFFFFF" d="M778.334,191.408v-2.09c0.113-0.753,0.244-1.469,0.395-2.147c0.113-0.565,0.256-1.139,0.424-1.723
		c0.17-0.583,0.35-1.064,0.537-1.441c0-0.188,0.037-0.396,0.113-0.621c0.076-0.226,0.15-0.433,0.227-0.622
		c0.113-0.226,0.244-0.471,0.395-0.735c0.15-0.339,0.48-1.026,0.99-2.062c0.508-1.036,1.053-2.147,1.637-3.333
		s1.131-2.297,1.639-3.333c0.51-1.036,0.857-1.704,1.047-2.006l0.678-0.678l2.768-2.09l1.301-1.3c0.338,0,0.893-0.037,1.666-0.113
		c0.771-0.075,1.582-0.15,2.43-0.226c0.848-0.075,1.646-0.15,2.4-0.226c0.754-0.075,1.281-0.113,1.582-0.113
		c0.15,0,0.387-0.037,0.707-0.113c0.32-0.075,0.658-0.15,1.018-0.226c0.357-0.075,0.695-0.15,1.016-0.226
		c0.32-0.075,0.574-0.113,0.764-0.113h1.922h2.09c0.375,0.113,0.734,0.226,1.074,0.339c0.301,0.076,0.592,0.151,0.875,0.226
		c0.283,0.076,0.518,0.113,0.707,0.113l1.412,0.678c0.188,0,0.395,0.066,0.621,0.198c0.227,0.132,0.432,0.292,0.621,0.48
		c0.227,0.189,0.471,0.396,0.734,0.622c0.15,0.189,0.424,0.461,0.82,0.819c0.395,0.358,0.809,0.754,1.242,1.187
		c0.434,0.433,0.838,0.838,1.215,1.214c0.377,0.377,0.658,0.641,0.848,0.791c0.264,0.415,0.508,0.791,0.734,1.13
		c0.453,0.678,0.867,1.187,1.244,1.525c0,0.189,0.064,0.396,0.197,0.622c0.131,0.226,0.291,0.452,0.48,0.678
		c0.188,0.264,0.432,0.528,0.734,0.791c0.15,0.189,0.348,0.472,0.592,0.848c0.246,0.377,0.461,0.782,0.65,1.215
		c0.188,0.434,0.357,0.839,0.51,1.215c0.148,0.377,0.225,0.641,0.225,0.791c0.113,0.377,0.227,0.734,0.34,1.073
		c0.074,0.302,0.15,0.593,0.227,0.876c0.074,0.283,0.111,0.518,0.111,0.706c0,0.339,0.037,0.857,0.113,1.554
		c0.076,0.697,0.15,1.394,0.227,2.09c0.074,0.697,0.15,1.347,0.227,1.949c0.074,0.603,0.113,0.98,0.113,1.13v4.068v3.333
		c0,0.189-0.039,0.434-0.113,0.734c-0.076,0.302-0.18,0.613-0.311,0.933c-0.133,0.32-0.283,0.641-0.453,0.96
		c-0.17,0.32-0.33,0.556-0.48,0.706c0,0.189-0.141,0.472-0.424,0.848c-0.281,0.377-0.611,0.782-0.988,1.215
		c-0.377,0.433-0.754,0.838-1.131,1.215c-0.377,0.377-0.658,0.641-0.846,0.791c-0.34,0.339-0.82,0.819-1.441,1.44
		s-1.244,1.243-1.865,1.865s-1.205,1.187-1.752,1.695c-0.545,0.509-0.895,0.857-1.045,1.045l-2.654,1.356
		c-0.189,0-0.51,0.141-0.961,0.424c-0.453,0.283-0.934,0.584-1.441,0.904c-0.508,0.321-0.988,0.622-1.441,0.904
		c-0.451,0.282-0.754,0.424-0.902,0.424c-0.113,0-0.256,0.028-0.424,0.084c-0.17,0.057-0.463,0.122-0.877,0.198
		c-0.414,0.075-1.008,0.142-1.779,0.198c-0.773,0.057-1.799,0.085-3.08,0.085c-0.451,0-0.912,0.019-1.383,0.057
		c-0.473,0.037-0.934,0.056-1.385,0.056c-0.717,0-1.395-0.038-2.035-0.113c-0.641-0.076-1.279-0.264-1.92-0.565
		c-0.641-0.377-1.225-0.735-1.752-1.074c-0.451-0.301-0.895-0.593-1.328-0.875c-0.434-0.283-0.744-0.518-0.932-0.707
		c-0.189,0-0.406-0.113-0.65-0.339s-0.5-0.461-0.762-0.707c-0.264-0.244-0.52-0.48-0.764-0.706s-0.443-0.339-0.594-0.339
		l-0.621-0.565c-0.188-0.188-0.434-0.461-0.734-0.819c-0.301-0.358-0.604-0.725-0.904-1.102c-0.377-0.414-0.754-0.884-1.129-1.413
		l-0.678-1.412c-0.152-0.339-0.34-0.819-0.566-1.441c-0.225-0.622-0.443-1.243-0.648-1.865c-0.209-0.622-0.387-1.187-0.537-1.695
		c-0.15-0.509-0.227-0.838-0.227-0.989c0-0.188-0.037-0.546-0.113-1.074c-0.076-0.527-0.15-1.11-0.225-1.751
		c-0.076-0.64-0.152-1.271-0.227-1.893c-0.076-0.622-0.113-1.102-0.113-1.441V191.408z M787.092,195.476
		c0.188,0.302,0.432,0.791,0.734,1.469c0.301,0.678,0.621,1.404,0.961,2.175c0.338,0.772,0.658,1.507,0.961,2.204
		c0.301,0.697,0.545,1.215,0.734,1.554c0.148,0.189,0.385,0.434,0.705,0.734c0.32,0.302,0.658,0.613,1.018,0.933
		c0.357,0.32,0.688,0.641,0.988,0.96c0.301,0.32,0.547,0.556,0.734,0.706c0.604,0.264,1.188,0.49,1.752,0.678
		c0.451,0.189,0.904,0.339,1.355,0.452c0.453,0.113,0.771,0.17,0.961,0.17h0.564h0.68c0.338,0,0.855-0.028,1.553-0.085
		s1.385-0.122,2.063-0.198c0.791-0.075,1.639-0.169,2.543-0.283c0.527-0.263,0.998-0.527,1.412-0.791
		c0.377-0.226,0.744-0.452,1.102-0.678s0.631-0.433,0.82-0.622l0.734-0.734c0.188-0.15,0.424-0.396,0.705-0.735
		c0.283-0.339,0.574-0.715,0.877-1.13c0.338-0.414,0.695-0.904,1.072-1.469c0.264-0.376,0.49-0.735,0.678-1.074
		c0.189-0.301,0.348-0.593,0.48-0.876c0.133-0.282,0.199-0.517,0.199-0.706c0-0.188,0.037-0.396,0.111-0.622
		c0.076-0.226,0.15-0.433,0.227-0.622c0.113-0.226,0.244-0.47,0.396-0.734c0-0.15,0.037-0.499,0.111-1.045
		c0.076-0.545,0.15-1.13,0.227-1.751s0.15-1.243,0.227-1.864c0.074-0.622,0.113-1.102,0.113-1.441v-0.734v-0.565
		c0-0.339-0.113-0.8-0.34-1.384c-0.227-0.583-0.338-1.045-0.338-1.384l-0.734-1.299l-1.357-3.333
		c-0.264-0.376-0.508-0.753-0.734-1.13c-0.189-0.301-0.395-0.603-0.621-0.904c-0.227-0.301-0.434-0.545-0.621-0.734l-2.092-1.978
		c-0.188-0.188-0.424-0.396-0.705-0.622c-0.283-0.226-0.574-0.433-0.877-0.622c-0.338-0.226-0.697-0.471-1.072-0.734h-0.678h-1.414
		l-1.242,0.565l-0.734,0.734l-1.355,2.656l-0.734,0.678l-1.244,0.678c-0.189,0-0.537,0.076-1.045,0.226
		c-0.508,0.151-1.064,0.311-1.666,0.48c-0.604,0.17-1.168,0.331-1.695,0.48c-0.529,0.151-0.867,0.226-1.018,0.226l-1.412,0.678
		l-1.412,1.3c-0.113,0.264-0.209,0.528-0.283,0.791c-0.189,0.49-0.283,0.923-0.283,1.299c0,0.302-0.066,0.707-0.197,1.215
		c-0.133,0.509-0.293,1.027-0.48,1.554c-0.189,0.603-0.414,1.225-0.678,1.865c0,0.189-0.037,0.461-0.113,0.819
		c-0.076,0.358-0.16,0.754-0.254,1.187c-0.094,0.433-0.18,0.838-0.254,1.215c-0.076,0.377-0.113,0.641-0.113,0.791v0.734V195.476z"
		/>
	<path fill="#FFFFFF" d="M827.49,234.914v-4.067l1.412-1.244h0.678h0.564l0.736,1.244c0,0.188,0.037,0.47,0.111,0.847
		c0.076,0.377,0.15,0.781,0.227,1.215c0.076,0.433,0.15,0.838,0.227,1.215c0.074,0.376,0.113,0.641,0.113,0.791
		c0.338,0.679,0.678,1.46,1.016,2.345c0.34,0.885,0.697,1.647,1.074,2.289c0.15,0.188,0.34,0.508,0.564,0.96
		c0.227,0.452,0.461,0.923,0.707,1.413c0.244,0.488,0.488,0.96,0.734,1.412c0.244,0.452,0.461,0.771,0.65,0.961
		c0.338,0.678,0.705,1.317,1.102,1.921c0.395,0.602,0.912,1.073,1.553,1.412c0.15,0.15,0.283,0.282,0.396,0.396
		s0.244,0.207,0.395,0.282c0.49,0.414,0.924,0.622,1.301,0.622c0.414,0.414,0.941,0.734,1.582,0.96
		c0.262,0.15,0.621,0.283,1.072,0.396h2.77h2.654c0.453-0.112,0.811-0.245,1.074-0.396c0.641-0.226,1.168-0.546,1.582-0.96
		l1.018-0.734c0.264-0.189,0.508-0.396,0.734-0.622c0.227-0.226,0.338-0.434,0.338-0.621l0.34-0.396
		c0.227-0.264,0.34-0.565,0.34-0.904c0.148-0.339,0.348-0.772,0.592-1.3c0.246-0.527,0.461-1.055,0.65-1.582
		c0.113-0.302,0.227-0.612,0.34-0.932c0.111-0.32,0.244-0.632,0.395-0.933c0-0.15,0.113-0.593,0.34-1.328
		c0.225-0.734,0.461-1.545,0.705-2.429c0.244-0.886,0.48-1.733,0.707-2.543c0.227-0.811,0.338-1.365,0.338-1.667
		c0-0.15,0.037-0.452,0.113-0.903c0.076-0.452,0.15-0.933,0.227-1.441c0.074-0.509,0.15-0.989,0.227-1.441
		c0.074-0.452,0.113-0.772,0.113-0.96c0-0.151,0.027-0.377,0.084-0.678c0.057-0.302,0.131-0.621,0.227-0.96
		c0.094-0.339,0.168-0.659,0.225-0.96c0.057-0.302,0.086-0.546,0.086-0.734v-13.899l-0.34-1.469
		c-0.076-0.376-0.141-0.744-0.197-1.102c-0.057-0.357-0.084-0.612-0.084-0.763l-0.68-1.413l-7.514,7.402
		c-0.15,0.151-0.377,0.377-0.678,0.678c-0.303,0.302-0.621,0.593-0.961,0.876c-0.34,0.282-0.67,0.537-0.988,0.763
		c-0.32,0.226-0.557,0.339-0.707,0.339c-0.189,0.188-0.48,0.396-0.875,0.622c-0.396,0.226-0.801,0.442-1.215,0.65
		c-0.416,0.207-0.811,0.376-1.188,0.508c-0.377,0.132-0.641,0.198-0.791,0.198h-2.654h-3.391c-0.414-0.113-0.791-0.245-1.131-0.396
		c-0.301-0.113-0.602-0.245-0.902-0.396c-0.303-0.151-0.547-0.302-0.736-0.452l-0.678-0.735l-1.299-2.034l-0.678-1.3
		c0-0.15-0.039-0.376-0.113-0.678c-0.076-0.301-0.15-0.622-0.227-0.961c-0.076-0.339-0.15-0.658-0.225-0.96
		c-0.076-0.301-0.113-0.545-0.113-0.734c-0.076-0.452-0.133-0.885-0.17-1.299c-0.039-0.414-0.076-0.828-0.113-1.243
		c-0.076-0.678-0.141-1.346-0.197-2.006c-0.057-0.659-0.086-1.158-0.086-1.497c0-0.339,0.029-0.838,0.086-1.498
		c0.057-0.659,0.121-1.328,0.197-2.006l0.283-2.486l0.338-1.525c0.076-0.414,0.15-0.848,0.227-1.3
		c0.074-0.452,0.113-0.866,0.113-1.243c0-0.188,0.037-0.46,0.113-0.819c0.074-0.358,0.15-0.725,0.225-1.102l0.34-1.413
		c0-0.188,0.057-0.47,0.17-0.847c0.113-0.376,0.262-0.753,0.451-1.13c0.076-0.188,0.17-0.404,0.283-0.649
		c0.113-0.245,0.244-0.499,0.395-0.763l0.678-1.978l1.414-2.655c0.15-0.15,0.375-0.593,0.678-1.328
		c0.301-0.735,0.621-1.516,0.961-2.345c0.338-0.828,0.658-1.61,0.959-2.345c0.303-0.734,0.547-1.195,0.734-1.384
		c0.15-0.15,0.424-0.489,0.82-1.017c0.395-0.527,0.828-1.102,1.299-1.723s0.941-1.233,1.412-1.836
		c0.471-0.602,0.877-1.073,1.215-1.412c0.15-0.188,0.414-0.509,0.791-0.961c0.377-0.452,0.781-0.904,1.215-1.356
		c0.434-0.452,0.838-0.856,1.215-1.215c0.377-0.357,0.66-0.537,0.848-0.537c0.15,0,0.461-0.065,0.934-0.198
		c0.471-0.131,0.979-0.301,1.525-0.508c0.545-0.207,1.092-0.424,1.639-0.65c0.545-0.226,0.988-0.433,1.326-0.622h0.68h0.621
		l1.355,0.734c0.15,0.189,0.49,0.5,1.018,0.933c0.527,0.433,1.082,0.885,1.666,1.356c0.584,0.471,1.139,0.923,1.668,1.356
		c0.525,0.434,0.885,0.744,1.072,0.932l1.979,1.413c0.188,0.189,0.432,0.396,0.734,0.622c0.301,0.226,0.602,0.434,0.904,0.622
		l1.129,0.734c0.189,0.189,0.471,0.509,0.848,0.96c0.377,0.452,0.754,0.933,1.131,1.441c0.375,0.508,0.705,0.989,0.988,1.441
		c0.283,0.452,0.424,0.754,0.424,0.904v1.243v1.413c0,0.189-0.037,0.5-0.113,0.932c-0.076,0.434-0.15,0.904-0.227,1.413
		c-0.074,0.508-0.15,0.98-0.225,1.413c-0.076,0.433-0.113,0.726-0.113,0.875c0,0.189-0.105,0.575-0.311,1.158
		c-0.209,0.584-0.434,1.215-0.678,1.893c-0.246,0.678-0.473,1.299-0.68,1.864c-0.207,0.565-0.311,0.924-0.311,1.074v2.769v3.955
		c0,0.339,0.029,0.999,0.086,1.978c0.057,0.98,0.121,2.006,0.197,3.079c0.074,1.074,0.141,2.091,0.197,3.051s0.086,1.61,0.086,1.949
		c0,0.189,0.037,0.472,0.111,0.848c0.076,0.377,0.15,0.782,0.227,1.215c0.076,0.433,0.15,0.838,0.227,1.215
		c0.074,0.377,0.113,0.641,0.113,0.791l0.057,6.271l-0.057,1.017l-0.34,2.147c-0.076,0.565-0.15,1.148-0.227,1.751
		c-0.074,0.602-0.111,1.074-0.111,1.413c0,0.188-0.066,0.743-0.199,1.667c-0.131,0.923-0.281,1.921-0.451,2.995
		c-0.17,1.074-0.32,2.081-0.453,3.023c-0.131,0.941-0.197,1.507-0.197,1.695v2.655c0,0.188-0.076,0.461-0.225,0.819
		c-0.152,0.357-0.313,0.753-0.48,1.187c-0.17,0.433-0.32,0.838-0.453,1.215c-0.133,0.376-0.197,0.659-0.197,0.848
		c0,0.15-0.037,0.404-0.113,0.763c-0.076,0.357-0.15,0.753-0.227,1.187c-0.074,0.433-0.15,0.828-0.225,1.187
		c-0.076,0.357-0.113,0.612-0.113,0.763c-0.189,0.339-0.51,0.961-0.961,1.864c-0.451,0.904-0.932,1.865-1.441,2.882
		c-0.508,1.018-0.988,1.968-1.439,2.854c-0.453,0.885-0.754,1.477-0.904,1.78l-0.734,1.073c-0.189,0.264-0.396,0.498-0.621,0.707
		c-0.227,0.205-0.434,0.311-0.623,0.311c-0.188,0.188-0.508,0.432-0.959,0.734c-0.453,0.301-0.953,0.621-1.498,0.961
		c-0.547,0.338-1.094,0.658-1.639,0.959c-0.547,0.303-0.988,0.527-1.328,0.68c-0.189,0-0.434,0.064-0.734,0.197
		c-0.301,0.131-0.604,0.291-0.904,0.48l-1.072,0.621l-1.471,0.34c-0.414,0.074-0.791,0.148-1.129,0.225
		c-0.34,0.076-0.584,0.113-0.734,0.113h-0.678h-0.734c-0.189,0-0.463-0.037-0.82-0.113s-0.725-0.15-1.102-0.225l-1.412-0.34
		c-0.189,0-0.473-0.066-0.848-0.197c-0.377-0.133-0.783-0.303-1.215-0.51c-0.434-0.207-0.838-0.424-1.215-0.648
		c-0.377-0.227-0.641-0.434-0.791-0.623l-1.809-1.412c-0.49-0.377-0.941-0.744-1.355-1.102s-0.697-0.631-0.848-0.818
		c-0.303,0-0.621-0.227-0.961-0.678c-0.076-0.076-0.15-0.18-0.225-0.313c-0.076-0.131-0.152-0.272-0.227-0.423l-0.678-1.978
		l-1.414-2.655c0-0.15-0.064-0.415-0.197-0.791c-0.133-0.377-0.273-0.782-0.424-1.215c-0.15-0.434-0.291-0.839-0.424-1.215
		c-0.133-0.377-0.197-0.659-0.197-0.848c-0.189-0.302-0.357-0.706-0.508-1.215c-0.152-0.508-0.303-1.026-0.453-1.554l-0.451-1.808
		V234.914z M838.281,201.578v2.655c0,0.151,0.037,0.387,0.113,0.707c0.074,0.32,0.15,0.649,0.227,0.989
		c0.074,0.339,0.15,0.669,0.225,0.989c0.076,0.32,0.113,0.556,0.113,0.706l1.357,1.243h1.412h1.977c0.34,0,0.801-0.113,1.385-0.339
		c0.584-0.226,1.045-0.339,1.385-0.339c0.301,0,0.695-0.207,1.186-0.622c0.113-0.075,0.236-0.16,0.367-0.254
		c0.133-0.094,0.273-0.216,0.424-0.368c0.15-0.188,0.414-0.508,0.791-0.96c0.377-0.452,0.781-0.932,1.215-1.44
		c0.434-0.509,0.838-0.979,1.215-1.413c0.377-0.433,0.658-0.744,0.848-0.933l2.656-2.655c0-0.15,0.064-0.348,0.197-0.593
		c0.131-0.245,0.283-0.499,0.451-0.763c0.17-0.263,0.33-0.509,0.48-0.735c0.15-0.226,0.227-0.433,0.227-0.621
		c0-0.15,0.037-0.414,0.113-0.791c0.074-0.376,0.15-0.782,0.227-1.215c0.074-0.433,0.15-0.838,0.225-1.215
		c0.076-0.376,0.113-0.64,0.113-0.791v-1.3v-0.678l-0.338-1.074c-0.076-0.301-0.152-0.593-0.227-0.875
		c-0.076-0.283-0.113-0.518-0.113-0.707c0-0.188-0.066-0.489-0.197-0.904c-0.133-0.414-0.293-0.866-0.48-1.356l-0.678-1.808
		l-1.301-1.978l-0.678-1.356c0-0.188-0.076-0.471-0.225-0.848c-0.152-0.376-0.313-0.781-0.48-1.215
		c-0.17-0.433-0.33-0.828-0.48-1.187c-0.15-0.357-0.227-0.63-0.227-0.819l-0.678-1.243h-0.564l-1.414,0.678
		c-0.188,0.151-0.432,0.377-0.734,0.678c-0.301,0.302-0.621,0.622-0.959,0.96c-0.34,0.339-0.66,0.669-0.961,0.989
		c-0.303,0.32-0.527,0.556-0.678,0.706c-0.152,0.264-0.283,0.519-0.396,0.763c-0.113,0.246-0.244,0.462-0.395,0.65
		c-0.227,0.377-0.453,0.754-0.678,1.13c-0.227,0.377-0.434,0.66-0.623,0.848c0,0.151-0.066,0.339-0.197,0.565
		c-0.133,0.226-0.283,0.462-0.451,0.707c-0.17,0.245-0.32,0.49-0.453,0.734c-0.133,0.246-0.197,0.462-0.197,0.65
		c0,0.151-0.113,0.443-0.34,0.875c-0.225,0.434-0.461,0.896-0.705,1.384c-0.246,0.49-0.48,0.96-0.707,1.413s-0.338,0.772-0.338,0.96
		c0,0.189-0.039,0.405-0.113,0.65c-0.076,0.246-0.152,0.462-0.227,0.65l-0.34,0.734c0,0.151-0.037,0.415-0.111,0.791
		c-0.076,0.377-0.152,0.772-0.227,1.187c-0.076,0.415-0.15,0.811-0.227,1.187c-0.076,0.377-0.113,0.641-0.113,0.791l-0.338,1.413
		c-0.076,0.377-0.152,0.754-0.227,1.13c-0.076,0.377-0.113,0.66-0.113,0.848V201.578z"/>
</g>
</svg>
