<?xml version="1.0" encoding="utf-8"?>
<!-- Generator: Adobe Illustrator 16.0.0, SVG Export Plug-In . SVG Version: 6.00 Build 0)  -->
<!DOCTYPE svg PUBLIC "-//W3C//DTD SVG 1.1//EN" "http://www.w3.org/Graphics/SVG/1.1/DTD/svg11.dtd" [
	<!ENTITY st0 "fill:#FFFFFF;">
	<!ENTITY st1 "fill:none;">
	<!ENTITY st2 "fill:#053F82;">
	<!ENTITY st3 "fill:#78C9E9;">
]>
<svg version="1.1" id="图层_1" xmlns="http://www.w3.org/2000/svg" xmlns:xlink="http://www.w3.org/1999/xlink" x="0px" y="0px"
	 width="800px" height="250px" viewBox="0 0 800 250" style="enable-background:new 0 0 800 250;" xml:space="preserve">
<path style="&st3;" d="M99.684,18.451c4.017-0.386,8.033,0.069,12.045,0.273c11.729,1.103,23.296,4.312,33.739,9.796
	c14.703,7.681,27.338,19.432,35.693,33.8c6.843,11.545,10.894,24.711,11.919,38.089c0.33,8.537,0.187,17.086,0.217,25.631
	c-0.004,21.133,0.004,42.266-0.004,63.4c-0.274,6.214,0.148,12.458-0.604,18.646c-0.27,2.506-0.686,5.098-1.967,7.308
	c-1.272,2.158-3.938,3.227-6.37,2.822c-1.385-0.391-2.531-1.324-3.59-2.258c-5.411-5.158-9.284-11.779-15.185-16.447
	c-2.28-1.729-5.35-3.257-8.22-2.085c-4.073,1.637-6.674,5.385-9.396,8.632c-3.469,4.213-6.769,8.989-11.863,11.351
	c-3.183,1.528-7.069,0.942-9.857-1.142c-6.014-4.455-9.131-11.676-14.963-16.327c-2.966-2.383-7.056-3.646-10.786-2.496
	c-3.27,0.859-5.762,3.344-7.833,5.892c-2.831,3.578-4.994,7.656-8.055,11.056c-1.694,1.881-3.904,3.387-6.426,3.839
	c-2.948,0.396-5.823-0.96-8.029-2.818c-5.363-4.528-8.354-11.168-13.591-15.818c-2.202-2.015-5.45-3.305-8.376-2.145
	c-5.263,1.914-9.037,6.273-12.854,10.16c-3.356,3.339-6.148,7.321-10.165,9.935c-2.045,1.398-4.806,0.612-6.639-0.786
	c-2.123-1.736-2.931-4.524-3.539-7.091c-1.203-5.936-1.116-12.019-1.138-18.046c-0.134-4.203-0.191-8.41,0.008-12.613
	c-0.013-23.596-0.004-47.191-0.004-70.786c-0.704-24.433,9.787-48.85,27.664-65.462c10.638-9.991,23.721-17.413,37.838-21.164
	C85.988,19.792,92.819,18.746,99.684,18.451z"/>
<path style="&st0;" d="M78.98,76.349c4.62-0.964,9.496-0.543,13.886,1.194c6.739,2.597,12.206,8.407,14.242,15.358
	c1.524,4.811,1.463,10.122-0.143,14.907c-2.449,7.92-9.379,14.181-17.46,15.944c-2.254,0.426-4.524,1.063-6.835,0.777
	c-3.339-0.456-6.695-1.138-9.722-2.684c-6.092-3.021-10.821-8.74-12.475-15.357c-1.967-7.352-0.425-15.723,4.477-21.62
	C68.459,80.518,73.483,77.426,78.98,76.349z"/>
<path style="&st0;" d="M153.184,76.345c6.335-1.359,13.183,0.031,18.567,3.626c4.229,2.918,7.629,7.121,9.271,12.023
	c2.558,7.291,1.477,15.792-2.979,22.132c-3.417,4.928-8.767,8.467-14.638,9.691c-1.719,0.322-3.435,0.769-5.189,0.781
	c-6.361-0.338-12.84-2.592-17.316-7.277c-4.703-4.472-6.957-10.972-7.208-17.355c0.313-5.827,2.258-11.707,6.266-16.058
	C143.409,80.053,148.112,77.37,153.184,76.345z"/>
<path style="&st2;" d="M89.892,89.493c3.917-1.329,8.528-0.283,11.45,2.657c3.383,3.304,4.273,8.806,2.115,13.014
	c-1.502,2.987-4.39,5.297-7.694,5.931c-3.639,0.851-7.686-0.386-10.274-3.079c-2.089-2.097-3.326-5.059-3.192-8.033
	C82.176,95.329,85.507,90.926,89.892,89.493z"/>
<path style="&st2;" d="M164.122,89.493c3.218-1.073,6.926-0.608,9.739,1.298c2.345,1.515,4.004,3.994,4.681,6.691
	c0.973,3.965-0.382,8.398-3.504,11.056c-4.095,3.842-11.138,3.712-15.089-0.274c-3.07-2.792-4.151-7.352-3.04-11.294
	C157.908,93.505,160.683,90.596,164.122,89.493z"/>
<g>
	<rect x="225.527" y="29.574" style="&st1;" width="548.236" height="163.529"/>
	<path style="&st0;" d="M250.437,87.72h-1.624c-0.31,0.093-0.619,0.186-0.928,0.278c-0.248,0.063-0.495,0.124-0.742,0.186
		c-0.248,0.063-0.449,0.093-0.603,0.093c-0.155,0-0.387,0.054-0.696,0.162c-0.31,0.109-0.619,0.225-0.928,0.348
		c-0.341,0.155-0.727,0.325-1.16,0.51l-1.624,0.603c-0.278,0.155-0.642,0.348-1.09,0.58c-0.449,0.232-0.897,0.472-1.346,0.719
		c-0.448,0.248-0.866,0.457-1.252,0.626c-0.387,0.17-0.643,0.255-0.766,0.255l-1.113,1.113v6.587l-0.51,1.716
		c0,0.124-0.093,0.333-0.278,0.626s-0.402,0.619-0.649,0.974c-0.248,0.356-0.503,0.681-0.765,0.975
		c-0.263,0.293-0.457,0.502-0.58,0.626l-0.464,0.603c-0.155,0.154-0.356,0.317-0.603,0.487c-0.248,0.17-0.518,0.34-0.812,0.511
		c-0.294,0.169-0.572,0.309-0.835,0.417s-0.472,0.163-0.626,0.163h-0.464l-1.113-0.464c-0.155-0.124-0.387-0.317-0.696-0.58
		c-0.31-0.263-0.619-0.526-0.928-0.789c-0.31-0.263-0.58-0.518-0.812-0.765c-0.231-0.247-0.348-0.448-0.348-0.603
		c-0.093-0.216-0.186-0.433-0.278-0.649c-0.063-0.186-0.124-0.371-0.186-0.557c-0.063-0.186-0.093-0.355-0.093-0.51v-0.464v-0.603
		c0-0.278,0.093-0.649,0.278-1.113s0.278-0.819,0.278-1.067l0.603-1.113l0.464-0.603l0.557-1.021c0-0.123,0.062-0.348,0.186-0.673
		c0.123-0.324,0.255-0.656,0.394-0.997c0.14-0.34,0.271-0.665,0.395-0.974c0.123-0.309,0.186-0.541,0.186-0.696
		c0-0.093,0.039-0.332,0.116-0.719c0.077-0.387,0.177-0.851,0.301-1.392c0.123-0.541,0.247-1.113,0.371-1.717
		c0.123-0.603,0.247-1.175,0.371-1.716c0.123-0.541,0.224-1.013,0.301-1.415c0.077-0.401,0.116-0.649,0.116-0.742
		c0-0.123,0.062-0.401,0.186-0.835c0.123-0.433,0.255-0.896,0.395-1.392c0.139-0.494,0.27-0.951,0.394-1.368
		c0.123-0.418,0.186-0.703,0.186-0.858c0-0.123,0.062-0.533,0.186-1.229c0.123-0.695,0.255-1.461,0.394-2.296
		c0.14-0.835,0.271-1.607,0.395-2.319c0.123-0.711,0.186-1.144,0.186-1.299l0.557-1.577c0-0.154,0.054-0.642,0.162-1.461
		s0.224-1.717,0.348-2.69c0.123-0.975,0.239-1.871,0.348-2.69c0.108-0.819,0.162-1.306,0.162-1.461c0-0.123,0.062-0.464,0.186-1.021
		c0.123-0.557,0.255-1.16,0.395-1.809c0.139-0.649,0.27-1.283,0.394-1.902c0.123-0.618,0.186-1.067,0.186-1.345l0.557-2.18
		c0-0.123,0.023-0.34,0.07-0.649c0.046-0.309,0.108-0.642,0.186-0.998c0.077-0.355,0.139-0.68,0.186-0.974
		c0.046-0.294,0.069-0.518,0.069-0.673c0-0.123,0.03-0.363,0.093-0.719c0.062-0.355,0.123-0.742,0.186-1.16
		c0.062-0.417,0.123-0.804,0.186-1.159c0.062-0.355,0.093-0.61,0.093-0.766c0-0.154,0.03-0.325,0.093-0.51
		c0.062-0.186,0.123-0.371,0.186-0.557c0.093-0.216,0.186-0.433,0.278-0.649c0-0.123,0.062-0.278,0.186-0.464
		c0.123-0.186,0.278-0.363,0.464-0.534c0.186-0.169,0.371-0.316,0.557-0.44c0.186-0.123,0.355-0.186,0.51-0.186h2.18h2.18
		c0.154,0,0.325,0.031,0.51,0.093c0.186,0.063,0.371,0.124,0.557,0.186c0.216,0.093,0.433,0.186,0.649,0.278
		c0.123,0,0.309,0.116,0.557,0.348c0.247,0.232,0.51,0.503,0.789,0.812c0.278,0.31,0.541,0.619,0.789,0.928
		c0.247,0.31,0.448,0.542,0.603,0.696c0.278,0.31,0.541,0.603,0.789,0.881c0.216,0.248,0.41,0.487,0.58,0.719
		c0.169,0.231,0.255,0.425,0.255,0.58l0.603,1.113c0,0.155,0.03,0.348,0.093,0.58c0.062,0.232,0.123,0.472,0.186,0.719
		c0.093,0.278,0.186,0.573,0.278,0.881v2.227c0,0.155,0.085,0.495,0.255,1.021c0.169,0.526,0.355,1.098,0.557,1.716
		c0.201,0.619,0.386,1.199,0.557,1.74c0.169,0.541,0.255,0.874,0.255,0.997l0.557,2.783c0,0.248,0.062,0.588,0.186,1.021
		c0.123,0.434,0.255,0.874,0.395,1.322c0.139,0.448,0.27,0.866,0.394,1.252c0.123,0.387,0.186,0.643,0.186,0.766
		c0,0.155,0.085,0.464,0.255,0.928c0.169,0.464,0.348,0.974,0.533,1.531s0.363,1.075,0.533,1.554s0.255,0.781,0.255,0.904
		l0.603,2.227c0,0.155,0.054,0.356,0.162,0.603c0.108,0.248,0.239,0.495,0.395,0.742c0.154,0.31,0.34,0.619,0.557,0.928l2.18,0.464
		c0.154,0,0.325,0.031,0.51,0.093c0.186,0.063,0.355,0.124,0.51,0.186c0.186,0.093,0.386,0.186,0.603,0.278l1.16,1.16v0.464v0.557
		l-2.783,2.783v0.557v1.16c0,0.124,0.062,0.457,0.186,0.998c0.123,0.541,0.271,1.152,0.441,1.832
		c0.169,0.681,0.348,1.368,0.533,2.064c0.186,0.695,0.34,1.245,0.464,1.646c0,0.155,0.03,0.325,0.093,0.51
		c0.062,0.186,0.123,0.356,0.186,0.51c0.093,0.186,0.186,0.387,0.278,0.603c0,0.155,0.146,0.503,0.44,1.043
		c0.294,0.542,0.61,1.122,0.951,1.74c0.34,0.619,0.657,1.191,0.951,1.716c0.293,0.526,0.44,0.851,0.44,0.974
		c0,0.155,0.054,0.387,0.162,0.696c0.108,0.31,0.232,0.642,0.371,0.997c0.14,0.356,0.271,0.689,0.395,0.998
		c0.123,0.31,0.186,0.526,0.186,0.649l0.603,1.16c0,0.155,0.116,0.379,0.348,0.673c0.231,0.293,0.479,0.61,0.742,0.951
		c0.262,0.34,0.51,0.657,0.742,0.951c0.231,0.294,0.348,0.502,0.348,0.626l0.557,1.16v0.557v0.557l-0.557,1.067
		c-0.217,0.34-0.417,0.649-0.603,0.928c-0.371,0.557-0.712,0.974-1.021,1.252c-0.278,0.278-0.588,0.541-0.928,0.789
		c-0.341,0.247-0.789,0.371-1.345,0.371h-0.464l-1.16-0.603c-0.155-0.155-0.325-0.317-0.51-0.487s-0.371-0.333-0.557-0.487
		c-0.217-0.186-0.434-0.387-0.649-0.603c0-0.155-0.085-0.417-0.255-0.789c-0.17-0.371-0.379-0.789-0.626-1.252
		c-0.248-0.464-0.495-0.92-0.742-1.368c-0.248-0.449-0.434-0.812-0.557-1.09l-1.021-2.644c0-0.123-0.093-0.371-0.278-0.742
		s-0.379-0.766-0.58-1.183c-0.202-0.418-0.395-0.812-0.58-1.183s-0.278-0.633-0.278-0.789c0-0.123-0.063-0.401-0.186-0.835
		c-0.124-0.433-0.255-0.889-0.395-1.368c-0.139-0.479-0.271-0.928-0.394-1.346c-0.124-0.417-0.186-0.688-0.186-0.812
		c-0.124-0.278-0.278-0.703-0.464-1.275s-0.364-1.144-0.534-1.717c-0.17-0.572-0.317-1.097-0.44-1.577
		c-0.124-0.479-0.186-0.795-0.186-0.951c-0.155-0.154-0.325-0.378-0.51-0.672s-0.371-0.595-0.557-0.905
		c-0.217-0.34-0.434-0.726-0.649-1.16H250.437z M239.396,81.644l0.464,0.557h1.16c1.082,0,2.188-0.116,3.316-0.348
		c1.129-0.231,2.234-0.502,3.317-0.812c0.154,0,0.325-0.03,0.51-0.093c0.186-0.062,0.355-0.123,0.51-0.186
		c0.186-0.093,0.386-0.186,0.603-0.278l0.557-0.464v-0.603V78.86c0-0.123-0.054-0.401-0.162-0.835
		c-0.109-0.433-0.225-0.881-0.348-1.345c-0.124-0.464-0.24-0.904-0.348-1.322c-0.108-0.417-0.162-0.703-0.162-0.858
		c0-0.123-0.031-0.401-0.093-0.835c-0.063-0.433-0.132-0.896-0.209-1.392c-0.077-0.494-0.147-0.951-0.208-1.369
		c-0.063-0.417-0.093-0.703-0.093-0.858c0-0.123-0.093-0.371-0.278-0.742s-0.402-0.772-0.649-1.206
		c-0.248-0.433-0.495-0.874-0.742-1.322c-0.248-0.448-0.449-0.812-0.603-1.09l-1.021-1.067h-0.557l-0.603,0.464
		c0,0.155-0.054,0.333-0.163,0.533c-0.108,0.202-0.225,0.402-0.348,0.604c-0.124,0.201-0.24,0.394-0.348,0.58
		c-0.109,0.186-0.163,0.341-0.163,0.464c-0.248,0.557-0.449,1.052-0.603,1.484c-0.155,0.402-0.286,0.773-0.395,1.113
		c-0.108,0.341-0.162,0.588-0.162,0.742c0,0.155-0.063,0.417-0.186,0.789c-0.124,0.371-0.255,0.766-0.395,1.183
		c-0.139,0.418-0.263,0.812-0.371,1.183s-0.162,0.619-0.162,0.742c0,0.155-0.031,0.356-0.093,0.603
		c-0.063,0.248-0.132,0.503-0.209,0.766s-0.147,0.526-0.208,0.788c-0.063,0.263-0.093,0.457-0.093,0.58
		c0,0.155-0.023,0.41-0.07,0.766c-0.046,0.355-0.101,0.735-0.162,1.136c-0.063,0.402-0.116,0.789-0.162,1.16
		c-0.047,0.371-0.07,0.619-0.07,0.742V81.644z"/>
	<path style="&st0;" d="M273.212,103.956c-0.155-0.278-0.356-0.719-0.603-1.322c-0.248-0.603-0.495-1.244-0.742-1.925
		c-0.248-0.68-0.464-1.329-0.649-1.948c-0.186-0.618-0.278-1.067-0.278-1.345v-0.603v-1.113c0-0.154,0.03-0.363,0.093-0.626
		c0.062-0.263,0.123-0.534,0.186-0.812c0.062-0.278,0.123-0.541,0.186-0.789c0.062-0.247,0.093-0.433,0.093-0.557
		c0-0.123-0.031-0.401-0.093-0.835c-0.063-0.433-0.124-0.896-0.186-1.392c-0.063-0.494-0.124-0.951-0.186-1.368
		c-0.063-0.418-0.093-0.703-0.093-0.858c0-0.247-0.031-0.766-0.093-1.554c-0.063-0.789-0.132-1.647-0.208-2.575
		c-0.078-0.928-0.147-1.824-0.209-2.69c-0.063-0.865-0.093-1.5-0.093-1.902v-2.319c0-0.123-0.031-0.464-0.093-1.021
		c-0.063-0.557-0.124-1.144-0.186-1.763c-0.063-0.618-0.124-1.19-0.186-1.716c-0.063-0.525-0.093-0.85-0.093-0.974v-2.18
		c0-0.154-0.031-0.626-0.093-1.415c-0.063-0.789-0.124-1.639-0.186-2.552c-0.063-0.912-0.124-1.754-0.186-2.528
		c-0.063-0.772-0.093-1.236-0.093-1.392c0-0.278-0.031-0.951-0.093-2.018c-0.063-1.066-0.124-2.218-0.186-3.456
		c-0.063-1.236-0.124-2.389-0.186-3.456c-0.063-1.067-0.093-1.74-0.093-2.018l-0.603-2.18v-2.273c0-0.123-0.063-0.34-0.186-0.649
		c-0.124-0.309-0.255-0.649-0.394-1.021c-0.14-0.371-0.263-0.711-0.371-1.021c-0.109-0.309-0.163-0.525-0.163-0.649v-1.716v-1.021
		l3.386-3.34h1.16h2.273l0.974,0.557c0.154,0,0.325,0.054,0.51,0.162c0.186,0.109,0.371,0.24,0.557,0.395
		c0.216,0.155,0.433,0.325,0.649,0.51l1.113,1.716v1.021v1.16c0,0.155-0.063,0.387-0.186,0.696c-0.124,0.31-0.255,0.634-0.395,0.974
		c-0.139,0.341-0.263,0.672-0.371,0.998c-0.108,0.324-0.162,0.58-0.162,0.765c0,0.124-0.031,0.364-0.093,0.719
		c-0.063,0.355-0.132,0.735-0.209,1.136c-0.077,0.402-0.147,0.789-0.208,1.16c-0.063,0.371-0.093,0.619-0.093,0.742v5.52v6.077
		c0,0.093,0.015,0.348,0.046,0.766c0.03,0.417,0.069,0.92,0.116,1.507c0.046,0.588,0.093,1.222,0.139,1.902
		c0.047,0.681,0.093,1.315,0.14,1.902c0.046,0.588,0.084,1.098,0.116,1.531c0.03,0.434,0.046,0.696,0.046,0.789v1.577
		c0,0.402,0.03,1.067,0.093,1.995c0.062,0.928,0.123,1.887,0.186,2.876c0.062,0.99,0.123,1.887,0.186,2.69
		c0.062,0.805,0.093,1.269,0.093,1.392c0,0.124,0.03,0.364,0.093,0.719c0.062,0.356,0.123,0.742,0.186,1.16
		c0.062,0.417,0.123,0.812,0.186,1.183c0.062,0.371,0.093,0.619,0.093,0.742c0,0.155,0.03,0.464,0.093,0.928
		c0.062,0.464,0.123,0.974,0.186,1.531c0.062,0.557,0.123,1.075,0.186,1.554c0.062,0.479,0.093,0.781,0.093,0.904
		c0,0.155,0.062,0.417,0.186,0.789c0.123,0.371,0.255,0.765,0.395,1.183c0.139,0.417,0.27,0.812,0.394,1.183
		c0.123,0.371,0.186,0.619,0.186,0.742c0.216,0.31,0.401,0.603,0.557,0.881c0.154,0.248,0.293,0.487,0.417,0.719
		c0.123,0.231,0.186,0.425,0.186,0.58l1.113,1.716v1.716v2.18c0,0.124-0.031,0.31-0.093,0.557c-0.063,0.248-0.124,0.51-0.186,0.789
		c-0.063,0.278-0.124,0.549-0.186,0.812c-0.063,0.263-0.093,0.472-0.093,0.626l-0.557,0.464c-0.866,0.557-1.631,0.881-2.296,0.974
		c-0.666,0.093-1.431,0.139-2.296,0.139h-1.716L273.212,103.956z"/>
	<path style="&st0;" d="M291.257,101.497c0-0.401-0.031-1.067-0.093-1.995c-0.063-0.928-0.124-1.909-0.186-2.945
		c-0.063-1.036-0.124-2.018-0.186-2.946c-0.063-0.928-0.093-1.592-0.093-1.995c-0.093-0.649-0.186-1.252-0.278-1.809
		c-0.063-0.494-0.124-0.989-0.186-1.484c-0.063-0.494-0.093-0.896-0.093-1.206c0-0.247-0.039-0.58-0.116-0.998
		c-0.078-0.417-0.147-0.842-0.209-1.275c-0.093-0.494-0.186-1.004-0.278-1.531l-0.557-2.273v-3.804l-1.021-2.18
		c0-0.154-0.039-0.332-0.116-0.534c-0.077-0.201-0.147-0.394-0.208-0.58c-0.093-0.216-0.186-0.448-0.278-0.696v-2.18v-1.624
		c0-0.123,0.062-0.317,0.186-0.58c0.123-0.262,0.271-0.533,0.441-0.812c0.169-0.278,0.348-0.541,0.533-0.789
		c0.186-0.247,0.34-0.433,0.464-0.557c0.216-0.216,0.433-0.401,0.649-0.557c0.186-0.154,0.371-0.293,0.557-0.417
		c0.186-0.123,0.355-0.186,0.51-0.186l1.067-0.557c0.154,0,0.348-0.03,0.58-0.093c0.231-0.062,0.471-0.123,0.719-0.186
		c0.278-0.093,0.572-0.186,0.881-0.278c0.123,0,0.34,0.063,0.649,0.186c0.309,0.124,0.642,0.271,0.998,0.44
		c0.355,0.17,0.68,0.356,0.974,0.557c0.294,0.202,0.518,0.379,0.673,0.534l1.16,1.021c0,0.155,0.054,0.333,0.163,0.534
		c0.108,0.201,0.224,0.41,0.348,0.626c0.123,0.217,0.239,0.425,0.348,0.626c0.108,0.202,0.163,0.364,0.163,0.487v0.51v0.557
		c0,0.155-0.054,0.417-0.163,0.789s-0.225,0.773-0.348,1.206c-0.124,0.434-0.24,0.843-0.348,1.229
		c-0.109,0.387-0.163,0.642-0.163,0.765c0,0.155-0.031,0.379-0.093,0.672c-0.063,0.294-0.124,0.596-0.186,0.905
		c-0.093,0.341-0.186,0.727-0.278,1.16V82.2v5.52c0,0.155,0.03,0.379,0.093,0.673c0.062,0.294,0.123,0.619,0.186,0.974
		c0.062,0.356,0.123,0.689,0.186,0.998c0.062,0.31,0.093,0.526,0.093,0.649c0,0.155,0.085,0.387,0.255,0.696
		c0.169,0.31,0.355,0.642,0.557,0.997c0.201,0.356,0.386,0.689,0.557,0.998c0.169,0.31,0.255,0.526,0.255,0.649
		c0,0.124,0.03,0.278,0.093,0.464c0.062,0.186,0.123,0.356,0.186,0.51c0.093,0.217,0.186,0.434,0.278,0.649v0.557v1.067
		c0,0.155-0.031,0.41-0.093,0.765c-0.063,0.356-0.124,0.719-0.186,1.09c-0.093,0.434-0.186,0.913-0.278,1.438
		c-0.124,0.217-0.248,0.434-0.371,0.649c-0.124,0.186-0.24,0.371-0.348,0.557c-0.109,0.186-0.225,0.356-0.348,0.51
		c-0.155,0.124-0.325,0.278-0.51,0.464s-0.371,0.356-0.557,0.51l-0.649,0.649h-1.577h-2.227l-1.113-0.557l-0.557-0.603
		L291.257,101.497z M288.613,50.472v-1.16c0-0.34,0.093-0.842,0.278-1.508c0.186-0.665,0.278-1.167,0.278-1.507l0.696-1.252
		l0.557-0.557c0.154-0.154,0.425-0.332,0.812-0.533c0.386-0.201,0.78-0.395,1.183-0.58c0.464-0.216,0.974-0.448,1.531-0.696
		c0.247,0.124,0.479,0.232,0.696,0.325c0.433,0.217,0.835,0.325,1.206,0.325c0.216,0.124,0.433,0.248,0.649,0.371
		c0.371,0.217,0.726,0.48,1.067,0.789c0.154,0.155,0.371,0.333,0.649,0.533c0.278,0.202,0.541,0.395,0.789,0.58
		c0.309,0.217,0.618,0.449,0.928,0.696v1.809v1.809c-0.31,0.341-0.619,0.666-0.928,0.974c-0.248,0.248-0.51,0.503-0.789,0.766
		s-0.495,0.472-0.649,0.626c-0.31,0.341-0.704,0.611-1.183,0.812c-0.479,0.202-0.889,0.302-1.229,0.302h-2.366h-2.366l-1.252-0.464
		l-0.557-1.252V50.472z"/>
	<path style="&st0;" d="M309.626,103.167v-1.113c0-0.123,0.023-0.325,0.07-0.603c0.046-0.278,0.1-0.572,0.162-0.881
		c0.062-0.309,0.116-0.61,0.162-0.905c0.047-0.293,0.07-0.517,0.07-0.672V96.07v-3.525c0-0.123-0.023-0.417-0.07-0.881
		c-0.046-0.464-0.101-0.974-0.162-1.531c-0.063-0.557-0.116-1.082-0.162-1.577c-0.047-0.494-0.07-0.865-0.07-1.113l-0.371-2.227
		v-8.999c0-0.123-0.023-0.332-0.07-0.626c-0.046-0.294-0.108-0.619-0.186-0.975c-0.077-0.355-0.139-0.711-0.186-1.066
		c-0.046-0.355-0.069-0.673-0.069-0.951l-0.464-1.995V70.14v-0.464c0.186-0.216,0.34-0.433,0.464-0.649
		c0.123-0.154,0.239-0.325,0.348-0.51s0.163-0.34,0.163-0.464c0-0.123,0.07-0.278,0.208-0.464c0.14-0.186,0.286-0.355,0.441-0.51
		c0.186-0.186,0.401-0.371,0.649-0.557l1.067-0.464h1.345h1.299l0.974,0.464l0.928,1.021c0.093,0.155,0.201,0.341,0.325,0.557
		c0.123,0.217,0.247,0.449,0.371,0.696c0.123,0.278,0.278,0.573,0.464,0.881v0.928v1.531c0,0.464-0.023,0.92-0.07,1.368
		c-0.046,0.449-0.093,0.944-0.139,1.484c-0.047,0.542-0.093,1.145-0.14,1.81c-0.046,0.665-0.085,1.415-0.116,2.25l-0.093,4.082
		h0.186c0.278-0.464,0.541-0.928,0.789-1.392c0.216-0.371,0.433-0.765,0.649-1.183c0.216-0.417,0.401-0.749,0.557-0.997
		c0.123-0.123,0.247-0.309,0.371-0.557c0.123-0.247,0.247-0.51,0.371-0.789c0.123-0.278,0.239-0.541,0.348-0.789
		c0.108-0.247,0.209-0.433,0.302-0.557c0-0.123,0.093-0.325,0.278-0.603s0.378-0.58,0.58-0.905c0.201-0.324,0.394-0.633,0.58-0.928
		c0.186-0.293,0.278-0.517,0.278-0.672c0.093-0.123,0.208-0.325,0.348-0.603c0.139-0.278,0.285-0.557,0.44-0.835
		c0.154-0.34,0.34-0.696,0.557-1.067c0.123-0.247,0.262-0.618,0.417-1.113c0.154-0.494,0.309-1.004,0.464-1.531
		c0.154-0.525,0.286-1.021,0.394-1.484s0.163-0.819,0.163-1.067c0-0.093,0.046-0.224,0.139-0.394s0.209-0.34,0.348-0.511
		c0.14-0.169,0.286-0.316,0.441-0.44c0.154-0.123,0.278-0.186,0.371-0.186c0.433-0.062,0.865-0.139,1.299-0.232
		c0.371-0.062,0.75-0.116,1.136-0.163c0.387-0.046,0.719-0.069,0.998-0.069h0.835h0.881l1.021,0.464
		c0.186,0.31,0.355,0.588,0.51,0.835c0.154,0.248,0.309,0.472,0.464,0.673c0.154,0.201,0.278,0.364,0.371,0.487l0.464,1.021
		c0,0.248,0.054,0.765,0.163,1.554c0.108,0.788,0.216,1.631,0.324,2.528c0.108,0.897,0.216,1.74,0.325,2.528
		c0.108,0.789,0.162,1.322,0.162,1.601v5.566l0.093,1.16l0.742-1.624c0.123-0.309,0.363-0.858,0.719-1.646
		c0.355-0.789,0.742-1.631,1.16-2.528c0.417-0.896,0.804-1.731,1.159-2.505c0.355-0.772,0.58-1.299,0.673-1.577
		c0-0.123,0.054-0.325,0.162-0.603s0.216-0.564,0.325-0.858c0.108-0.294,0.216-0.58,0.324-0.858s0.163-0.479,0.163-0.603
		c0.123-0.154,0.317-0.371,0.58-0.649s0.541-0.572,0.835-0.881c0.294-0.309,0.572-0.595,0.835-0.858
		c0.263-0.262,0.456-0.456,0.58-0.58l1.995-2.737c0.278-0.186,0.541-0.355,0.789-0.51c0.216-0.154,0.425-0.309,0.626-0.464
		c0.201-0.154,0.363-0.309,0.487-0.464c0.154-0.093,0.309-0.186,0.464-0.278c0.154-0.062,0.293-0.123,0.417-0.186
		c0.123-0.062,0.247-0.093,0.371-0.093h1.021h0.464c0.247,0.217,0.494,0.402,0.742,0.557c0.186,0.155,0.378,0.286,0.58,0.394
		c0.201,0.109,0.363,0.163,0.487,0.163l0.603,0.371c0,0.248,0.062,0.588,0.186,1.021c0.123,0.434,0.186,0.789,0.186,1.067
		c0,0.495,0.039,1.183,0.116,2.064c0.077,0.881,0.163,1.802,0.255,2.76c0.093,0.959,0.178,1.879,0.255,2.76
		c0.077,0.882,0.116,1.585,0.116,2.111c0,0.124,0.03,0.41,0.093,0.858c0.062,0.449,0.123,0.959,0.186,1.531
		c0.062,0.572,0.123,1.152,0.186,1.739c0.062,0.588,0.093,1.083,0.093,1.484c0,0.124,0.023,0.379,0.07,0.766
		c0.046,0.387,0.108,0.796,0.186,1.229c0.077,0.434,0.139,0.843,0.186,1.229c0.046,0.387,0.069,0.643,0.069,0.766
		c0,0.093,0.023,0.302,0.069,0.626c0.047,0.325,0.1,0.658,0.163,0.998c0.062,0.402,0.139,0.851,0.232,1.345
		c0,0.248,0.062,0.719,0.186,1.415c0.123,0.695,0.271,1.422,0.44,2.18c0.17,0.758,0.355,1.478,0.557,2.157
		c0.201,0.681,0.378,1.129,0.534,1.345c0,0.186,0.046,0.394,0.139,0.626c0.093,0.231,0.201,0.472,0.325,0.719
		c0.123,0.248,0.232,0.487,0.325,0.719c0.093,0.232,0.139,0.441,0.139,0.626l0.881,1.995c0.123,0.124,0.239,0.317,0.348,0.58
		s0.209,0.533,0.302,0.812c0.123,0.341,0.216,0.696,0.278,1.067c-0.093,0.217-0.17,0.417-0.232,0.603
		c-0.155,0.371-0.232,0.712-0.232,1.021c0,0.124-0.046,0.271-0.139,0.44c-0.093,0.17-0.186,0.332-0.278,0.487
		c-0.124,0.186-0.263,0.371-0.417,0.557l-0.974,0.51h-1.438h-1.392c-0.619-0.186-1.176-0.356-1.67-0.51
		c-0.434-0.155-0.843-0.286-1.229-0.395s-0.657-0.162-0.812-0.162c-0.248,0-0.533-0.178-0.858-0.533
		c-0.324-0.355-0.487-0.657-0.487-0.905c-0.124-0.278-0.232-0.789-0.325-1.531s-0.178-1.523-0.255-2.343
		c-0.078-0.819-0.14-1.584-0.186-2.296c-0.047-0.711-0.07-1.175-0.07-1.392c0-0.186-0.016-0.479-0.046-0.881
		c-0.031-0.401-0.069-0.827-0.116-1.276c-0.046-0.448-0.085-0.873-0.116-1.275c-0.031-0.401-0.046-0.696-0.046-0.881l-0.371-1.299
		c0-0.154-0.016-0.348-0.046-0.58c-0.031-0.232-0.078-0.471-0.139-0.719c-0.063-0.278-0.124-0.572-0.186-0.881
		c0-0.093-0.023-0.278-0.069-0.557c-0.047-0.278-0.101-0.58-0.163-0.904c-0.063-0.325-0.116-0.634-0.163-0.928
		c-0.046-0.294-0.069-0.487-0.069-0.58l-0.093-2.087c0-0.093-0.016-0.417-0.046-0.974c-0.031-0.557-0.063-1.167-0.093-1.832
		c-0.031-0.665-0.063-1.283-0.093-1.855c-0.031-0.572-0.046-0.92-0.046-1.044c0-0.123,0-0.371,0-0.742s-0.016-0.734-0.046-1.09
		c-0.031-0.355-0.085-0.665-0.163-0.928s-0.208-0.378-0.394-0.348l-0.835,1.021c-0.31,0.649-0.588,1.252-0.835,1.809
		c-0.248,0.464-0.472,0.913-0.672,1.345c-0.202,0.434-0.364,0.712-0.487,0.835c0,0.124-0.054,0.294-0.162,0.51
		c-0.109,0.217-0.217,0.449-0.325,0.696c-0.108,0.248-0.216,0.495-0.324,0.742c-0.109,0.248-0.163,0.464-0.163,0.649
		c0,0.155-0.085,0.464-0.255,0.928s-0.364,0.967-0.58,1.507c-0.217,0.542-0.41,1.052-0.58,1.531
		c-0.17,0.479-0.255,0.796-0.255,0.951c0,0.124-0.07,0.333-0.208,0.626c-0.14,0.294-0.294,0.611-0.464,0.951
		c-0.17,0.341-0.325,0.666-0.464,0.974c-0.14,0.31-0.209,0.542-0.209,0.696c0,0.155-0.046,0.402-0.139,0.742
		c-0.093,0.341-0.193,0.719-0.301,1.136c-0.109,0.418-0.209,0.82-0.302,1.206c-0.093,0.387-0.139,0.689-0.139,0.905l-0.464,2.366
		l-0.371,1.531l-0.649,1.995c-0.063,0.093-0.147,0.248-0.255,0.464c-0.108,0.217-0.271,0.44-0.487,0.673
		c-0.217,0.231-0.487,0.433-0.812,0.603c-0.324,0.17-0.735,0.255-1.229,0.255h-1.809c-0.155,0-0.348-0.054-0.58-0.163
		c-0.231-0.108-0.472-0.247-0.719-0.417c-0.248-0.17-0.48-0.34-0.696-0.511c-0.217-0.169-0.371-0.316-0.464-0.44
		c-0.155,0-0.294-0.077-0.417-0.232c-0.124-0.154-0.232-0.34-0.325-0.557c-0.093-0.216-0.163-0.433-0.208-0.649
		c-0.047-0.216-0.07-0.401-0.07-0.557c0-0.278-0.008-0.711-0.023-1.299c-0.016-0.587-0.04-1.252-0.07-1.995
		c-0.031-0.742-0.054-1.523-0.07-2.343c-0.016-0.819-0.039-1.6-0.069-2.342c-0.031-0.742-0.054-1.392-0.069-1.948
		c-0.016-0.557-0.023-0.958-0.023-1.206c0-0.123-0.023-0.325-0.069-0.603c-0.047-0.278-0.093-0.58-0.14-0.904
		c-0.046-0.325-0.085-0.634-0.116-0.928c-0.031-0.294-0.046-0.518-0.046-0.673v-2.505c0-0.093,0.015-0.395,0.046-0.904
		c0.03-0.511,0.046-1.059,0.046-1.647c0-0.557-0.008-1.059-0.023-1.507s-0.101-0.673-0.255-0.673c-0.063,0-0.17,0.116-0.325,0.348
		c-0.155,0.232-0.417,0.658-0.789,1.276c-0.402,0.588-0.773,1.16-1.113,1.716c-0.31,0.495-0.626,1.005-0.951,1.531
		c-0.324,0.526-0.596,0.959-0.812,1.299c0,0.155-0.101,0.402-0.302,0.742c-0.201,0.341-0.425,0.719-0.672,1.136
		c-0.248,0.418-0.495,0.835-0.742,1.253c-0.248,0.417-0.434,0.765-0.557,1.043l-1.531,2.505l-0.835,1.392l-0.557,2.273v3.154
		c0,0.155-0.031,0.348-0.093,0.58c-0.063,0.231-0.124,0.457-0.186,0.672c-0.093,0.248-0.17,0.495-0.232,0.742
		c0,0.155,0.023,0.364,0.07,0.626c0.046,0.263,0.108,0.533,0.186,0.812c0.077,0.278,0.139,0.549,0.186,0.812
		c0.046,0.263,0.069,0.457,0.069,0.58l-0.186,0.557c-0.063,0.155-0.132,0.31-0.209,0.464c-0.077,0.155-0.178,0.294-0.301,0.417
		c-0.155,0.155-0.341,0.356-0.557,0.603c-0.217,0.248-0.441,0.503-0.672,0.766c-0.232,0.263-0.449,0.51-0.649,0.742
		c-0.202,0.231-0.364,0.409-0.487,0.533l-1.067,0.51h-1.206h-1.438l-1.438-0.51l-0.928-1.021V103.167z"/>
	<path style="&st0;" d="M364.641,84.751v-1.716c0.093-0.618,0.201-1.206,0.325-1.763c0.093-0.464,0.209-0.935,0.348-1.415
		c0.14-0.479,0.286-0.874,0.441-1.183c0-0.154,0.03-0.325,0.093-0.51c0.062-0.186,0.123-0.355,0.186-0.51
		c0.093-0.186,0.201-0.386,0.325-0.603c0.123-0.278,0.395-0.842,0.812-1.693c0.418-0.85,0.866-1.763,1.346-2.736
		c0.479-0.975,0.928-1.886,1.345-2.737c0.418-0.85,0.703-1.398,0.858-1.646l0.557-0.557l2.273-1.716l1.067-1.067
		c0.278,0,0.734-0.03,1.368-0.093c0.634-0.062,1.299-0.123,1.995-0.186c0.695-0.062,1.352-0.123,1.971-0.186
		c0.618-0.062,1.051-0.093,1.299-0.093c0.123,0,0.317-0.03,0.58-0.093c0.263-0.062,0.541-0.123,0.835-0.186
		c0.294-0.062,0.572-0.123,0.835-0.186c0.263-0.062,0.471-0.093,0.626-0.093h1.577h1.716c0.309,0.093,0.603,0.186,0.881,0.278
		c0.247,0.063,0.487,0.124,0.719,0.186c0.231,0.063,0.424,0.093,0.58,0.093l1.16,0.557c0.154,0,0.325,0.054,0.51,0.162
		c0.186,0.109,0.355,0.24,0.51,0.395c0.186,0.155,0.386,0.325,0.603,0.51c0.123,0.155,0.348,0.379,0.672,0.672
		c0.325,0.294,0.665,0.619,1.021,0.975s0.688,0.688,0.998,0.997c0.309,0.31,0.541,0.526,0.696,0.649
		c0.216,0.341,0.417,0.649,0.603,0.928c0.371,0.557,0.711,0.974,1.021,1.252c0,0.155,0.054,0.325,0.163,0.51
		c0.108,0.186,0.239,0.371,0.394,0.557c0.154,0.217,0.355,0.434,0.603,0.649c0.123,0.155,0.286,0.387,0.487,0.696
		c0.201,0.31,0.378,0.642,0.533,0.998c0.154,0.355,0.293,0.688,0.417,0.997c0.123,0.31,0.186,0.526,0.186,0.649
		c0.093,0.31,0.186,0.603,0.278,0.881c0.062,0.248,0.123,0.487,0.186,0.719c0.062,0.231,0.093,0.425,0.093,0.58
		c0,0.278,0.03,0.704,0.093,1.276c0.062,0.572,0.123,1.144,0.186,1.716c0.062,0.573,0.123,1.106,0.186,1.601
		c0.062,0.495,0.093,0.805,0.093,0.928v3.34v2.737c0,0.155-0.031,0.356-0.093,0.603c-0.063,0.248-0.147,0.503-0.255,0.766
		s-0.231,0.526-0.371,0.788c-0.139,0.263-0.271,0.457-0.394,0.58c0,0.155-0.116,0.387-0.348,0.696
		c-0.231,0.31-0.503,0.642-0.812,0.998c-0.31,0.355-0.619,0.688-0.928,0.997c-0.31,0.31-0.542,0.526-0.696,0.649
		c-0.278,0.278-0.672,0.673-1.183,1.183c-0.51,0.511-1.021,1.021-1.53,1.531c-0.511,0.51-0.99,0.974-1.438,1.392
		c-0.448,0.417-0.735,0.704-0.858,0.858l-2.18,1.113c-0.155,0-0.417,0.116-0.789,0.348c-0.371,0.231-0.765,0.479-1.183,0.742
		c-0.417,0.263-0.812,0.51-1.183,0.742c-0.371,0.231-0.619,0.348-0.742,0.348c-0.093,0-0.209,0.023-0.348,0.069
		c-0.14,0.047-0.379,0.1-0.719,0.163c-0.341,0.062-0.828,0.116-1.461,0.163c-0.634,0.046-1.477,0.069-2.528,0.069
		c-0.371,0-0.75,0.015-1.136,0.046c-0.387,0.03-0.766,0.046-1.137,0.046c-0.588,0-1.145-0.031-1.67-0.093
		c-0.526-0.063-1.052-0.217-1.577-0.464c-0.526-0.31-1.005-0.603-1.438-0.881c-0.371-0.247-0.735-0.487-1.09-0.719
		c-0.355-0.231-0.611-0.424-0.765-0.58c-0.155,0-0.333-0.093-0.534-0.278s-0.41-0.378-0.626-0.58
		c-0.217-0.201-0.425-0.395-0.626-0.58c-0.202-0.186-0.364-0.278-0.487-0.278l-0.51-0.464c-0.155-0.154-0.356-0.378-0.603-0.673
		c-0.248-0.293-0.495-0.595-0.742-0.904c-0.31-0.34-0.619-0.726-0.928-1.16l-0.557-1.16c-0.124-0.278-0.278-0.673-0.464-1.183
		c-0.186-0.511-0.364-1.021-0.533-1.531c-0.17-0.51-0.318-0.974-0.441-1.392c-0.124-0.417-0.186-0.688-0.186-0.812
		c0-0.154-0.031-0.448-0.093-0.881c-0.063-0.433-0.124-0.912-0.186-1.438c-0.063-0.525-0.124-1.044-0.186-1.554
		c-0.063-0.511-0.093-0.905-0.093-1.183V84.751z M371.831,88.091c0.154,0.248,0.355,0.649,0.603,1.206
		c0.247,0.557,0.51,1.152,0.789,1.786s0.541,1.237,0.789,1.809c0.247,0.573,0.448,0.998,0.603,1.276
		c0.123,0.155,0.317,0.356,0.58,0.603c0.262,0.248,0.541,0.503,0.835,0.766c0.293,0.263,0.563,0.526,0.812,0.788
		c0.247,0.263,0.448,0.457,0.603,0.58c0.494,0.217,0.974,0.402,1.438,0.557c0.371,0.155,0.742,0.278,1.113,0.371
		s0.633,0.139,0.789,0.139h0.464h0.557c0.278,0,0.703-0.023,1.276-0.07c0.572-0.046,1.136-0.1,1.693-0.162
		c0.649-0.062,1.345-0.139,2.087-0.232c0.433-0.216,0.819-0.433,1.16-0.649c0.309-0.186,0.61-0.371,0.905-0.557
		c0.293-0.186,0.517-0.355,0.672-0.51l0.603-0.603c0.154-0.123,0.348-0.325,0.58-0.603c0.231-0.278,0.471-0.587,0.719-0.928
		c0.278-0.34,0.572-0.742,0.881-1.206c0.216-0.309,0.401-0.603,0.557-0.881c0.154-0.247,0.286-0.487,0.394-0.719
		c0.108-0.231,0.163-0.424,0.163-0.58c0-0.154,0.03-0.325,0.093-0.51c0.062-0.186,0.123-0.355,0.186-0.51
		c0.093-0.186,0.201-0.386,0.325-0.603c0-0.123,0.03-0.41,0.093-0.858c0.062-0.448,0.123-0.928,0.186-1.438
		c0.062-0.511,0.123-1.021,0.186-1.531c0.062-0.51,0.093-0.904,0.093-1.183v-0.603v-0.464c0-0.278-0.093-0.657-0.278-1.136
		s-0.278-0.858-0.278-1.137l-0.603-1.067l-1.113-2.737c-0.217-0.309-0.417-0.618-0.603-0.928c-0.155-0.247-0.325-0.494-0.51-0.742
		c-0.186-0.247-0.356-0.448-0.51-0.603l-1.716-1.624c-0.155-0.154-0.348-0.325-0.58-0.51c-0.232-0.186-0.472-0.355-0.719-0.51
		c-0.278-0.186-0.573-0.386-0.881-0.603h-0.557h-1.16l-1.021,0.464l-0.603,0.603l-1.113,2.18l-0.603,0.557l-1.021,0.557
		c-0.155,0-0.441,0.063-0.858,0.186c-0.418,0.124-0.875,0.255-1.369,0.394c-0.495,0.14-0.959,0.271-1.392,0.395
		c-0.434,0.124-0.712,0.186-0.835,0.186l-1.16,0.557l-1.16,1.067c-0.093,0.217-0.17,0.434-0.232,0.649
		c-0.155,0.402-0.232,0.758-0.232,1.067c0,0.248-0.054,0.58-0.163,0.997c-0.108,0.418-0.24,0.843-0.394,1.276
		c-0.155,0.495-0.341,1.005-0.557,1.531c0,0.155-0.031,0.379-0.093,0.673c-0.063,0.294-0.132,0.619-0.208,0.974
		c-0.078,0.356-0.147,0.689-0.209,0.998c-0.063,0.31-0.093,0.526-0.093,0.649v0.603V88.091z"/>
	<path style="&st0;" d="M409.45,100.337v-1.021c0-0.123,0.062-0.271,0.186-0.44c0.123-0.17,0.255-0.348,0.394-0.534
		c0.14-0.186,0.271-0.371,0.395-0.557c0.123-0.186,0.186-0.355,0.186-0.51l0.371-5.845l-0.371-5.242l0.278-2.783l-0.278-8.35
		c0-0.216-0.063-0.665-0.186-1.345c-0.124-0.68-0.255-1.399-0.395-2.157c-0.139-0.757-0.271-1.484-0.394-2.18
		c-0.124-0.696-0.186-1.167-0.186-1.415v-0.51c0-0.123,0.03-0.363,0.093-0.719c0.062-0.355,0.131-0.726,0.208-1.113
		c0.077-0.386,0.146-0.749,0.209-1.09c0.062-0.34,0.093-0.587,0.093-0.742l1.484-0.974l1.067-0.557h1.16h0.928
		c0.494,0.217,0.943,0.417,1.345,0.603c0.34,0.155,0.688,0.325,1.043,0.51s0.61,0.325,0.766,0.417l0.371,0.557l0.557,1.021v0.51
		l-0.557,2.087c0,0.155-0.023,0.402-0.069,0.742c-0.047,0.341-0.093,0.712-0.14,1.113c-0.046,0.402-0.085,0.805-0.116,1.206
		c-0.031,0.402-0.046,0.742-0.046,1.021v0.464v0.557l0.186,1.345h0.557l1.345-2.366c0-0.123,0.1-0.309,0.301-0.557
		c0.201-0.247,0.433-0.494,0.696-0.742c0.262-0.247,0.494-0.494,0.695-0.742c0.201-0.247,0.302-0.433,0.302-0.557l1.021-1.484
		c0.216-0.278,0.433-0.541,0.649-0.789c0.186-0.216,0.371-0.41,0.557-0.58s0.355-0.255,0.51-0.255
		c0.062-0.123,0.208-0.293,0.441-0.51c0.231-0.216,0.471-0.433,0.719-0.649c0.247-0.216,0.494-0.41,0.742-0.58
		c0.247-0.169,0.433-0.255,0.557-0.255h0.603c0.123,0,0.271,0.054,0.441,0.162c0.169,0.109,0.332,0.225,0.487,0.348
		c0.186,0.155,0.371,0.325,0.557,0.51c0.123,0.124,0.301,0.31,0.534,0.557c0.231,0.248,0.479,0.495,0.742,0.742
		c0.262,0.248,0.51,0.495,0.742,0.742c0.231,0.248,0.394,0.434,0.487,0.557c0.309,0.278,0.587,0.542,0.835,0.789
		c0.216,0.217,0.41,0.441,0.58,0.672c0.17,0.232,0.255,0.411,0.255,0.534l0.417,1.021c0.123,0.278,0.309,0.681,0.557,1.206
		c0.247,0.526,0.479,1.067,0.696,1.624c0.216,0.557,0.41,1.067,0.58,1.531s0.255,0.758,0.255,0.881c0,0.124,0.054,0.356,0.163,0.696
		c0.108,0.341,0.231,0.719,0.371,1.136c0.139,0.418,0.27,0.828,0.394,1.229c0.123,0.402,0.186,0.742,0.186,1.021
		c0,0.093,0.039,0.333,0.116,0.719c0.077,0.387,0.163,0.851,0.255,1.392c0.093,0.542,0.208,1.122,0.348,1.74
		c0.139,0.619,0.255,1.199,0.348,1.74s0.178,1.005,0.255,1.392s0.116,0.626,0.116,0.719c0,0.248,0.093,0.596,0.278,1.044
		s0.278,0.796,0.278,1.043l0.603,1.531c0,0.124,0.023,0.356,0.07,0.696c0.046,0.341,0.1,0.704,0.162,1.09
		c0.062,0.387,0.116,0.75,0.162,1.09c0.047,0.341,0.07,0.573,0.07,0.696c0,0.155,0.03,0.317,0.093,0.487
		c0.062,0.17,0.123,0.333,0.186,0.487c0.093,0.186,0.186,0.371,0.278,0.557c0,0.155,0.1,0.371,0.301,0.649s0.433,0.58,0.696,0.904
		c0.262,0.325,0.494,0.626,0.695,0.905s0.302,0.48,0.302,0.603l0.557,1.021v1.16v0.464c0,0.124-0.054,0.294-0.162,0.51
		c-0.109,0.217-0.225,0.449-0.348,0.696c-0.155,0.278-0.325,0.573-0.51,0.881c-0.278,0.216-0.557,0.386-0.835,0.51
		c-0.248,0.123-0.48,0.232-0.696,0.325c-0.217,0.093-0.402,0.139-0.557,0.139l-1.624,0.557h-0.464c-0.093,0-0.232-0.031-0.417-0.093
		c-0.186-0.063-0.356-0.124-0.51-0.186c-0.186-0.093-0.387-0.186-0.603-0.278c-0.217-0.186-0.417-0.341-0.603-0.464
		c-0.155-0.124-0.325-0.24-0.51-0.348s-0.356-0.162-0.51-0.162l-1.021-1.021c-0.217-0.494-0.387-0.958-0.51-1.392
		c-0.124-0.371-0.232-0.726-0.325-1.067c-0.093-0.34-0.139-0.572-0.139-0.696c0-0.154-0.031-0.332-0.093-0.533
		c-0.063-0.201-0.124-0.41-0.186-0.626c-0.093-0.247-0.186-0.494-0.278-0.742v-2.18l-0.557-2.087c0-0.093-0.023-0.363-0.07-0.812
		c-0.046-0.448-0.093-0.928-0.139-1.438c-0.047-0.511-0.093-0.99-0.14-1.438c-0.046-0.448-0.069-0.734-0.069-0.858
		c-0.093-0.525-0.202-1.021-0.325-1.484c-0.093-0.401-0.193-0.812-0.301-1.229c-0.109-0.418-0.24-0.75-0.395-0.998l-0.557-1.531
		c0-0.123-0.023-0.378-0.069-0.766c-0.047-0.386-0.109-0.804-0.186-1.252c-0.078-0.448-0.14-0.866-0.186-1.253
		c-0.047-0.386-0.07-0.656-0.07-0.812c0-0.123-0.054-0.355-0.163-0.696c-0.108-0.34-0.24-0.703-0.394-1.09
		c-0.155-0.386-0.317-0.749-0.487-1.09c-0.17-0.34-0.318-0.587-0.441-0.742l-1.067-1.021h-0.557l-0.603,0.603
		c-0.155,0.155-0.317,0.317-0.487,0.487c-0.17,0.17-0.287,0.333-0.348,0.487l-0.557,0.557c-0.155,0.155-0.286,0.31-0.394,0.464
		c-0.109,0.155-0.163,0.294-0.163,0.417l-1.902,1.16c-0.526,1.516-0.982,2.945-1.368,4.291c-0.387,1.345-0.704,2.791-0.951,4.337
		v3.154c0,0.464,0.015,1.275,0.046,2.436c0.03,1.159,0.046,2.374,0.046,3.641c0,0.897-0.016,1.748-0.046,2.551
		c-0.031,0.805-0.046,1.376-0.046,1.716c-0.155,0.124-0.402,0.348-0.742,0.672c-0.341,0.325-0.696,0.673-1.067,1.044
		s-0.719,0.726-1.043,1.067c-0.325,0.34-0.534,0.587-0.626,0.742l-1.16,0.557h-0.928h-1.16c-0.155,0-0.31-0.031-0.464-0.093
		c-0.155-0.063-0.31-0.124-0.464-0.186c-0.155-0.093-0.325-0.186-0.51-0.278c-0.217-0.278-0.402-0.557-0.557-0.835
		c-0.155-0.217-0.286-0.433-0.395-0.649c-0.108-0.216-0.162-0.386-0.162-0.51c0-0.154-0.039-0.317-0.116-0.487
		c-0.077-0.169-0.147-0.332-0.208-0.487c-0.093-0.186-0.186-0.371-0.278-0.557V100.337z"/>
	<path style="&st0;" d="M452.498,61.465c-0.434,0-0.836-0.03-1.207-0.093c-0.341-0.062-0.666-0.131-0.974-0.209
		c-0.31-0.077-0.557-0.192-0.742-0.348l-0.789-0.649l0.093-1.716l3.063-3.154c0.277-0.618,0.557-1.206,0.834-1.763
		c0.248-0.464,0.494-0.92,0.742-1.369c0.248-0.448,0.447-0.795,0.604-1.043c0.246-0.401,0.371-1.036,0.371-1.902
		c0-0.464-0.063-0.874-0.186-1.229c-0.125-0.355-0.186-0.858-0.186-1.507c0-0.34-0.047-0.68-0.139-1.021
		c-0.094-0.34-0.311-0.603-0.65-0.789c-0.834-0.494-1.484-1.198-1.948-2.11s-0.696-1.894-0.696-2.946l1.16-2.551
		c0.154-0.247,0.348-0.502,0.58-0.766c0.232-0.262,0.471-0.517,0.719-0.765c0.279-0.247,0.572-0.494,0.881-0.742l2.088-0.186
		l3.107,0.928c0.217,0.217,0.502,0.464,0.859,0.742c0.354,0.278,0.703,0.542,1.043,0.789c0.402,0.31,0.818,0.634,1.252,0.974
		c0.154,0.681,0.295,1.345,0.418,1.995c0.123,0.557,0.232,1.129,0.324,1.716c0.094,0.588,0.17,1.052,0.232,1.392
		c0.031,0.186,0.063,0.387,0.094,0.603c0.029,0.186,0.053,0.387,0.068,0.603c0.016,0.217,0.023,0.449,0.023,0.696
		c0,0.371-0.086,0.742-0.256,1.113s-0.348,0.634-0.533,0.789c-0.154,0.217-0.248,0.542-0.277,0.974
		c-0.031,0.434-0.063,0.889-0.094,1.368c-0.031,0.48-0.076,0.944-0.139,1.392c-0.063,0.449-0.17,0.782-0.324,0.998
		c-0.186,0.248-0.473,0.681-0.859,1.299c-0.387,0.619-0.805,1.26-1.252,1.925c-0.449,0.665-0.865,1.299-1.252,1.901
		c-0.387,0.604-0.658,0.998-0.813,1.183l-2.086,1.484c-0.402,0.681-0.828,1.183-1.277,1.507
		C453.928,61.303,453.301,61.465,452.498,61.465z"/>
	<path style="&st0;" d="M469.521,102.332v-1.021l0.557-1.16c0.217-0.093,0.418-0.186,0.604-0.278
		c0.154-0.062,0.324-0.123,0.51-0.186c0.186-0.062,0.355-0.093,0.51-0.093c0.123,0,0.34-0.03,0.65-0.093
		c0.309-0.062,0.641-0.131,0.996-0.209c0.355-0.077,0.689-0.146,0.998-0.208c0.309-0.062,0.541-0.093,0.695-0.093h3.295
		c0.154,0,0.361-0.023,0.625-0.07c0.262-0.046,0.533-0.1,0.813-0.162c0.277-0.062,0.541-0.116,0.789-0.162
		c0.246-0.047,0.432-0.07,0.557-0.07c0.123,0,0.494-0.093,1.113-0.278c0.617-0.186,1.289-0.401,2.018-0.649
		c0.725-0.247,1.43-0.494,2.109-0.742c0.68-0.247,1.145-0.448,1.393-0.603c0.123,0,0.316-0.054,0.58-0.162
		c0.262-0.108,0.533-0.232,0.811-0.371c0.279-0.14,0.549-0.263,0.813-0.371c0.262-0.108,0.455-0.163,0.58-0.163
		c0.123,0,0.285-0.054,0.486-0.163c0.201-0.108,0.41-0.231,0.627-0.371c0.215-0.139,0.424-0.27,0.625-0.394
		c0.201-0.123,0.379-0.186,0.535-0.186c0.154-0.154,0.377-0.325,0.672-0.51c0.293-0.186,0.596-0.355,0.904-0.51
		c0.34-0.186,0.727-0.386,1.16-0.603l1.066-1.16v-0.557v-0.557c-0.123,0-0.318-0.054-0.58-0.163
		c-0.264-0.108-0.533-0.231-0.811-0.371c-0.279-0.139-0.551-0.262-0.813-0.371c-0.264-0.108-0.457-0.162-0.58-0.162
		s-0.34-0.03-0.648-0.093c-0.311-0.062-0.635-0.123-0.975-0.186c-0.342-0.062-0.674-0.123-0.998-0.186
		c-0.324-0.062-0.549-0.093-0.672-0.093c-0.557,0-1.516-0.03-2.877-0.093c-1.361-0.062-2.807-0.123-4.336-0.186
		c-1.531-0.062-2.969-0.123-4.314-0.186c-1.346-0.062-2.297-0.093-2.854-0.093c-0.277,0-0.648-0.093-1.113-0.278
		c-0.463-0.186-0.818-0.278-1.066-0.278l-1.113-0.51l-1.16-1.113c-0.092-0.216-0.186-0.433-0.277-0.649
		c-0.063-0.154-0.125-0.325-0.186-0.51c-0.063-0.186-0.094-0.34-0.094-0.464v-1.716v-1.16l0.557-1.021
		c0.154-0.154,0.326-0.378,0.512-0.673c0.186-0.293,0.371-0.595,0.557-0.904c0.215-0.34,0.432-0.726,0.648-1.16
		c0.123-0.154,0.379-0.448,0.766-0.881c0.387-0.433,0.803-0.889,1.252-1.368c0.447-0.479,0.889-0.935,1.322-1.369
		c0.434-0.433,0.773-0.726,1.021-0.881l1.158-0.557c0.154,0,0.326-0.046,0.512-0.139s0.371-0.216,0.557-0.371
		c0.215-0.154,0.432-0.34,0.648-0.557c0.123-0.123,0.309-0.309,0.557-0.557c0.248-0.247,0.51-0.494,0.789-0.742
		c0.277-0.247,0.541-0.456,0.789-0.626c0.246-0.169,0.447-0.255,0.602-0.255l2.182-2.273c0.277-0.247,0.732-0.649,1.367-1.206
		c0.633-0.557,1.291-1.152,1.973-1.786c0.68-0.634,1.328-1.237,1.947-1.81c0.619-0.572,1.066-0.997,1.346-1.275l1.16-0.464
		c0.123-0.154,0.324-0.293,0.602-0.417c0.279-0.123,0.588-0.247,0.928-0.371c0.34-0.123,0.742-0.247,1.207-0.371h1.066h0.557
		c0.309,0.31,0.619,0.603,0.928,0.881c0.248,0.248,0.486,0.487,0.719,0.719c0.232,0.232,0.41,0.426,0.533,0.58l0.604,1.16v2.18
		v1.716l-0.881,0.881c-0.248,0.248-0.496,0.487-0.742,0.719c-0.248,0.232-0.449,0.426-0.604,0.58l-1.113,0.557l-2.783,1.067
		l-1.02,0.557l-1.717,1.16l-2.736,1.624l-1.717,1.113l-2.18,1.067c-0.156,0.155-0.389,0.379-0.697,0.673s-0.643,0.619-0.996,0.974
		c-0.357,0.356-0.689,0.689-0.998,0.998c-0.309,0.31-0.525,0.526-0.648,0.649l-0.557,1.16l0.557,0.557
		c0.432,0,1.119,0.023,2.063,0.069c0.943,0.047,1.934,0.101,2.969,0.163c1.037,0.063,2.02,0.116,2.947,0.163
		c0.928,0.046,1.592,0.069,1.994,0.069c0.277,0,0.789,0.063,1.531,0.186c0.742,0.124,1.545,0.278,2.412,0.464
		c0.865,0.186,1.699,0.379,2.504,0.58s1.406,0.364,1.809,0.487c0.279,0,0.674,0.085,1.184,0.255s1.027,0.355,1.555,0.557
		c0.525,0.201,1.004,0.387,1.438,0.557c0.432,0.17,0.727,0.255,0.881,0.255c0.309,0.31,0.604,0.619,0.881,0.928
		c0.248,0.248,0.488,0.495,0.719,0.742c0.232,0.248,0.426,0.449,0.58,0.603l0.557,1.067v0.557v0.557
		c0,0.155-0.086,0.387-0.254,0.696c-0.172,0.31-0.357,0.642-0.557,0.998c-0.203,0.355-0.389,0.688-0.557,0.997
		c-0.172,0.31-0.256,0.526-0.256,0.649c-0.154,0.278-0.441,0.634-0.857,1.067c-0.418,0.434-0.875,0.866-1.369,1.299
		c-0.494,0.434-0.959,0.843-1.391,1.229c-0.434,0.387-0.713,0.643-0.836,0.766c-0.154,0-0.596,0.178-1.322,0.533
		c-0.727,0.356-1.553,0.782-2.48,1.276c-0.928,0.495-1.855,0.998-2.783,1.507c-0.928,0.511-1.67,0.905-2.227,1.183
		c-0.156,0-0.418,0.054-0.789,0.163s-0.766,0.248-1.184,0.417c-0.418,0.17-0.811,0.348-1.182,0.534s-0.619,0.341-0.742,0.464
		c-0.217,0.124-0.434,0.232-0.65,0.325c-0.186,0.063-0.371,0.124-0.557,0.186c-0.186,0.063-0.355,0.093-0.51,0.093l-2.18,0.557
		c-0.156,0-0.389,0.054-0.697,0.162c-0.309,0.108-0.643,0.224-0.996,0.348c-0.357,0.123-0.689,0.239-0.998,0.348
		c-0.309,0.108-0.525,0.162-0.648,0.162l-1.021,0.603c-0.154,0-0.449,0.03-0.881,0.093c-0.434,0.062-0.891,0.123-1.369,0.186
		c-0.48,0.062-0.936,0.123-1.367,0.186c-0.434,0.062-0.729,0.093-0.883,0.093h-1.715h-1.578c-0.217-0.124-0.434-0.248-0.648-0.371
		c-0.186-0.124-0.371-0.248-0.557-0.371c-0.186-0.124-0.357-0.263-0.512-0.417c-0.154-0.124-0.324-0.278-0.51-0.464
		s-0.355-0.356-0.51-0.51l-0.604-0.603V102.332z"/>
	<path style="&st0;" d="M536.363,95.42v-1.624c0.217-0.433,0.434-0.835,0.65-1.206c0.154-0.34,0.324-0.649,0.51-0.928
		s0.34-0.494,0.465-0.649l1.158-1.113v-1.16V87.72c0-0.278-0.063-0.734-0.186-1.368s-0.254-1.291-0.395-1.972
		c-0.139-0.68-0.27-1.337-0.393-1.972c-0.125-0.633-0.186-1.09-0.186-1.368l-0.465-1.624V78.86v-1.113
		c0-0.186,0.008-0.541,0.023-1.067c0.016-0.525,0.047-1.144,0.092-1.855c0.047-0.711,0.086-1.468,0.117-2.273
		c0.029-0.804,0.068-1.569,0.115-2.296c0.047-0.726,0.076-1.36,0.094-1.901c0.014-0.541,0.023-0.905,0.023-1.09v-4.36v-3.896
		c0-0.123-0.055-0.34-0.164-0.649c-0.107-0.309-0.225-0.642-0.348-0.998c-0.123-0.355-0.24-0.688-0.348-0.997
		c-0.109-0.309-0.162-0.541-0.162-0.696c0-0.123-0.039-0.301-0.115-0.534c-0.078-0.231-0.148-0.471-0.209-0.719l-0.279-0.928v-1.021
		V51.91c0.123-0.216,0.248-0.433,0.371-0.649c0.123-0.186,0.248-0.371,0.371-0.557s0.264-0.355,0.418-0.51
		c0.248-0.247,0.502-0.417,0.766-0.51c0.262-0.093,0.549-0.278,0.857-0.557c0.154,0,0.326-0.03,0.512-0.093
		c0.186-0.062,0.371-0.123,0.557-0.186c0.215-0.093,0.432-0.186,0.648-0.278h1.578h1.158c0.123,0,0.395,0.116,0.813,0.348
		c0.418,0.232,0.865,0.48,1.346,0.742c0.479,0.263,0.928,0.511,1.344,0.742c0.418,0.232,0.703,0.348,0.859,0.348
		c0.215,0.093,0.432,0.186,0.648,0.278c0.186,0.063,0.371,0.124,0.557,0.186c0.186,0.063,0.355,0.093,0.512,0.093
		c0.123,0,0.309,0.031,0.557,0.093c0.246,0.063,0.51,0.132,0.787,0.208c0.279,0.078,0.541,0.147,0.789,0.209
		c0.248,0.063,0.447,0.093,0.604,0.093h1.066c0.434,0,1.051,0.031,1.855,0.093c0.805,0.063,1.623,0.124,2.459,0.186
		c0.834,0.063,1.584,0.124,2.25,0.186c0.664,0.063,1.074,0.093,1.229,0.093l2.18,0.464c0.123,0,0.426,0.031,0.904,0.093
		c0.48,0.063,0.998,0.124,1.555,0.186c0.557,0.063,1.066,0.124,1.531,0.186c0.463,0.063,0.771,0.093,0.928,0.093
		c0.154,0,0.387,0.063,0.695,0.186c0.309,0.124,0.619,0.263,0.928,0.417c0.34,0.155,0.727,0.341,1.16,0.557
		c0.123,0,0.285,0.116,0.486,0.348c0.201,0.231,0.41,0.503,0.627,0.812c0.215,0.31,0.418,0.619,0.604,0.928
		c0.186,0.31,0.34,0.526,0.463,0.649c0.094,0.217,0.186,0.417,0.279,0.603c0.061,0.155,0.123,0.325,0.186,0.51
		c0.061,0.186,0.092,0.356,0.092,0.51v0.557l-0.557,1.624c0,0.155-0.055,0.356-0.162,0.603c-0.109,0.248-0.24,0.495-0.395,0.742
		c-0.154,0.31-0.324,0.619-0.51,0.928c-0.156,0.124-0.387,0.364-0.695,0.719c-0.311,0.355-0.65,0.742-1.021,1.159
		c-0.371,0.418-0.758,0.812-1.16,1.183s-0.742,0.619-1.02,0.742c-0.434,0.341-0.82,0.649-1.16,0.928
		c-0.309,0.248-0.611,0.487-0.904,0.719c-0.295,0.231-0.518,0.41-0.672,0.533c-0.156,0-0.326,0.093-0.512,0.278
		s-0.379,0.379-0.58,0.58s-0.402,0.394-0.602,0.58c-0.203,0.186-0.365,0.278-0.488,0.278c0.279,0,0.727,0.054,1.346,0.163
		s1.275,0.231,1.971,0.371c0.697,0.139,1.354,0.263,1.973,0.371c0.617,0.108,1.066,0.162,1.346,0.162
		c0.277,0,0.725,0.063,1.344,0.186c0.619,0.124,1.268,0.271,1.949,0.44c0.68,0.17,1.328,0.356,1.947,0.557
		c0.619,0.202,1.068,0.379,1.346,0.534c0.154,0,0.379,0.054,0.672,0.163c0.295,0.108,0.596,0.225,0.906,0.348
		c0.34,0.155,0.725,0.325,1.158,0.51l1.717,0.603c0.217,0,0.447,0.093,0.695,0.278c0.123,0.093,0.232,0.186,0.326,0.278
		c0.309,0.434,0.617,0.82,0.928,1.16c0.246,0.31,0.502,0.611,0.764,0.905c0.264,0.294,0.473,0.518,0.627,0.672l1.021,1.624
		c0.154,0.155,0.293,0.356,0.416,0.603c0.123,0.248,0.248,0.495,0.371,0.742c0.123,0.31,0.248,0.619,0.371,0.928v1.067v1.716
		l-0.602,1.021c0,0.155-0.055,0.325-0.164,0.51c-0.107,0.186-0.225,0.371-0.348,0.557c-0.154,0.217-0.324,0.434-0.51,0.649
		l-1.717,1.624c-0.154,0.155-0.463,0.41-0.928,0.765c-0.463,0.356-0.973,0.742-1.529,1.16c-0.557,0.417-1.076,0.812-1.555,1.183
		c-0.48,0.371-0.781,0.634-0.904,0.789c-0.279,0.248-0.758,0.588-1.438,1.021c-0.682,0.434-1.385,0.874-2.111,1.322
		c-0.727,0.449-1.4,0.866-2.018,1.253c-0.619,0.387-0.99,0.642-1.113,0.765c-0.156,0-0.418,0.063-0.789,0.186
		c-0.371,0.124-0.766,0.271-1.184,0.441c-0.416,0.17-0.811,0.348-1.182,0.533s-0.619,0.341-0.742,0.464
		c-0.279,0.093-0.781,0.271-1.508,0.533c-0.727,0.263-1.578,0.565-2.551,0.905c-0.975,0.341-2.004,0.696-3.086,1.067
		s-2.109,0.727-3.084,1.067c-0.975,0.341-1.832,0.642-2.574,0.905c-0.742,0.262-1.252,0.44-1.531,0.533
		c-0.805,0.247-1.508,0.626-2.111,1.137c-0.602,0.51-1.166,1.059-1.691,1.646c-0.217,0.216-0.434,0.386-0.65,0.51
		c-0.186,0.154-0.371,0.278-0.557,0.371s-0.355,0.139-0.51,0.139l-1.113,0.557h-1.066h-1.717l-1.021-0.557
		c-0.309-0.278-0.58-0.542-0.811-0.789c-0.232-0.248-0.348-0.526-0.348-0.835l-0.557-1.67l-0.465-1.067l-1.16-1.16l-1.158-0.557
		l-1.021-1.021l-0.557-1.16c0-0.123-0.031-0.317-0.092-0.58c-0.063-0.262-0.133-0.525-0.209-0.788
		c-0.078-0.263-0.148-0.518-0.209-0.766c-0.063-0.247-0.094-0.448-0.094-0.603V95.42z M545.781,69.444v1.716l0.557,0.603h1.066
		h0.557c0.277-0.154,0.727-0.332,1.346-0.533c0.617-0.201,1.252-0.41,1.9-0.626c0.65-0.216,1.244-0.425,1.787-0.626
		c0.539-0.201,0.889-0.378,1.043-0.533c0.154,0,0.387-0.116,0.695-0.348c0.309-0.232,0.643-0.479,0.998-0.742
		s0.68-0.511,0.975-0.742c0.293-0.232,0.518-0.348,0.672-0.348c0.123-0.123,0.455-0.34,0.998-0.649
		c0.539-0.309,1.119-0.642,1.738-0.998c0.619-0.355,1.199-0.68,1.74-0.974s0.889-0.518,1.043-0.673c0.154,0,0.326-0.046,0.512-0.139
		s0.354-0.216,0.51-0.371c0.186-0.154,0.387-0.34,0.604-0.557l0.557-0.557V61.79v-0.603l-0.557-0.464
		c-0.217-0.093-0.418-0.186-0.604-0.278c-0.156-0.062-0.324-0.123-0.51-0.186c-0.186-0.062-0.357-0.093-0.512-0.093
		s-0.416-0.03-0.787-0.093c-0.371-0.062-0.766-0.131-1.184-0.209c-0.418-0.077-0.813-0.146-1.184-0.208
		c-0.371-0.062-0.619-0.093-0.742-0.093h-4.359h-4.5c-0.123,0-0.309,0.063-0.557,0.186c-0.248,0.124-0.51,0.255-0.789,0.394
		c-0.277,0.14-0.549,0.271-0.811,0.395c-0.264,0.124-0.457,0.186-0.58,0.186l-1.066,0.464c0,0.278-0.031,0.735-0.094,1.368
		c-0.063,0.634-0.123,1.292-0.186,1.972c-0.063,0.681-0.123,1.338-0.186,1.972s-0.092,1.09-0.092,1.368V69.444z M546.338,83.221
		v1.16l0.51,1.624v1.716c0,0.155,0.029,0.41,0.092,0.766s0.123,0.742,0.186,1.159c0.063,0.418,0.123,0.805,0.186,1.16
		s0.094,0.596,0.094,0.719c0,0.155,0.053,0.41,0.162,0.766c0.107,0.355,0.232,0.742,0.371,1.159c0.139,0.418,0.27,0.812,0.395,1.183
		c0.123,0.371,0.186,0.634,0.186,0.789l0.604,2.18l0.557,0.557h2.18h2.18c0.154,0,0.387-0.03,0.695-0.093
		c0.309-0.062,0.643-0.123,0.998-0.186c0.355-0.062,0.68-0.123,0.975-0.186c0.293-0.062,0.518-0.093,0.672-0.093
		c0.123,0,0.316-0.054,0.58-0.163c0.262-0.108,0.525-0.231,0.789-0.371c0.262-0.139,0.518-0.262,0.766-0.371
		c0.246-0.108,0.447-0.162,0.602-0.162s0.471-0.093,0.951-0.278c0.479-0.186,0.998-0.378,1.555-0.58
		c0.557-0.201,1.066-0.394,1.531-0.58c0.463-0.186,0.771-0.278,0.928-0.278c0.123,0,0.293-0.054,0.51-0.163
		c0.215-0.108,0.424-0.224,0.625-0.348c0.201-0.123,0.402-0.239,0.604-0.348s0.379-0.163,0.533-0.163
		c0.123,0,0.363-0.123,0.719-0.371c0.355-0.247,0.758-0.525,1.207-0.835c0.447-0.309,0.896-0.618,1.346-0.928
		c0.447-0.309,0.811-0.525,1.09-0.649c0.123-0.123,0.348-0.317,0.672-0.58s0.656-0.518,0.998-0.766
		c0.34-0.247,0.664-0.464,0.975-0.649c0.309-0.186,0.539-0.278,0.695-0.278l0.557-0.464c0.123-0.123,0.285-0.34,0.486-0.649
		c0.201-0.309,0.379-0.642,0.533-0.997s0.295-0.688,0.418-0.998c0.123-0.309,0.186-0.541,0.186-0.696v-1.113v-0.603
		c-0.217-0.186-0.418-0.371-0.604-0.557l-1.02-1.021l-1.113-0.603c-0.434-0.154-0.959-0.348-1.578-0.58
		c-0.619-0.231-1.221-0.471-1.809-0.719c-0.68-0.278-1.391-0.572-2.133-0.881c-0.156,0-0.418-0.03-0.789-0.093
		c-0.371-0.062-0.766-0.123-1.184-0.186c-0.418-0.062-0.811-0.123-1.182-0.186c-0.371-0.062-0.619-0.093-0.742-0.093h-3.805h-3.896
		c-0.154,0-0.418,0.031-0.789,0.093c-0.371,0.063-0.781,0.124-1.229,0.186c-0.449,0.063-0.898,0.124-1.346,0.186
		c-0.449,0.063-0.811,0.093-1.09,0.093c-0.154,0-0.371,0.031-0.648,0.093c-0.279,0.063-0.588,0.124-0.928,0.186
		c-0.371,0.093-0.773,0.186-1.207,0.278c-0.123,0-0.34,0.063-0.648,0.186c-0.311,0.124-0.635,0.263-0.975,0.417
		c-0.342,0.155-0.674,0.333-0.998,0.533c-0.324,0.202-0.549,0.364-0.672,0.487l-0.51,1.16V83.221z"/>
	<path style="&st0;" d="M596.992,103.956c-0.156-0.278-0.355-0.719-0.604-1.322c-0.248-0.603-0.494-1.244-0.742-1.925
		c-0.248-0.68-0.463-1.329-0.648-1.948c-0.186-0.618-0.279-1.067-0.279-1.345v-0.603v-1.113c0-0.154,0.031-0.363,0.094-0.626
		c0.061-0.263,0.123-0.534,0.186-0.812c0.061-0.278,0.123-0.541,0.186-0.789c0.061-0.247,0.092-0.433,0.092-0.557
		c0-0.123-0.031-0.401-0.092-0.835c-0.063-0.433-0.125-0.896-0.186-1.392c-0.063-0.494-0.125-0.951-0.186-1.368
		c-0.063-0.418-0.094-0.703-0.094-0.858c0-0.247-0.031-0.766-0.092-1.554c-0.063-0.789-0.133-1.647-0.209-2.575
		c-0.078-0.928-0.148-1.824-0.209-2.69c-0.063-0.865-0.094-1.5-0.094-1.902v-2.319c0-0.123-0.031-0.464-0.092-1.021
		c-0.063-0.557-0.125-1.144-0.186-1.763c-0.063-0.618-0.125-1.19-0.186-1.716c-0.063-0.525-0.094-0.85-0.094-0.974v-2.18
		c0-0.154-0.031-0.626-0.092-1.415c-0.063-0.789-0.125-1.639-0.186-2.552c-0.063-0.912-0.125-1.754-0.186-2.528
		c-0.063-0.772-0.094-1.236-0.094-1.392c0-0.278-0.031-0.951-0.092-2.018c-0.063-1.066-0.125-2.218-0.186-3.456
		c-0.063-1.236-0.125-2.389-0.186-3.456c-0.063-1.067-0.094-1.74-0.094-2.018l-0.602-2.18v-2.273c0-0.123-0.063-0.34-0.186-0.649
		c-0.125-0.309-0.256-0.649-0.395-1.021c-0.141-0.371-0.264-0.711-0.371-1.021c-0.109-0.309-0.162-0.525-0.162-0.649v-1.716v-1.021
		l3.385-3.34h1.16h2.273l0.975,0.557c0.154,0,0.324,0.054,0.51,0.162c0.186,0.109,0.371,0.24,0.557,0.395
		c0.215,0.155,0.432,0.325,0.648,0.51l1.113,1.716v1.021v1.16c0,0.155-0.063,0.387-0.186,0.696c-0.123,0.31-0.254,0.634-0.395,0.974
		c-0.139,0.341-0.262,0.672-0.371,0.998c-0.107,0.324-0.162,0.58-0.162,0.765c0,0.124-0.031,0.364-0.092,0.719
		c-0.063,0.355-0.133,0.735-0.209,1.136c-0.078,0.402-0.146,0.789-0.209,1.16s-0.092,0.619-0.092,0.742v5.52v6.077
		c0,0.093,0.014,0.348,0.045,0.766c0.031,0.417,0.07,0.92,0.117,1.507c0.045,0.588,0.092,1.222,0.139,1.902
		c0.047,0.681,0.092,1.315,0.139,1.902c0.047,0.588,0.086,1.098,0.117,1.531c0.029,0.434,0.045,0.696,0.045,0.789v1.577
		c0,0.402,0.031,1.067,0.094,1.995c0.061,0.928,0.123,1.887,0.186,2.876c0.061,0.99,0.123,1.887,0.186,2.69
		c0.061,0.805,0.092,1.269,0.092,1.392c0,0.124,0.031,0.364,0.094,0.719c0.061,0.356,0.123,0.742,0.186,1.16
		c0.061,0.417,0.123,0.812,0.186,1.183c0.061,0.371,0.092,0.619,0.092,0.742c0,0.155,0.031,0.464,0.094,0.928
		c0.061,0.464,0.123,0.974,0.186,1.531c0.061,0.557,0.123,1.075,0.186,1.554c0.061,0.479,0.092,0.781,0.092,0.904
		c0,0.155,0.063,0.417,0.186,0.789s0.256,0.765,0.395,1.183c0.139,0.417,0.271,0.812,0.395,1.183s0.186,0.619,0.186,0.742
		c0.217,0.31,0.402,0.603,0.557,0.881c0.154,0.248,0.293,0.487,0.418,0.719c0.123,0.231,0.186,0.425,0.186,0.58l1.113,1.716v1.716
		v2.18c0,0.124-0.031,0.31-0.094,0.557c-0.063,0.248-0.123,0.51-0.186,0.789s-0.123,0.549-0.186,0.812s-0.092,0.472-0.092,0.626
		l-0.557,0.464c-0.867,0.557-1.633,0.881-2.297,0.974c-0.666,0.093-1.43,0.139-2.295,0.139h-1.717L596.992,103.956z"/>
	<path style="&st0;" d="M611.836,84.751v-1.716c0.092-0.618,0.201-1.206,0.324-1.763c0.094-0.464,0.209-0.935,0.348-1.415
		s0.285-0.874,0.441-1.183c0-0.154,0.029-0.325,0.092-0.51s0.123-0.355,0.186-0.51c0.094-0.186,0.201-0.386,0.326-0.603
		c0.123-0.278,0.393-0.842,0.811-1.693c0.418-0.85,0.865-1.763,1.346-2.736c0.479-0.975,0.928-1.886,1.346-2.737
		c0.416-0.85,0.703-1.398,0.857-1.646l0.557-0.557l2.273-1.716l1.066-1.067c0.279,0,0.734-0.03,1.369-0.093
		c0.633-0.062,1.299-0.123,1.994-0.186c0.695-0.062,1.352-0.123,1.971-0.186c0.619-0.062,1.051-0.093,1.299-0.093
		c0.123,0,0.316-0.03,0.58-0.093c0.262-0.062,0.541-0.123,0.836-0.186c0.293-0.062,0.57-0.123,0.834-0.186
		c0.262-0.062,0.471-0.093,0.627-0.093h1.576h1.717c0.309,0.093,0.604,0.186,0.881,0.278c0.248,0.063,0.488,0.124,0.719,0.186
		c0.232,0.063,0.426,0.093,0.58,0.093l1.16,0.557c0.154,0,0.324,0.054,0.51,0.162c0.186,0.109,0.355,0.24,0.512,0.395
		c0.186,0.155,0.385,0.325,0.602,0.51c0.123,0.155,0.348,0.379,0.674,0.672c0.324,0.294,0.664,0.619,1.02,0.975
		s0.688,0.688,0.998,0.997c0.309,0.31,0.541,0.526,0.695,0.649c0.217,0.341,0.418,0.649,0.604,0.928
		c0.371,0.557,0.711,0.974,1.02,1.252c0,0.155,0.055,0.325,0.162,0.51c0.109,0.186,0.24,0.371,0.395,0.557
		c0.154,0.217,0.355,0.434,0.604,0.649c0.123,0.155,0.285,0.387,0.486,0.696c0.201,0.31,0.379,0.642,0.535,0.998
		c0.154,0.355,0.293,0.688,0.416,0.997c0.123,0.31,0.186,0.526,0.186,0.649c0.094,0.31,0.186,0.603,0.279,0.881
		c0.061,0.248,0.123,0.487,0.186,0.719c0.061,0.231,0.092,0.425,0.092,0.58c0,0.278,0.031,0.704,0.094,1.276
		c0.061,0.572,0.123,1.144,0.186,1.716c0.061,0.573,0.123,1.106,0.186,1.601c0.061,0.495,0.092,0.805,0.092,0.928v3.34v2.737
		c0,0.155-0.031,0.356-0.092,0.603c-0.063,0.248-0.148,0.503-0.256,0.766c-0.109,0.263-0.232,0.526-0.371,0.788
		c-0.139,0.263-0.271,0.457-0.395,0.58c0,0.155-0.115,0.387-0.348,0.696c-0.232,0.31-0.502,0.642-0.811,0.998
		c-0.311,0.355-0.619,0.688-0.928,0.997c-0.311,0.31-0.543,0.526-0.697,0.649c-0.277,0.278-0.672,0.673-1.182,1.183
		c-0.512,0.511-1.021,1.021-1.531,1.531c-0.51,0.51-0.99,0.974-1.438,1.392c-0.449,0.417-0.736,0.704-0.859,0.858l-2.18,1.113
		c-0.154,0-0.418,0.116-0.789,0.348c-0.371,0.231-0.766,0.479-1.182,0.742c-0.418,0.263-0.813,0.51-1.184,0.742
		c-0.371,0.231-0.619,0.348-0.742,0.348c-0.092,0-0.209,0.023-0.348,0.069c-0.139,0.047-0.379,0.1-0.719,0.163
		c-0.342,0.062-0.828,0.116-1.461,0.163c-0.635,0.046-1.479,0.069-2.529,0.069c-0.371,0-0.75,0.015-1.137,0.046
		c-0.387,0.03-0.764,0.046-1.135,0.046c-0.588,0-1.145-0.031-1.67-0.093c-0.527-0.063-1.053-0.217-1.578-0.464
		c-0.525-0.31-1.006-0.603-1.438-0.881c-0.371-0.247-0.736-0.487-1.09-0.719c-0.357-0.231-0.611-0.424-0.766-0.58
		c-0.156,0-0.334-0.093-0.533-0.278c-0.203-0.186-0.41-0.378-0.627-0.58s-0.426-0.395-0.627-0.58s-0.363-0.278-0.486-0.278
		l-0.51-0.464c-0.156-0.154-0.355-0.378-0.604-0.673c-0.248-0.293-0.494-0.595-0.742-0.904c-0.309-0.34-0.619-0.726-0.928-1.16
		l-0.557-1.16c-0.123-0.278-0.277-0.673-0.463-1.183c-0.186-0.511-0.365-1.021-0.535-1.531c-0.17-0.51-0.316-0.974-0.439-1.392
		c-0.125-0.417-0.186-0.688-0.186-0.812c0-0.154-0.031-0.448-0.094-0.881c-0.063-0.433-0.123-0.912-0.186-1.438
		c-0.063-0.525-0.123-1.044-0.186-1.554c-0.063-0.511-0.092-0.905-0.092-1.183V84.751z M619.025,88.091
		c0.154,0.248,0.355,0.649,0.604,1.206c0.246,0.557,0.51,1.152,0.789,1.786c0.277,0.634,0.539,1.237,0.787,1.809
		c0.248,0.573,0.449,0.998,0.604,1.276c0.123,0.155,0.316,0.356,0.58,0.603c0.262,0.248,0.541,0.503,0.834,0.766
		c0.295,0.263,0.564,0.526,0.813,0.788c0.248,0.263,0.447,0.457,0.604,0.58c0.494,0.217,0.975,0.402,1.438,0.557
		c0.371,0.155,0.742,0.278,1.113,0.371s0.633,0.139,0.789,0.139h0.463h0.557c0.279,0,0.703-0.023,1.275-0.07
		c0.572-0.046,1.137-0.1,1.693-0.162c0.65-0.062,1.346-0.139,2.088-0.232c0.434-0.216,0.818-0.433,1.16-0.649
		c0.309-0.186,0.609-0.371,0.904-0.557c0.293-0.186,0.518-0.355,0.672-0.51l0.604-0.603c0.154-0.123,0.348-0.325,0.58-0.603
		s0.471-0.587,0.719-0.928c0.279-0.34,0.572-0.742,0.881-1.206c0.217-0.309,0.402-0.603,0.557-0.881
		c0.154-0.247,0.285-0.487,0.395-0.719c0.107-0.231,0.162-0.424,0.162-0.58c0-0.154,0.031-0.325,0.094-0.51
		c0.061-0.186,0.123-0.355,0.186-0.51c0.092-0.186,0.201-0.386,0.324-0.603c0-0.123,0.031-0.41,0.094-0.858
		c0.061-0.448,0.123-0.928,0.186-1.438c0.061-0.511,0.123-1.021,0.186-1.531c0.061-0.51,0.092-0.904,0.092-1.183v-0.603v-0.464
		c0-0.278-0.092-0.657-0.277-1.136s-0.279-0.858-0.279-1.137l-0.604-1.067l-1.113-2.737c-0.217-0.309-0.416-0.618-0.602-0.928
		c-0.156-0.247-0.326-0.494-0.512-0.742c-0.186-0.247-0.355-0.448-0.51-0.603l-1.717-1.624c-0.154-0.154-0.348-0.325-0.58-0.51
		c-0.23-0.186-0.471-0.355-0.719-0.51c-0.277-0.186-0.572-0.386-0.881-0.603h-0.557h-1.16l-1.02,0.464l-0.604,0.603l-1.113,2.18
		l-0.604,0.557l-1.02,0.557c-0.156,0-0.441,0.063-0.859,0.186c-0.416,0.124-0.873,0.255-1.367,0.394
		c-0.496,0.14-0.959,0.271-1.393,0.395c-0.434,0.124-0.711,0.186-0.834,0.186l-1.16,0.557l-1.16,1.067
		c-0.092,0.217-0.17,0.434-0.23,0.649c-0.156,0.402-0.232,0.758-0.232,1.067c0,0.248-0.055,0.58-0.162,0.997
		c-0.109,0.418-0.24,0.843-0.395,1.276c-0.156,0.495-0.342,1.005-0.557,1.531c0,0.155-0.031,0.379-0.094,0.673
		s-0.131,0.619-0.209,0.974c-0.076,0.356-0.146,0.689-0.207,0.998c-0.063,0.31-0.094,0.526-0.094,0.649v0.603V88.091z"/>
	<path style="&st0;" d="M652.191,120.469v-3.34l1.16-1.021h0.557h0.465l0.602,1.021c0,0.154,0.031,0.386,0.094,0.696
		c0.061,0.309,0.123,0.642,0.186,0.998c0.061,0.355,0.123,0.688,0.186,0.997c0.061,0.309,0.092,0.525,0.092,0.649
		c0.279,0.557,0.557,1.198,0.836,1.925c0.277,0.727,0.572,1.353,0.881,1.879c0.123,0.154,0.279,0.417,0.465,0.789
		s0.377,0.757,0.578,1.16c0.201,0.401,0.402,0.789,0.604,1.16s0.379,0.633,0.533,0.789c0.279,0.557,0.58,1.082,0.904,1.577
		c0.326,0.494,0.75,0.881,1.277,1.16c0.123,0.123,0.23,0.232,0.324,0.325c0.092,0.093,0.201,0.169,0.324,0.232
		c0.402,0.34,0.758,0.51,1.066,0.51c0.34,0.34,0.773,0.603,1.299,0.789c0.217,0.123,0.512,0.232,0.883,0.325h2.271h2.182
		c0.371-0.093,0.664-0.202,0.881-0.325c0.525-0.186,0.957-0.449,1.299-0.789l0.834-0.603c0.217-0.155,0.418-0.325,0.604-0.51
		s0.279-0.356,0.279-0.51l0.277-0.325c0.186-0.217,0.279-0.464,0.279-0.742c0.123-0.278,0.285-0.634,0.486-1.067
		c0.201-0.434,0.379-0.866,0.533-1.299c0.094-0.248,0.186-0.503,0.279-0.765c0.092-0.263,0.199-0.519,0.324-0.766
		c0-0.124,0.092-0.487,0.277-1.09c0.186-0.604,0.379-1.269,0.58-1.995s0.395-1.422,0.58-2.087c0.186-0.666,0.279-1.122,0.279-1.369
		c0-0.124,0.029-0.371,0.092-0.742s0.123-0.765,0.186-1.183c0.063-0.417,0.123-0.812,0.186-1.183s0.094-0.634,0.094-0.789
		c0-0.124,0.021-0.31,0.068-0.557c0.047-0.248,0.107-0.51,0.186-0.789c0.076-0.278,0.139-0.542,0.186-0.789
		c0.047-0.248,0.07-0.449,0.07-0.603v-11.411l-0.279-1.206c-0.063-0.309-0.115-0.61-0.162-0.904s-0.068-0.502-0.068-0.626
		l-0.557-1.16l-6.17,6.077c-0.125,0.124-0.311,0.31-0.557,0.557c-0.248,0.248-0.51,0.487-0.789,0.719
		c-0.277,0.231-0.549,0.44-0.813,0.626c-0.262,0.186-0.455,0.278-0.578,0.278c-0.156,0.154-0.395,0.325-0.721,0.51
		c-0.324,0.186-0.656,0.363-0.996,0.534c-0.342,0.169-0.666,0.309-0.975,0.417s-0.525,0.163-0.648,0.163h-2.182h-2.783
		c-0.34-0.093-0.648-0.202-0.928-0.325c-0.248-0.093-0.494-0.202-0.742-0.325c-0.248-0.124-0.447-0.248-0.602-0.371l-0.557-0.603
		l-1.068-1.67l-0.557-1.067c0-0.123-0.031-0.309-0.092-0.557c-0.063-0.247-0.125-0.51-0.186-0.789
		c-0.063-0.278-0.125-0.541-0.186-0.789c-0.063-0.247-0.094-0.448-0.094-0.603c-0.063-0.371-0.107-0.726-0.139-1.067
		c-0.031-0.34-0.063-0.68-0.092-1.021c-0.063-0.557-0.117-1.105-0.164-1.647c-0.045-0.541-0.068-0.951-0.068-1.229
		s0.023-0.688,0.068-1.229c0.047-0.541,0.102-1.09,0.164-1.647l0.23-2.041l0.279-1.252c0.061-0.34,0.123-0.696,0.186-1.067
		c0.061-0.371,0.092-0.711,0.092-1.021c0-0.154,0.031-0.378,0.094-0.672c0.061-0.294,0.123-0.595,0.186-0.905l0.277-1.16
		c0-0.154,0.047-0.386,0.141-0.696c0.092-0.309,0.215-0.618,0.371-0.928c0.061-0.154,0.139-0.332,0.23-0.534
		c0.094-0.201,0.201-0.409,0.326-0.626l0.557-1.624l1.158-2.18c0.123-0.123,0.309-0.487,0.557-1.09
		c0.248-0.604,0.512-1.245,0.789-1.925c0.279-0.68,0.541-1.322,0.789-1.925c0.246-0.603,0.447-0.981,0.604-1.136
		c0.123-0.123,0.348-0.401,0.672-0.835c0.324-0.433,0.68-0.905,1.066-1.415c0.387-0.511,0.773-1.013,1.16-1.508
		c0.387-0.494,0.719-0.881,0.998-1.16c0.123-0.154,0.34-0.417,0.648-0.789s0.641-0.742,0.998-1.113
		c0.354-0.371,0.688-0.703,0.996-0.997s0.541-0.441,0.697-0.441c0.123,0,0.377-0.054,0.764-0.163
		c0.387-0.108,0.805-0.247,1.254-0.417c0.447-0.17,0.896-0.348,1.344-0.534c0.449-0.186,0.813-0.355,1.092-0.51h0.557h0.51
		l1.113,0.603c0.123,0.155,0.4,0.41,0.834,0.765c0.434,0.356,0.889,0.727,1.369,1.113c0.479,0.387,0.936,0.758,1.369,1.113
		c0.432,0.356,0.725,0.611,0.881,0.766l1.623,1.16c0.154,0.155,0.355,0.325,0.604,0.51c0.246,0.186,0.494,0.356,0.742,0.51
		l0.928,0.603c0.154,0.155,0.387,0.417,0.695,0.789s0.619,0.765,0.928,1.183c0.309,0.417,0.58,0.812,0.813,1.183
		c0.23,0.371,0.348,0.619,0.348,0.742v1.021v1.16c0,0.155-0.031,0.41-0.094,0.765c-0.063,0.356-0.123,0.742-0.186,1.16
		c-0.063,0.417-0.123,0.804-0.186,1.159c-0.063,0.356-0.092,0.596-0.092,0.719c0,0.155-0.086,0.472-0.256,0.951
		c-0.17,0.48-0.355,0.998-0.557,1.554s-0.387,1.067-0.557,1.531s-0.254,0.758-0.254,0.881v2.273v3.247
		c0,0.278,0.021,0.82,0.068,1.624c0.047,0.805,0.1,1.647,0.162,2.528c0.063,0.882,0.117,1.717,0.162,2.505
		c0.047,0.789,0.07,1.322,0.07,1.601c0,0.155,0.031,0.387,0.094,0.696c0.061,0.31,0.123,0.642,0.186,0.998
		c0.061,0.355,0.123,0.688,0.186,0.997c0.061,0.31,0.092,0.526,0.092,0.649l0.047,5.149l-0.047,0.835l-0.277,1.763
		c-0.063,0.464-0.125,0.943-0.186,1.438c-0.063,0.494-0.094,0.881-0.094,1.16c0,0.154-0.055,0.61-0.162,1.369
		c-0.109,0.757-0.232,1.577-0.371,2.458c-0.139,0.882-0.264,1.708-0.371,2.482c-0.109,0.772-0.162,1.236-0.162,1.392v2.18
		c0,0.154-0.063,0.378-0.186,0.673c-0.125,0.293-0.256,0.618-0.395,0.974s-0.264,0.688-0.371,0.998
		c-0.109,0.309-0.162,0.541-0.162,0.696c0,0.123-0.031,0.332-0.094,0.626s-0.123,0.619-0.186,0.975
		c-0.063,0.355-0.123,0.68-0.186,0.974s-0.092,0.502-0.092,0.626c-0.156,0.278-0.418,0.789-0.789,1.531s-0.766,1.531-1.184,2.366
		c-0.416,0.835-0.811,1.616-1.182,2.342s-0.619,1.213-0.742,1.461l-0.604,0.881c-0.154,0.216-0.324,0.41-0.51,0.58
		c-0.186,0.169-0.355,0.255-0.51,0.255c-0.156,0.154-0.418,0.355-0.789,0.603c-0.371,0.247-0.781,0.51-1.23,0.789
		c-0.447,0.278-0.896,0.541-1.344,0.789c-0.449,0.247-0.813,0.433-1.09,0.557c-0.156,0-0.357,0.054-0.604,0.163
		c-0.248,0.108-0.496,0.239-0.742,0.394l-0.881,0.51l-1.207,0.278c-0.34,0.062-0.648,0.123-0.928,0.186
		c-0.277,0.062-0.48,0.093-0.604,0.093h-0.557h-0.602c-0.156,0-0.381-0.031-0.674-0.093c-0.295-0.063-0.596-0.124-0.904-0.186
		l-1.16-0.278c-0.154,0-0.387-0.054-0.695-0.162c-0.309-0.109-0.643-0.248-0.998-0.418s-0.688-0.348-0.996-0.533
		c-0.311-0.186-0.527-0.356-0.65-0.51l-1.484-1.16c-0.402-0.31-0.773-0.611-1.113-0.904c-0.34-0.294-0.572-0.519-0.695-0.673
		c-0.248,0-0.51-0.186-0.789-0.557c-0.063-0.063-0.123-0.147-0.186-0.255c-0.063-0.109-0.123-0.225-0.186-0.348l-0.557-1.624
		l-1.158-2.18c0-0.124-0.055-0.341-0.164-0.649c-0.107-0.31-0.225-0.642-0.348-0.998s-0.24-0.688-0.348-0.997
		c-0.109-0.31-0.162-0.542-0.162-0.696c-0.154-0.248-0.295-0.58-0.418-0.998c-0.123-0.417-0.248-0.843-0.371-1.275l-0.371-1.484
		V120.469z M661.053,93.101v2.18c0,0.124,0.029,0.317,0.092,0.58c0.063,0.263,0.123,0.534,0.186,0.812s0.123,0.549,0.186,0.812
		s0.094,0.457,0.094,0.58l1.113,1.021h1.158h1.625c0.277,0,0.656-0.093,1.135-0.278c0.48-0.186,0.859-0.278,1.137-0.278
		c0.248,0,0.572-0.169,0.975-0.51c0.094-0.062,0.193-0.131,0.301-0.209c0.109-0.077,0.225-0.177,0.35-0.301
		c0.123-0.154,0.34-0.417,0.648-0.789s0.641-0.766,0.998-1.183c0.354-0.418,0.688-0.804,0.996-1.16
		c0.309-0.355,0.541-0.61,0.697-0.765l2.18-2.18c0-0.123,0.053-0.286,0.162-0.487c0.107-0.201,0.232-0.409,0.371-0.626
		c0.139-0.216,0.27-0.417,0.395-0.603c0.123-0.186,0.186-0.355,0.186-0.51c0-0.123,0.029-0.34,0.092-0.649
		c0.063-0.309,0.123-0.642,0.186-0.997s0.123-0.688,0.186-0.998c0.063-0.309,0.094-0.525,0.094-0.649v-1.067v-0.557l-0.279-0.881
		c-0.063-0.247-0.123-0.487-0.186-0.719c-0.063-0.231-0.092-0.424-0.092-0.58c0-0.154-0.055-0.401-0.162-0.742
		c-0.109-0.34-0.24-0.711-0.395-1.113l-0.557-1.484l-1.066-1.624l-0.557-1.113c0-0.154-0.063-0.386-0.186-0.696
		c-0.125-0.309-0.256-0.642-0.395-0.998c-0.141-0.355-0.271-0.68-0.395-0.974c-0.125-0.294-0.186-0.518-0.186-0.673l-0.557-1.021
		h-0.465l-1.158,0.557c-0.156,0.124-0.357,0.31-0.604,0.557c-0.248,0.248-0.51,0.51-0.789,0.789
		c-0.277,0.278-0.541,0.549-0.789,0.812s-0.434,0.457-0.557,0.58c-0.123,0.217-0.23,0.425-0.324,0.626
		c-0.092,0.201-0.201,0.379-0.324,0.533c-0.186,0.31-0.371,0.619-0.557,0.928c-0.186,0.31-0.355,0.542-0.51,0.696
		c0,0.124-0.055,0.278-0.164,0.464c-0.107,0.186-0.23,0.379-0.371,0.58c-0.139,0.202-0.262,0.402-0.371,0.604
		c-0.107,0.201-0.162,0.379-0.162,0.533c0,0.124-0.092,0.364-0.277,0.719c-0.186,0.356-0.379,0.735-0.58,1.137
		c-0.201,0.402-0.395,0.789-0.58,1.16s-0.277,0.634-0.277,0.789c0,0.155-0.031,0.333-0.094,0.533
		c-0.063,0.202-0.123,0.379-0.186,0.534l-0.277,0.603c0,0.124-0.031,0.341-0.094,0.649c-0.063,0.31-0.123,0.634-0.186,0.974
		c-0.063,0.341-0.123,0.666-0.186,0.974c-0.063,0.31-0.092,0.526-0.092,0.649l-0.279,1.16c-0.063,0.31-0.123,0.619-0.186,0.928
		c-0.063,0.31-0.092,0.542-0.092,0.696V93.101z"/>
</g>
<g>
</g>
<g>
</g>
<g>
</g>
<g>
</g>
<g>
</g>
<g>
</g>
</svg>
